<svg width="1600" height="1484" viewBox="0 0 1600 1484" fill="none" xmlns="http://www.w3.org/2000/svg">
<circle cx="546" cy="-1110" r="2000" fill="url(#paint0_linear_63_70)"/>
<path d="M208.797 451.515C275.778 517.948 192.797 618.088 164.182 713.798C135.566 809.509 332.659 926.761 261.022 984.993C188.69 1043.79 100.152 919.143 8.54579 901.901C-77.6892 885.67 -182.2 955.194 -241.404 890.427C-305.882 819.889 -289.575 705.474 -250.887 618.088C-213.517 533.682 -134.561 480.99 -47.0846 451.515C46.0991 420.116 138.982 382.27 208.797 451.515Z" fill="white" fill-opacity="0.2"/>
<path d="M38.5504 413.326C129.046 439.979 103.579 567.514 123.85 665.332C144.122 763.15 373.255 772.733 337.868 858.001C302.138 944.096 165.024 876.451 76.2194 904.782C-7.37852 931.453 -66.3328 1042.27 -149.193 1013.39C-239.435 981.937 -279.422 873.503 -286.877 778.228C-294.077 686.2 -249.617 602.332 -186.633 534.849C-119.54 462.963 -55.775 385.545 38.5504 413.326Z" fill="white" fill-opacity="0.2"/>
<path d="M1176.07 1014.71C1176.44 1109.05 1046.95 1121.16 959.036 1168.59C871.118 1216.02 927.544 1438.31 835.714 1428.82C742.993 1419.23 768.547 1268.49 715.974 1191.52C666.483 1119.06 543.425 1094.3 547.371 1006.64C551.668 911.171 644.113 841.811 733.265 807.388C819.378 774.139 912.464 792.724 995.156 833.748C1083.24 877.449 1175.68 916.377 1176.07 1014.71Z" fill="white" fill-opacity="0.2"/>
<path d="M802 -18C490 -18 417.142 176 141 176C-135.142 176 -359 -47.8576 -359 -324C-359 -600.142 -135.142 -824 141 -824C417.142 -824 802 -294.142 802 -18Z" fill="white" fill-opacity="0.2"/>
<circle cx="1806" cy="332" r="300" fill="white" fill-opacity="0.2"/>
<defs>
<linearGradient id="paint0_linear_63_70" x1="546" y1="-3110" x2="546" y2="890" gradientUnits="userSpaceOnUse">
<stop offset="0.776042" stop-color="#FD8E70"/>
<stop offset="1" stop-color="#FB3DBB"/>
</linearGradient>
</defs>
</svg>
