<svg width="34" height="34" viewBox="0 0 34 34" fill="none" xmlns="http://www.w3.org/2000/svg">
    <rect x="0.330078" width="33.3333" height="33.3333" rx="6.67" fill="#3BBD96"/>
    <path d="M18.1168 8C19.2724 8 20.2413 8.15111 21.0235 8.45333C21.8057 8.73778 22.4368 9.11111 22.9168 9.57333C23.3968 10.0356 23.7346 10.5511 23.9302 11.12C24.1435 11.6711 24.2502 12.2133 24.2502 12.7467C24.2502 13.5467 24.0546 14.2933 23.6635 14.9867C23.2724 15.68 22.6502 16.2044 21.7968 16.56C22.419 16.7733 22.9435 17.0489 23.3702 17.3867C23.7968 17.7244 24.1435 18.0978 24.4102 18.5067C24.6768 18.9156 24.8724 19.3511 24.9968 19.8133C25.1213 20.2578 25.1835 20.7111 25.1835 21.1733C25.1835 21.8667 25.0413 22.5422 24.7568 23.2C24.4902 23.8578 24.0902 24.4444 23.5568 24.96C23.0235 25.4756 22.3657 25.8933 21.5835 26.2133C20.8013 26.5156 19.9035 26.6667 18.8902 26.6667H9.82348C9.43237 26.6667 9.23682 26.4711 9.23682 26.08V8.58667C9.23682 8.42667 9.28126 8.29333 9.37015 8.18667C9.47682 8.06222 9.62793 8 9.82348 8H18.1168ZM20.1168 13.3067C20.1168 12.6844 19.9035 12.1689 19.4768 11.76C19.0502 11.3333 18.4102 11.12 17.5568 11.12H13.2368V15.4933H17.5568C18.4102 15.4933 19.0502 15.2889 19.4768 14.88C19.9035 14.4533 20.1168 13.9289 20.1168 13.3067ZM13.2368 18.4533V23.5467H18.1968C18.9968 23.5467 19.6635 23.3156 20.1968 22.8533C20.7479 22.3733 21.0235 21.7511 21.0235 20.9867C21.0235 20.24 20.7568 19.6356 20.2235 19.1733C19.6901 18.6933 19.0146 18.4533 18.1968 18.4533H13.2368Z" fill="white"/>
</svg>
