<svg width="38" height="42" viewBox="0 0 38 42" fill="none" xmlns="http://www.w3.org/2000/svg">
<path d="M2.54554 9.74136L0.0271889 32.5436C-0.264566 35.183 1.82896 37.4886 4.51674 37.4886H26.3289C29.0167 37.4886 31.1094 35.1838 30.8185 32.5436L28.3001 9.74054C28.1976 8.81473 27.4067 8.11426 26.4645 8.11426H4.38119C3.43898 8.11507 2.64802 8.81555 2.54554 9.74136Z" fill="#ED5176"/>
<path d="M30.8184 32.5436L28.3001 9.74054C28.1976 8.81473 27.4066 8.11426 26.4644 8.11426H13.7454C14.6876 8.11426 15.4786 8.81473 15.5811 9.74054L18.0994 32.5436C18.3912 35.183 16.2985 37.4886 13.6099 37.4886H26.3289C29.0167 37.4886 31.1094 35.1838 30.8184 32.5436Z" fill="#BA365F"/>
<path d="M28.7054 33.0664C28.6881 35.4805 26.6987 37.4889 24.1895 37.4889H26.3293H26.3317C26.4119 37.4889 26.4921 37.4864 26.5714 37.4823C26.5987 37.4807 26.6251 37.4783 26.6524 37.4766C26.7053 37.4725 26.7582 37.4693 26.8103 37.4636C26.8425 37.4603 26.8739 37.4554 26.9053 37.4513C26.9524 37.4456 26.9987 37.4399 27.045 37.4325C27.0789 37.4276 27.1111 37.4211 27.145 37.4154C27.1888 37.4072 27.2326 37.3999 27.2756 37.3909C27.3095 37.3836 27.3434 37.3762 27.3773 37.368C27.4194 37.3583 27.4607 37.3485 27.5021 37.337C27.536 37.328 27.5698 37.3182 27.6029 37.3085C27.6434 37.297 27.6831 37.2848 27.7227 37.2725C27.7566 37.2619 27.7905 37.2505 27.8236 37.2391C27.8616 37.226 27.9004 37.2121 27.9385 37.1974C27.9723 37.1844 28.0054 37.1713 28.0385 37.1582C28.0757 37.1435 28.112 37.128 28.1492 37.1117C28.1823 37.097 28.2153 37.0823 28.2484 37.0676C28.2839 37.0513 28.3195 37.0341 28.355 37.0162C28.3872 36.9998 28.4203 36.9835 28.4525 36.9664C28.4864 36.9484 28.5203 36.9296 28.5534 36.9109C28.5856 36.8929 28.6178 36.8749 28.6492 36.8562C28.6815 36.8366 28.7137 36.817 28.7451 36.7966C28.7765 36.777 28.8088 36.7574 28.8402 36.7362C28.8699 36.7166 28.8997 36.6953 28.9294 36.6749C28.9617 36.6529 28.9931 36.6308 29.0245 36.608C29.0518 36.5876 29.0774 36.5672 29.1038 36.5467C29.1361 36.5223 29.1691 36.4969 29.2005 36.4716C29.2179 36.4569 29.2344 36.4422 29.2518 36.4275C29.3385 36.3549 29.4229 36.2798 29.503 36.2006C29.5088 36.1949 29.5162 36.1892 29.522 36.1826C29.5576 36.1475 29.5915 36.1108 29.6262 36.0749C29.6427 36.0577 29.6592 36.0414 29.6749 36.0242C29.7072 35.9891 29.7386 35.9532 29.7692 35.9173C29.7857 35.8977 29.803 35.8781 29.8196 35.8585C29.8493 35.8218 29.8783 35.785 29.9072 35.7483C29.9237 35.7279 29.9394 35.7067 29.9559 35.6863C29.984 35.6487 30.0113 35.6103 30.0386 35.572C30.0535 35.5499 30.0692 35.5287 30.0841 35.5066C30.1105 35.4675 30.1361 35.4283 30.1609 35.3883C30.175 35.3662 30.189 35.3442 30.2022 35.3221C30.227 35.2813 30.251 35.2405 30.275 35.1989C30.2874 35.1768 30.2998 35.1548 30.3122 35.1319C30.3353 35.0895 30.3576 35.0462 30.3799 35.0029C30.3907 34.9809 30.4014 34.9588 30.4122 34.9368C30.4337 34.8919 30.4543 34.847 30.4742 34.8021C30.4832 34.7809 30.4923 34.7596 30.5014 34.7376C30.5213 34.6911 30.5403 34.6437 30.5585 34.5955C30.5659 34.5759 30.5733 34.5555 30.5808 34.5359C30.599 34.4861 30.6171 34.4355 30.6328 34.3849C30.6386 34.3678 30.6436 34.3498 30.6494 34.3327C30.6659 34.2788 30.6824 34.2249 30.6973 34.1702C30.7006 34.1579 30.7031 34.1457 30.7064 34.1326C30.7221 34.0722 30.737 34.0118 30.7494 33.9514C30.7494 33.9514 30.7494 33.9514 30.7494 33.9506C30.8097 33.6648 30.8428 33.3693 30.8453 33.068H28.7054V33.0664Z" fill="#ED5176"/>
<path d="M37.9981 29.329L37.7047 22.1838C37.6633 21.1722 36.8426 20.3624 35.8186 20.3207L28.5851 20.0309C28.0363 20.0089 27.5032 20.2146 27.1147 20.5983L16.5892 30.9977C15.7528 31.8239 15.7528 33.1644 16.5892 33.9906L23.8674 41.1799C24.7038 42.0061 26.0609 42.0061 26.8973 41.1799L37.4245 30.7822C37.8121 30.3976 38.0204 29.871 37.9981 29.329ZM32.7581 25.2086C32.2316 24.6885 32.2316 23.846 32.7581 23.3267C33.2837 22.8075 34.1367 22.8075 34.6631 23.3267C35.1896 23.8468 35.1896 24.6893 34.6631 25.2086C34.1367 25.7278 33.2837 25.7286 32.7581 25.2086Z" fill="#FFCD34"/>
<path d="M21.4624 11.424C21.1252 11.424 20.8516 11.1537 20.8516 10.8206V6.56962C20.8516 3.6126 18.4159 1.20746 15.4223 1.20746C12.4287 1.20746 9.99305 3.6126 9.99305 6.56962V10.8206C9.99305 11.1537 9.71948 11.424 9.38227 11.424C9.04506 11.424 8.77148 11.1537 8.77148 10.8206V6.56962C8.77148 2.94723 11.7552 0 15.4223 0C19.0895 0 22.0732 2.94723 22.0732 6.56962V10.8206C22.0732 11.1537 21.7996 11.424 21.4624 11.424Z" fill="#252D4C"/>
<path d="M25.0287 30.0329C23.8336 30.0329 22.8608 29.072 22.8608 27.8914C22.8608 26.7109 23.8336 25.75 25.0287 25.75C26.2239 25.75 27.1967 26.7109 27.1967 27.8914C27.1967 29.072 26.2239 30.0329 25.0287 30.0329ZM25.0287 26.9566C24.5072 26.9566 24.0824 27.3755 24.0824 27.8914C24.0824 28.4074 24.5072 28.8262 25.0287 28.8262C25.5503 28.8262 25.9751 28.4066 25.9751 27.8914C25.9751 27.3763 25.5503 26.9566 25.0287 26.9566Z" fill="#252D4C"/>
<path d="M28.933 36.0807C27.7379 36.0807 26.7651 35.1198 26.7651 33.9393C26.7651 32.7588 27.7379 31.7979 28.933 31.7979C30.1282 31.7979 31.101 32.7588 31.101 33.9393C31.1018 35.1198 30.129 36.0807 28.933 36.0807ZM28.933 33.0045C28.4115 33.0045 27.9867 33.4241 27.9867 33.9393C27.9867 34.4544 28.4115 34.8741 28.933 34.8741C29.4546 34.8741 29.8794 34.4544 29.8794 33.9393C29.8794 33.4233 29.4554 33.0045 28.933 33.0045Z" fill="#252D4C"/>
<path d="M23.7716 34.6891C23.6153 34.6891 23.4583 34.6303 23.3393 34.5119C23.1004 34.2768 23.1004 33.8939 23.3393 33.6588L29.7579 27.3186C29.9968 27.0826 30.3836 27.0826 30.6216 27.3186C30.8596 27.5545 30.8604 27.9366 30.6216 28.1717L24.203 34.5119C24.0848 34.6303 23.9278 34.6891 23.7716 34.6891Z" fill="#252D4C"/>
</svg>
