<svg width="38" height="34" viewBox="0 0 38 34" fill="none" xmlns="http://www.w3.org/2000/svg">
<path d="M17.8867 4.41406V11.0404H2.22656C1.00195 11.0404 0 7.83769 0 6.62285C0 5.40802 1.00195 4.41406 2.22656 4.41406H17.8867Z" fill="#285059"/>
<path d="M34.4536 10.7118L32.5477 5.71922L24.1521 1.83984L17.8865 4.10238L1.0871 10.1427C0.577961 10.326 0.275891 10.8451 0.371633 11.373C0.465149 11.9002 0.928274 12.2845 1.46784 12.2845H1.47007L17.8873 12.2381L33.4101 12.1939C33.773 12.1932 34.1122 12.0172 34.3208 11.7212C34.5271 11.4275 34.5776 11.0498 34.4536 10.7118Z" fill="#5CE6B8"/>
<path d="M34.321 11.722C34.5273 11.4275 34.5778 11.0498 34.4538 10.7126L32.5479 5.71996L24.1523 1.83984L17.8867 4.10238V12.2381L33.4096 12.1939C33.7732 12.1932 34.1124 12.0172 34.321 11.722Z" fill="#3DCCB4"/>
<path d="M35.7734 9.93526V32.0232C35.7734 32.6417 35.2836 33.1276 34.6602 33.1276H3.33984C1.4918 33.1276 0 31.6477 0 29.8144V6.62207C0 7.83691 1.00195 8.83086 2.22656 8.83086H34.6602C35.2836 8.83086 35.7734 9.3168 35.7734 9.93526Z" fill="#3F6A73"/>
<path d="M35.7734 9.93545V32.0234C35.7734 32.6418 35.2836 33.1278 34.6602 33.1278H17.8867V8.83105H34.6602C35.2836 8.83105 35.7734 9.31699 35.7734 9.93545Z" fill="#285059"/>
<path d="M30.1133 0.104481C29.8484 -0.020684 29.5419 -0.0339368 29.2635 0.0676677L24.1528 1.83986C24.4556 3.69524 25.5927 5.12359 26.959 5.87017C28.649 6.79123 30.7449 6.79933 32.5485 5.71997L30.6893 0.72736C30.5891 0.452734 30.3805 0.228173 30.1133 0.104481Z" fill="#5CE6B8"/>
<path d="M12.3203 19.8754C11.748 19.8754 11.207 19.2672 11.207 18.623C11.207 18.1444 11.6063 17.6349 12.3203 17.5407C12.6832 17.4928 13.2064 17.5525 13.7727 18.0958C14.2143 18.5229 14.9187 18.5096 15.3469 18.0723C15.7729 17.6342 15.7625 16.9348 15.3209 16.5107C14.7635 15.9739 14.1104 15.6316 13.4335 15.4556V14.3534C13.4335 13.7431 12.9355 13.249 12.3203 13.249C11.705 13.249 11.207 13.7431 11.207 14.3534V15.5646C9.75229 16.1124 8.98041 17.3647 8.98041 18.623C8.98041 20.4983 10.5093 22.0842 12.3203 22.0842C12.8576 22.0842 13.4335 22.3838 13.4335 23.0406C13.4335 23.6215 12.9875 24.1678 12.3203 24.1391C11.8727 24.12 11.3933 23.838 10.9457 23.3101C10.5501 22.8433 9.84803 22.7829 9.37822 23.1753C8.90619 23.5678 8.84533 24.265 9.24092 24.7318C9.82428 25.4209 10.5019 25.8767 11.2062 26.1285V27.6062C11.2062 28.2165 11.7042 28.7106 12.3195 28.7106C12.9348 28.7106 13.4328 28.2165 13.4328 27.6062V26.169C13.4491 26.1631 13.4662 26.166 13.4825 26.1601C14.7851 25.6897 15.6594 24.4366 15.6594 23.0413C15.6601 21.236 14.2247 19.8754 12.3203 19.8754Z" fill="#5CE6B8"/>
<path d="M34.6602 26.502H27.9062C24.8358 26.502 22.3398 24.0244 22.3398 20.98C22.3398 17.9355 24.8358 15.458 27.9062 15.458H34.6602C36.5015 15.458 38 16.9445 38 18.7712V23.1888C38 25.0155 36.5015 26.502 34.6602 26.502Z" fill="#3F6A73"/>
<path d="M27.9062 22.0838C28.5211 22.0838 29.0195 21.5893 29.0195 20.9794C29.0195 20.3695 28.5211 19.875 27.9062 19.875C27.2914 19.875 26.793 20.3695 26.793 20.9794C26.793 21.5893 27.2914 22.0838 27.9062 22.0838Z" fill="#FFBB33"/>
</svg>
