<svg width="390" height="166" viewBox="0 0 390 166" fill="none" xmlns="http://www.w3.org/2000/svg">
<path d="M377.048 164.857C377.048 164.857 409.731 97.8609 371.262 65.888C349.798 48.0473 320.49 79.7239 298.724 31.8393C286.057 3.9717 241.732 -4.48601 219.568 33.5602C197.403 71.6065 178.348 71.4131 163.054 64.3752C145.516 56.3042 137.809 32.0131 110.357 37.1489C78.6275 43.0852 82.8749 79.0801 59.493 72.8133C14.4026 60.7228 -19.003 129.775 12.1655 165.332L377.048 164.857Z" fill="#E9F3FE"/>
<path d="M353.256 127.211C353.256 127.211 347.034 131.744 345.82 131.47C344.607 131.194 350.368 126.575 350.368 126.575C348.201 125.554 341.461 126.194 341.461 126.194C341.461 126.194 339.216 133.286 338.109 132.727C337.002 132.168 340.424 126.546 340.424 126.546C338.009 126.403 335.048 128.16 335.048 128.16C330.994 131.297 335.314 136.236 335.314 136.236C335.314 136.236 334.481 138.677 331.922 140.9C331.922 140.9 328.266 143.549 328.012 148.283L328.675 148.342C328.675 148.342 329.727 143.933 331.64 141.847C331.713 141.772 331.822 141.662 331.955 141.531C332.266 141.249 332.484 141.036 332.632 140.879C333.583 139.983 334.899 138.842 335.532 138.731C335.532 138.731 335.501 138.617 335.505 138.418C335.513 138.518 335.523 138.621 335.532 138.731C335.749 141.226 340.691 143.407 343.732 143.855C346.773 144.303 345.833 143.08 344.784 141.264C343.736 139.448 340.421 138.636 339.665 137.799C338.909 136.963 340.473 136.96 342.305 137.78C344.136 138.6 344.387 140.786 347.326 142.165C350.264 143.544 354.687 138.766 354.687 138.766C352.344 138.649 348.999 136.157 349.121 135.395C349.242 134.632 354.798 136.71 355.748 136.809C356.698 136.91 358.859 135.752 359.193 132.003C359.528 128.256 353.256 127.211 353.256 127.211Z" fill="#3BBD96"/>
<path d="M320.208 130.025C320.208 130.025 327.082 126.254 323.874 121.136C323.874 121.136 321.308 117.994 318.559 117.186C318.559 117.186 320.025 124.818 318.559 124.997C317.094 125.176 317.552 116.377 317.552 116.377C317.552 116.377 310.313 112.966 307.471 113.234C307.471 113.234 311.962 120.687 310.496 120.506C309.03 120.327 303.99 112.785 303.99 112.785C303.99 112.785 296.567 111.438 295.376 115.748C294.184 120.058 296.109 122.213 297.209 122.481C298.309 122.75 305.364 122.661 305.181 123.559C304.998 124.457 300.232 125.894 297.575 125.085C297.575 125.085 300.506 132.178 304.355 131.819C308.204 131.46 309.396 129.126 311.777 128.946C314.161 128.766 315.901 129.395 314.709 130.023C313.518 130.652 309.486 130.229 307.561 131.833C305.637 133.436 304.08 134.423 307.653 135.141C311.227 135.859 317.641 135.41 318.924 132.717C320.208 130.025 320.208 130.025 320.208 130.025Z" fill="#9FD2B0"/>
<path d="M322.042 136.58C320.118 133.079 320.209 130.026 320.209 130.026C318.01 123.202 298.766 117.098 298.766 117.098C323.234 126.794 318.926 132.719 318.926 132.719C319.585 133.096 320.573 134.894 321.26 136.272C321.358 136.506 321.512 136.831 321.742 137.273C321.835 137.472 321.91 137.635 321.961 137.749C323.221 140.836 322.554 146.171 322.554 146.171L323.317 146.371C325.009 140.995 322.042 136.58 322.042 136.58Z" fill="#69B49E"/>
<path d="M331.143 124.825C331.143 124.825 322.083 119.854 326.312 113.108C326.312 113.108 329.694 108.965 333.318 107.9C333.318 107.9 331.385 117.961 333.318 118.197C335.25 118.434 334.647 106.836 334.647 106.836C334.647 106.836 344.19 102.339 347.934 102.693C347.934 102.693 342.015 112.517 343.947 112.28C345.88 112.043 352.524 102.102 352.524 102.102C352.524 102.102 362.309 100.328 363.878 106.008C365.449 111.689 362.912 114.529 361.462 114.885C360.013 115.239 350.711 115.122 350.953 116.305C351.195 117.489 357.476 119.382 360.979 118.318C360.979 118.318 357.114 127.668 352.041 127.194C346.968 126.721 345.397 123.644 342.256 123.407C339.116 123.17 336.82 123.998 338.391 124.827C339.96 125.656 345.277 125.099 347.812 127.212C350.35 129.324 352.402 130.627 347.691 131.574C342.979 132.52 334.524 131.928 332.833 128.378C331.143 124.825 331.143 124.825 331.143 124.825Z" fill="#9FD2B0"/>
<path d="M359.41 107.781C359.41 107.781 334.043 115.829 331.144 124.824C331.144 124.824 331.265 128.848 328.728 133.464C328.728 133.464 324.816 139.285 327.047 146.37L328.052 146.105C328.052 146.105 327.172 139.075 328.833 135.005C328.901 134.855 329 134.64 329.123 134.378C329.426 133.796 329.63 133.368 329.759 133.059C330.663 131.242 331.966 128.874 332.835 128.376C332.835 128.375 327.157 120.564 359.41 107.781Z" fill="#69B49E"/>
<path d="M313.09 144.348C313.09 153.95 321.035 161.734 330.836 161.734C340.637 161.734 348.582 153.95 348.582 144.348H313.09Z" fill="#F1A34F"/>
<path d="M346.638 160.664H315.033C313.824 160.664 312.844 161.624 312.844 162.809H348.827C348.827 161.624 347.847 160.664 346.638 160.664Z" fill="#F1A34F"/>
<path d="M348.715 144.881H312.779C312.629 144.881 312.508 144.762 312.508 144.614C312.508 144.467 312.629 144.348 312.779 144.348H348.715C348.865 144.348 348.986 144.467 348.986 144.614C348.986 144.761 348.865 144.881 348.715 144.881Z" fill="#D86713"/>
<path d="M186.313 13.3242H258.081C260.33 13.3242 262.171 15.1725 262.171 17.4307V161.501C262.171 163.759 260.33 165.608 258.081 165.608H186.313C184.064 165.608 182.223 163.759 182.223 161.501V17.4307C182.221 15.1725 184.062 13.3242 186.313 13.3242Z" fill="#6E84A3"/>
<path d="M194.024 13.3242H267.5C269.803 13.3242 271.688 15.1725 271.688 17.4307V161.501C271.688 163.759 269.803 165.608 267.5 165.608H194.024C191.721 165.608 189.836 163.759 189.836 161.501V17.4307C189.836 15.1725 191.721 13.3242 194.024 13.3242Z" fill="#95AAC9"/>
<path d="M267.88 25.6992H191.738V148.478H267.88V25.6992Z" fill="white"/>
<path d="M221.084 19.9883H241.393C241.828 19.9883 242.184 20.2025 242.184 20.4642C242.184 20.7259 241.828 20.9401 241.393 20.9401H221.084C220.649 20.9401 220.293 20.7259 220.293 20.4642C220.293 20.2025 220.649 19.9883 221.084 19.9883Z" fill="#D2DDEC"/>
<path d="M216.963 19.9883C217.748 19.9883 218.39 20.2025 218.39 20.4642C218.39 20.7259 217.748 20.9401 216.963 20.9401C216.178 20.9401 215.535 20.7259 215.535 20.4642C215.535 20.2025 216.178 19.9883 216.963 19.9883Z" fill="#D2DDEC"/>
<path d="M234.547 158.78C235.082 156.563 233.681 154.342 231.418 153.819C229.156 153.295 226.888 154.668 226.354 156.885C225.82 159.101 227.221 161.323 229.483 161.846C231.746 162.37 234.013 160.997 234.547 158.78Z" fill="#D2DDEC"/>
<path d="M63.3183 164.812C63.3183 164.812 52.7883 165.186 51.2295 164.812C51.1647 164.527 49.2193 152.494 49.2193 152.494L47.6007 141.368C47.3737 139.814 49.2717 138.786 50.4514 139.851C51.03 140.374 51.5662 141.134 51.9403 142.236C53.2647 146.156 57.1704 152.467 62.9666 154.114C69.0596 155.849 63.3183 164.812 63.3183 164.812Z" fill="#163560"/>
<path d="M118.238 109.035L117.203 109.394C117.203 109.394 114.492 104.9 108.95 106.718C108.95 106.718 106.735 107.625 108.05 108.812C109.361 110 109.037 109.384 110.85 111.092C112.664 112.8 115.138 113.656 116.844 113.079L118.734 112.427L118.238 109.035Z" fill="#E49963"/>
<path d="M164.931 146.663C164.931 146.663 126.296 117.739 115.304 117.423C104.313 117.108 68.6602 164.917 68.6602 164.917H82.0109C82.0109 164.917 105.535 152.65 113.81 140.994C114.643 139.821 116.424 139.875 117.197 141.085C121.475 147.783 132.66 164.211 139.891 164.917C147.655 165.675 164.931 146.663 164.931 146.663Z" fill="#163560"/>
<path d="M161.234 67.9565C161.234 67.9565 161.479 69.8527 161.793 72.1912C162.212 75.231 162.768 79.004 163.135 80.1818L174.76 83.0677L175.613 74.7863C175.613 74.7863 172.702 69.0658 172.72 60.9727L161.234 67.9565Z" fill="#FFB27D"/>
<path d="M171.339 85.1954L154.821 105.02L149.044 111.953C149.044 111.953 138.699 113.851 133.267 114.313C129.346 114.646 116.836 113.082 116.836 113.082L117.195 109.397C117.195 109.397 124.959 106.161 128.648 105.404C132.411 104.632 141.916 102.53 141.916 102.53C145.51 101.25 159.17 83.9492 159.17 83.9492L171.339 85.1954Z" fill="#4BB193"/>
<path d="M182.113 155.989L148.331 153.288C148.331 153.288 148.236 152.626 148.082 151.512C148.032 151.167 148.007 150.808 147.997 150.432C147.92 147.126 149.246 142.669 149.818 138.287C150.194 135.394 150.244 132.535 149.341 130.062C148.301 127.21 147.822 121.793 147.61 116.644C147.344 110.196 147.498 104.17 147.496 104.128C147.156 100.02 148.154 95.4607 149.823 91.1258C153.117 82.5756 159.263 77.7349 162.148 74.8637C162.148 74.8637 165.675 75.7165 174.838 73.0236C175.11 72.943 175.896 74.0744 176.247 74.7317C176.247 74.7317 180.213 79.6482 181.844 91.639C183.301 102.369 182.113 155.989 182.113 155.989Z" fill="#84CFAB"/>
<path d="M173.668 96.5563C173.6 98.0616 160.008 140.456 161.674 143.581C169.735 158.709 149.415 151.894 148.313 147.992C148.69 145.098 150.251 132.531 149.348 130.058C148.308 127.206 147.829 121.789 147.617 116.64C147.956 114.761 148.754 112.823 149.829 110.947C154.88 110.174 174.174 84.8857 173.668 96.5563Z" fill="#4BB193"/>
<path d="M106.101 104.823L110.292 102.003C110.326 101.978 110.364 101.961 110.404 101.947L110.406 101.944L111.197 101.629L115.053 113.556L111.681 116.229L111.075 116.488C111.075 116.488 111.075 116.488 111.072 116.488L111.065 116.491C110.79 116.601 110.444 116.427 110.297 116.078L105.932 105.6C105.807 105.302 105.88 104.974 106.101 104.823Z" fill="#373480"/>
<path d="M115.912 112.853L111.914 116.132C111.632 116.365 111.193 116.193 111.024 115.79L106.659 105.312C106.534 105.012 106.604 104.684 106.829 104.535L111.019 101.715C111.305 101.522 111.712 101.701 111.874 102.084L116.047 112.103C116.164 112.384 116.109 112.692 115.912 112.853Z" fill="#575B9F"/>
<path d="M115.261 111.571L111.325 114.799L107.367 105.295L111.492 102.52L115.261 111.571Z" fill="#E2E7F2"/>
<path d="M113.713 113.753C113.658 113.562 113.735 113.359 113.888 113.298C114.04 113.237 114.204 113.345 114.259 113.535C114.314 113.726 114.237 113.931 114.085 113.99C113.935 114.049 113.768 113.944 113.713 113.753Z" fill="#373480"/>
<path d="M107.965 105.473L111.317 103.156L114.791 111.315L111.377 113.923L107.965 105.473Z" fill="#CED4EA"/>
<path d="M108.84 105.962L111.187 104.34L113.621 110.055L111.229 111.883L108.84 105.962Z" fill="#BCC5DD"/>
<path d="M117.743 114.818L115.618 114.749C115.618 114.749 113.501 110.446 108.653 112.487C108.653 112.487 106.707 113.481 107.78 114.591C108.852 115.7 108.603 115.109 110.079 116.709C111.556 118.31 113.643 119.04 115.135 118.395L116.791 117.667L117.743 114.818Z" fill="#E49963"/>
<path d="M170.526 74.9297C170.526 74.9297 162.233 78.3605 157.926 85.6937C155.056 90.5809 150.112 98.8941 147.134 103.896C145.548 106.56 142.897 108.451 139.824 109.113L129.761 111.283L115.624 114.746C115.624 114.746 115.29 115.332 115.372 116.292C115.487 117.656 116.397 117.93 116.397 117.93C116.397 117.93 129.596 121.043 134.295 121.387C145.87 122.24 151.357 120.754 153.058 120.141C153.437 120.004 153.776 119.806 154.09 119.557C155.864 118.145 162.665 112.561 166.246 107.229C169.731 102.039 179.335 88.5552 179.335 88.5552L170.526 74.9297Z" fill="#84CFAB"/>
<path d="M182.348 143.185C182.348 143.185 185.68 164.918 175.464 164.918C165.248 164.918 63.0366 164.918 63.0366 164.918C63.0366 164.918 59.9315 162.863 59.7145 158.951C59.4825 154.799 60.8219 153.33 60.8219 153.33C60.8219 153.33 101.069 151.957 109.239 149.274C150.197 135.827 182.348 143.185 182.348 143.185Z" fill="#1C468A"/>
<path d="M161.234 67.9565C161.234 67.9565 161.479 69.8527 161.793 72.1912C172.532 69.122 172.72 60.9727 172.72 60.9727L161.234 67.9565Z" fill="#E8945B"/>
<path d="M159.544 68.566C159.544 68.566 172.598 68.9447 172.715 60.9762C172.83 53.0076 174.593 47.6879 166.263 47.1112C157.933 46.5321 156.269 49.5499 155.571 52.2012C154.873 54.8501 156.152 68.2605 159.544 68.566Z" fill="#FFB27D"/>
<path d="M172.946 64.0965C172.946 64.0965 171.567 63.8717 171.789 62.0097C172.011 60.1477 172.008 57.7138 170.465 58.1683C168.921 58.6229 168.844 59.8349 168.208 59.1262C167.574 58.4176 167.562 55.4364 162.965 55.2287C158.368 55.021 156.5 56.5898 154.363 55.6685C152.226 54.7473 152.113 51.578 152.113 51.578C152.113 51.578 152.722 52.7093 153.64 53.071C153.64 53.071 150.073 48.2913 154.203 45.0169C158.331 41.74 162.541 43.8855 164.93 44.0272C170.195 44.34 173.595 44.6479 175.316 48.0372C177.034 51.424 176.323 60.8343 172.946 64.0965Z" fill="#3B516C"/>
<path d="M287.347 161.413H220.042C217.553 161.413 215.535 159.436 215.535 156.998V116.197C215.535 113.758 217.553 111.781 220.042 111.781H287.347C289.836 111.781 291.854 113.758 291.854 116.197V156.998C291.854 159.436 289.836 161.413 287.347 161.413Z" fill="#95AAC9"/>
<path d="M280.26 97.3594H218.781V128.119H280.26V97.3594Z" fill="#69B49E"/>
<path d="M279.932 96.9023H218.453V127.662H279.932V96.9023Z" fill="#69B49E"/>
<path d="M279.498 96.5039H218.02V127.264H279.498V96.5039Z" fill="#69B49E"/>
<path d="M279.076 96.1289H217.598V126.889H279.076V96.1289Z" fill="#9FD2B0"/>
<path d="M220.004 98.4375V124.584H276.674V98.4375H220.004ZM274.527 122.558H222.151V100.463H274.527V122.558Z" fill="#69B49E"/>
<path d="M220.004 98.4375V104.383C220.44 104.505 220.899 104.576 221.376 104.576C224.107 104.576 226.321 102.406 226.321 99.7302C226.321 99.2805 226.254 98.8505 226.137 98.4375H220.004Z" fill="#69B49E"/>
<path d="M276.671 98.4102H270.603C270.479 98.8378 270.406 99.2874 270.406 99.7541C270.406 102.43 272.621 104.6 275.352 104.6C275.808 104.6 276.25 104.534 276.671 104.419V98.4102Z" fill="#69B49E"/>
<path d="M276.671 124.584H270.603C270.479 124.157 270.406 123.707 270.406 123.24C270.406 120.564 272.621 118.395 275.352 118.395C275.808 118.395 276.25 118.461 276.671 118.575V124.584Z" fill="#69B49E"/>
<path d="M220.004 124.556V118.611C220.44 118.489 220.899 118.418 221.376 118.418C224.107 118.418 226.321 120.588 226.321 123.264C226.321 123.711 226.254 124.143 226.137 124.556H220.004Z" fill="#69B49E"/>
<path d="M254.991 111.509C254.991 115.109 252.013 118.026 248.339 118.026C244.665 118.026 241.688 115.109 241.688 111.509C241.688 107.91 244.665 104.992 248.339 104.992C252.013 104.992 254.991 107.91 254.991 111.509Z" fill="#69B49E"/>
<path d="M273.934 127.138C280.827 126.076 285.537 119.74 284.454 112.986C283.37 106.232 276.903 101.617 270.009 102.679C263.116 103.741 258.406 110.077 259.49 116.831C260.573 123.585 267.04 128.2 273.934 127.138Z" fill="#E2810E"/>
<path d="M269.298 102.761C262.375 103.609 257.464 109.796 258.329 116.579C259.195 123.363 265.51 128.174 272.433 127.326C279.357 126.478 284.268 120.291 283.402 113.508C282.537 106.724 276.222 101.913 269.298 102.761Z" fill="#FFB93E"/>
<path d="M272.318 126.379C266.021 127.151 260.254 122.758 259.469 116.585C258.681 110.415 263.165 104.768 269.465 103.998C275.763 103.226 281.526 107.62 282.312 113.79C283.098 119.96 278.616 125.607 272.318 126.379ZM269.547 104.665C263.624 105.391 259.406 110.701 260.147 116.502C260.888 122.306 266.31 126.435 272.231 125.712C278.154 124.986 282.369 119.676 281.629 113.873C280.89 108.069 275.471 103.94 269.547 104.665Z" fill="#FFA412"/>
<path d="M272.87 118.246C272.868 118.001 272.833 117.786 272.761 117.598C272.688 117.412 272.573 117.244 272.411 117.092C272.249 116.941 272.042 116.804 271.788 116.677C271.533 116.55 271.224 116.428 270.858 116.305C270.229 116.093 269.655 115.87 269.142 115.638C268.628 115.406 268.186 115.135 267.82 114.829C267.453 114.522 267.166 114.162 266.962 113.749C266.757 113.336 266.653 112.845 266.65 112.273C266.648 111.777 266.732 111.325 266.909 110.915C267.087 110.504 267.341 110.147 267.673 109.842C268.004 109.537 268.401 109.287 268.865 109.097C269.329 108.904 269.847 108.779 270.424 108.725L270.411 106.854L271.95 106.844L271.962 108.742C272.514 108.808 273.015 108.95 273.464 109.163C273.913 109.375 274.297 109.654 274.614 109.996C274.93 110.338 275.175 110.744 275.347 111.213C275.519 111.682 275.609 112.207 275.611 112.789L272.833 112.806C272.828 112.107 272.666 111.584 272.346 111.24C272.027 110.895 271.601 110.724 271.07 110.727C270.78 110.729 270.533 110.768 270.326 110.849C270.119 110.929 269.947 111.037 269.815 111.176C269.68 111.313 269.583 111.477 269.521 111.663C269.458 111.851 269.426 112.051 269.428 112.266C269.431 112.481 269.463 112.677 269.528 112.853C269.593 113.026 269.705 113.187 269.862 113.336C270.02 113.483 270.229 113.622 270.491 113.752C270.75 113.881 271.075 114.016 271.459 114.153C272.082 114.377 272.648 114.607 273.16 114.842C273.671 115.079 274.11 115.35 274.476 115.66C274.843 115.971 275.13 116.332 275.334 116.745C275.539 117.158 275.644 117.647 275.646 118.214C275.649 118.727 275.561 119.189 275.382 119.597C275.202 120.007 274.945 120.362 274.614 120.66C274.282 120.96 273.883 121.2 273.411 121.386C272.943 121.569 272.419 121.689 271.843 121.745L271.853 123.485L270.324 123.494L270.314 121.762C269.78 121.713 269.266 121.603 268.77 121.43C268.271 121.259 267.83 121.009 267.443 120.682C267.057 120.354 266.747 119.941 266.513 119.44C266.278 118.94 266.159 118.341 266.156 117.64L268.935 117.622C268.937 118.035 268.999 118.382 269.119 118.659C269.239 118.935 269.399 119.155 269.598 119.321C269.798 119.487 270.025 119.602 270.279 119.668C270.533 119.734 270.79 119.765 271.052 119.763C271.354 119.761 271.618 119.721 271.845 119.646C272.072 119.568 272.262 119.462 272.416 119.328C272.568 119.194 272.683 119.032 272.761 118.849C272.835 118.661 272.873 118.461 272.87 118.246Z" fill="#FFA412"/>
<path d="M282.359 165.298H220.042C217.553 165.298 215.535 163.321 215.535 160.883V120.08C215.535 117.641 217.553 115.664 220.042 115.664H282.359C284.848 115.664 286.866 117.641 286.866 120.08V160.88C286.866 163.321 284.848 165.298 282.359 165.298Z" fill="#8492A6"/>
<path d="M288.986 147.261H266.851C263.027 147.261 259.93 144.226 259.93 140.48C259.93 136.734 263.027 133.699 266.851 133.699H288.986V147.261Z" fill="#95AAC9"/>
<path d="M266.854 145.794C269.85 145.794 272.279 143.414 272.279 140.479C272.279 137.544 269.85 135.164 266.854 135.164C263.858 135.164 261.43 137.544 261.43 140.479C261.43 143.414 263.858 145.794 266.854 145.794Z" fill="#E9F3FE"/>
<path d="M222.976 93.6937C222.631 93.6937 222.286 93.5616 222.019 93.2992C221.474 92.7631 221.461 91.8797 221.991 91.3266L223.7 89.5409C224.228 88.9878 225.098 88.9746 225.643 89.5107C226.188 90.0468 226.201 90.9302 225.673 91.4833L223.964 93.269C223.694 93.5521 223.335 93.6937 222.976 93.6937Z" fill="#3BBD96"/>
<path d="M241.529 25.1526C241.185 25.1526 240.84 25.0204 240.574 24.7581C240.029 24.222 240.016 23.3386 240.544 22.7855L242.253 20.9979C242.781 20.4448 243.651 20.4316 244.196 20.9677C244.741 21.5038 244.754 22.3872 244.226 22.9403L242.517 24.7279C242.245 25.011 241.888 25.1526 241.529 25.1526Z" fill="#3BBD96"/>
<path d="M280.965 18.9492C280.619 18.9492 280.275 18.819 280.007 18.5547C279.462 18.0186 279.449 17.1352 279.977 16.5821L281.686 14.7945C282.215 14.2415 283.085 14.2283 283.63 14.7662C284.175 15.3023 284.188 16.1857 283.659 16.7388L281.95 18.5264C281.683 18.8076 281.324 18.9492 280.965 18.9492Z" fill="#6E84A3"/>
<path d="M280.965 87.5432C280.619 87.5432 280.275 87.4111 280.007 87.1487C279.462 86.6126 279.449 85.7292 279.977 85.1761L281.686 83.3885C282.215 82.8355 283.085 82.8223 283.63 83.3583C284.175 83.8944 284.188 84.7778 283.659 85.3309L281.95 87.1185C281.683 87.4017 281.324 87.5432 280.965 87.5432Z" fill="#2E9BFF"/>
<path d="M215.764 21.3125C215.42 21.3125 215.074 21.1822 214.808 20.918C214.263 20.3819 214.25 19.4985 214.778 18.9454L216.487 17.1578C217.015 16.6047 217.886 16.5915 218.43 17.1295C218.975 17.6656 218.988 18.549 218.458 19.1021L216.749 20.8897C216.482 21.1709 216.123 21.3125 215.764 21.3125Z" fill="#2E9BFF"/>
<path d="M206.315 52.6331C205.971 52.6331 205.625 52.5028 205.359 52.2386C204.814 51.7025 204.801 50.8191 205.329 50.266L207.038 48.4784C207.566 47.9253 208.436 47.9121 208.981 48.4482C209.526 48.9843 209.539 49.8677 209.011 50.4208L207.302 52.2084C207.032 52.4915 206.674 52.6331 206.315 52.6331Z" fill="#2DC471"/>
<path d="M244.251 52.5685L239.788 55.0224C238.631 55.6585 237.277 54.6316 237.499 53.2839L238.35 48.0891C238.438 47.553 238.269 47.0075 237.897 46.63L234.287 42.9491C233.35 41.9959 233.867 40.3329 235.161 40.1347L240.149 39.3758C240.664 39.2984 241.106 38.9606 241.337 38.4735L243.568 33.7469C244.147 32.5219 245.819 32.5219 246.397 33.7469L248.628 38.4735C248.859 38.9606 249.301 39.2984 249.817 39.3758L254.806 40.1347C256.1 40.331 256.615 41.994 255.68 42.9491L252.07 46.63C251.698 47.0094 251.529 47.5549 251.617 48.0891L252.468 53.2839C252.69 54.6316 251.338 55.6604 250.181 55.0224L245.718 52.5685C245.259 52.3155 244.71 52.3155 244.251 52.5685Z" fill="#FFD02F"/>
<path d="M244.972 96.6442C244.213 96.6442 243.598 96.0194 243.598 95.2492V73.4301C243.598 72.66 244.213 72.0352 244.972 72.0352C245.731 72.0352 246.346 72.66 246.346 73.4301V95.2492C246.346 96.0194 245.731 96.6442 244.972 96.6442Z" fill="#6E84A3"/>
<path d="M244.985 67.4696H244.964C244.205 67.4696 243.59 66.8448 243.59 66.0746C243.59 65.3045 244.205 64.6797 244.964 64.6797H244.985C245.743 64.6797 246.359 65.3045 246.359 66.0746C246.359 66.8448 245.743 67.4696 244.985 67.4696Z" fill="#6E84A3"/>
<path d="M244.986 62.6688C244.985 62.6688 244.983 62.6688 244.981 62.6688H244.958C244.2 62.665 243.586 62.0383 243.59 61.2682C243.594 60.4999 244.207 59.8789 244.964 59.8789H244.971H244.992C245.751 59.8827 246.364 60.5094 246.361 61.2795C246.357 62.0478 245.741 62.6688 244.986 62.6688Z" fill="#2E9BFF"/>
<path d="M220.241 43.5858C219.882 43.5858 219.523 43.4442 219.256 43.163L204.502 27.7335C203.974 27.1804 203.985 26.297 204.53 25.7609C205.075 25.2248 205.945 25.238 206.473 25.7892L221.227 41.2187C221.755 41.7718 221.742 42.6552 221.197 43.1913C220.933 43.4556 220.587 43.5858 220.241 43.5858Z" fill="#3BBD96"/>
<path d="M225.214 48.7948C224.868 48.7948 224.52 48.6627 224.254 48.3965C223.711 47.8586 223.7 46.9751 224.232 46.424L224.247 46.4089C224.777 45.8577 225.647 45.8463 226.19 46.3862C226.733 46.9242 226.744 47.8076 226.212 48.3588L226.197 48.3739C225.928 48.6551 225.571 48.7948 225.214 48.7948Z" fill="#2E9BFF"/>
<path d="M228.457 52.1864C228.111 52.1864 227.767 52.0543 227.499 51.7919C226.954 51.2558 226.941 50.3724 227.471 49.8193L227.486 49.8024C228.016 49.2493 228.886 49.2361 229.429 49.774C229.974 50.3101 229.987 51.1935 229.459 51.7466L229.444 51.7617C229.175 52.0448 228.816 52.1864 228.457 52.1864Z" fill="#6E84A3"/>
<path d="M269.713 43.0348C269.367 43.0348 269.023 42.9045 268.757 42.6403C268.212 42.1042 268.199 41.2208 268.727 40.6677L283.481 25.2401C284.009 24.687 284.88 24.6738 285.425 25.2099C285.969 25.746 285.982 26.6294 285.454 27.1825L270.7 42.6101C270.431 42.8932 270.072 43.0348 269.713 43.0348Z" fill="#2E9BFF"/>
<path d="M264.737 48.2462C264.381 48.2462 264.026 48.1065 263.757 47.8291L263.742 47.814C263.21 47.2647 263.217 46.3813 263.758 45.8414C264.3 45.3015 265.17 45.3091 265.702 45.8584L265.717 45.8735C266.248 46.4228 266.241 47.3062 265.7 47.846C265.434 48.1122 265.084 48.2462 264.737 48.2462Z" fill="#3BBD96"/>
<path d="M261.501 51.6402C261.143 51.6402 260.784 51.4986 260.516 51.2173L260.501 51.2022C259.973 50.6492 259.986 49.7657 260.531 49.2297C261.076 48.6936 261.946 48.7068 262.474 49.258L262.489 49.2731C263.017 49.8262 263.004 50.7096 262.459 51.2457C262.191 51.508 261.847 51.6402 261.501 51.6402Z" fill="#2E9BFF"/>
<path d="M259.931 22.0252C259.701 22.0252 259.466 21.9667 259.253 21.8421C258.592 21.4608 258.364 20.6076 258.739 19.9394L269.313 1.12918C269.688 0.460963 270.529 0.226897 271.187 0.610085C271.846 0.993274 272.076 1.84459 271.7 2.51281L261.127 21.323C260.874 21.7723 260.409 22.0252 259.931 22.0252Z" fill="#62D38F"/>
<path d="M256.373 28.377C256.133 28.377 255.889 28.3128 255.668 28.1788L255.649 28.1675C254.998 27.7729 254.786 26.916 255.175 26.2534C255.564 25.5909 256.408 25.3776 257.061 25.7721L257.079 25.7834C257.73 26.1779 257.942 27.0349 257.553 27.6974C257.297 28.1354 256.841 28.377 256.373 28.377Z" fill="#2E9BFF"/>
<path d="M254.045 32.5132C253.803 32.5132 253.558 32.4491 253.336 32.3131L253.318 32.3018C252.667 31.9035 252.459 31.0465 252.849 30.3859C253.242 29.7252 254.086 29.5138 254.737 29.9121L254.755 29.9234C255.406 30.3217 255.614 31.1787 255.222 31.8393C254.963 32.2716 254.51 32.5132 254.045 32.5132Z" fill="#2DC471"/>
<path d="M230.055 22.0263C229.578 22.0263 229.113 21.7733 228.86 21.3222L218.286 2.51198C217.911 1.84187 218.139 0.990548 218.798 0.609247C219.458 0.227946 220.296 0.460124 220.674 1.12834L231.247 19.9386C231.623 20.6087 231.394 21.46 230.736 21.8432C230.52 21.9678 230.288 22.0263 230.055 22.0263Z" fill="#6E84A3"/>
<path d="M233.598 28.3786C233.131 28.3786 232.676 28.1369 232.419 27.7028C232.028 27.0421 232.239 26.1851 232.889 25.7887L232.908 25.7774C233.559 25.381 234.403 25.5943 234.794 26.255C235.186 26.9156 234.974 27.7726 234.323 28.169L234.305 28.1804C234.083 28.3144 233.84 28.3786 233.598 28.3786Z" fill="#3BBD96"/>
<path d="M235.927 32.5119C235.463 32.5119 235.009 32.2722 234.75 31.8399C234.356 31.1811 234.564 30.3223 235.213 29.924L235.232 29.9127C235.883 29.5144 236.727 29.7239 237.121 30.3827C237.514 31.0415 237.307 31.9003 236.658 32.2986L236.64 32.31C236.416 32.4459 236.171 32.5119 235.927 32.5119Z" fill="#2E9BFF"/>
<path d="M278.812 67.4415L275.926 69.6312C275.179 70.1994 274.132 69.6236 274.156 68.6572L274.249 64.9291C274.258 64.544 274.087 64.1816 273.79 63.9551L270.905 61.7617C270.158 61.1916 270.357 59.9741 271.244 59.6985L274.664 58.6395C275.015 58.53 275.294 58.2469 275.408 57.8807L276.512 54.3338C276.798 53.4127 277.97 53.2371 278.493 54.0337L280.512 57.1087C280.72 57.4258 281.064 57.6145 281.431 57.6145L284.997 57.6164C285.923 57.6164 286.446 58.7264 285.882 59.4946L283.714 62.4525C283.491 62.7583 283.424 63.1585 283.538 63.5228L284.638 67.0716C284.923 67.9927 284.075 68.8554 283.205 68.5307L279.843 67.2849C279.495 67.1584 279.112 67.2169 278.812 67.4415Z" fill="#FFD02F"/>
<path d="M252.652 96.6467C251.893 96.6467 251.277 96.0219 251.277 95.2517C251.277 84.4488 255.523 77.1456 259.084 72.9211C262.957 68.3284 266.821 66.3106 266.985 66.2256C267.662 65.8764 268.489 66.152 268.832 66.8391C269.174 67.5262 268.904 68.3643 268.229 68.7135C268.172 68.7437 264.603 70.6314 261.094 74.8276C256.402 80.4376 254.024 87.3086 254.024 95.2517C254.026 96.0219 253.41 96.6467 252.652 96.6467Z" fill="#3BBD96"/>
<path d="M223.151 75.0014L225.34 77.948C225.907 78.7125 227.067 78.4633 227.301 77.527L228.205 73.9198C228.298 73.5498 228.56 73.2497 228.906 73.1175L232.261 71.8509C233.131 71.5225 233.263 70.2936 232.486 69.7708L229.485 67.7567C229.176 67.549 228.984 67.196 228.971 66.8128L228.856 63.0848C228.826 62.1183 227.75 61.6068 227.034 62.2184L224.274 64.5817C223.99 64.8252 223.608 64.9063 223.257 64.8006L219.832 63.7624C218.943 63.4925 218.145 64.4061 218.482 65.3065L219.778 68.7816C219.912 69.1384 219.867 69.5442 219.662 69.8614L217.66 72.9476C217.141 73.748 217.723 74.8239 218.647 74.7673L222.206 74.5521C222.571 74.5314 222.924 74.6994 223.151 75.0014Z" fill="#FFD02F"/>
<path d="M237.315 96.6446C236.556 96.6446 235.941 96.0198 235.941 95.2496C235.941 89.5754 234.699 84.3844 232.25 79.822C231.887 79.1444 232.132 78.2987 232.8 77.9287C233.468 77.5587 234.301 77.8098 234.665 78.4856C237.335 83.4651 238.691 89.1035 238.691 95.2496C238.689 96.0198 238.076 96.6446 237.315 96.6446Z" fill="#2E9BFF"/>
<path d="M254.031 10.5517C254.031 8.4206 252.38 6.69531 250.342 6.69531C248.304 6.69531 246.652 8.42249 246.652 10.5517C246.652 12.681 248.304 14.41 250.342 14.41C252.378 14.41 254.031 12.681 254.031 10.5517Z" fill="#FFD02F"/>
<path d="M273.4 84.3408C273.4 82.2097 271.749 80.4844 269.713 80.4844C267.675 80.4844 266.023 82.2116 266.023 84.3408C266.023 86.4701 267.675 88.1972 269.713 88.1972C271.749 88.1991 273.4 86.4719 273.4 84.3408Z" fill="#6E84A3"/>
<path d="M212.226 85.1055C212.226 83.3972 210.902 82.0117 209.267 82.0117C207.633 82.0117 206.309 83.3972 206.309 85.1055C206.309 86.8138 207.633 88.1994 209.267 88.1994C210.902 88.1994 212.226 86.8138 212.226 85.1055Z" fill="#62D38F"/>
<path d="M220.413 54.4298C220.413 52.7215 219.089 51.3359 217.455 51.3359C215.82 51.3359 214.496 52.7215 214.496 54.4298C214.496 56.1381 215.82 57.5236 217.455 57.5236C219.089 57.5236 220.413 56.1381 220.413 54.4298Z" fill="#6E84A3"/>
<path d="M243.241 3.09382C243.241 1.38552 241.917 0 240.283 0C238.648 0 237.324 1.38552 237.324 3.09382C237.324 4.80213 238.648 6.18764 240.283 6.18764C241.917 6.18764 243.241 4.80213 243.241 3.09382Z" fill="#3BBD96"/>
<path d="M271.941 28.8594C271.941 27.1511 270.617 25.7656 268.982 25.7656C267.347 25.7656 266.023 27.1511 266.023 28.8594C266.023 30.5677 267.347 31.9533 268.982 31.9533C270.617 31.9533 271.941 30.5677 271.941 28.8594Z" fill="#3BBD96"/>
<path d="M230.059 6.18384C229.713 6.18384 229.369 6.0536 229.101 5.78933C228.556 5.25324 228.543 4.36983 229.071 3.81675L230.78 2.02917C231.308 1.47609 232.179 1.46288 232.723 1.99897C233.268 2.53505 233.281 3.41846 232.753 3.97154L231.044 5.75913C230.775 6.04227 230.416 6.18384 230.059 6.18384Z" fill="#3BBD96"/>
</svg>
