<svg id="Layer_1" data-name="Layer 1" xmlns="http://www.w3.org/2000/svg" viewBox="0 0 9.85 12"><path d="M7,1a2.47,2.47,0,0,1,1.37.41,2.45,2.45,0,0,1,.9,1.11,2.38,2.38,0,0,1,.14,1.42,2.46,2.46,0,0,1-.67,1.26,2.42,2.42,0,0,1-1.26.67,2.38,2.38,0,0,1-1.42-.14A2.45,2.45,0,0,1,5,4.82a2.5,2.5,0,0,1-.41-1.37A2.46,2.46,0,0,1,7,1ZM7,0A3.46,3.46,0,0,0,5.08.58,3.5,3.5,0,0,0,3.81,2.13a3.39,3.39,0,0,0-.19,2,3.48,3.48,0,0,0,.94,1.77,3.44,3.44,0,0,0,1.77.94,3.48,3.48,0,0,0,2-.2A3.44,3.44,0,0,0,9.87,5.36,3.44,3.44,0,0,0,9.44,1,3.45,3.45,0,0,0,7,0Z" transform="translate(-2.07)" style="fill:#6e84a3"/><path d="M11.93,12h-1v-.67A2.46,2.46,0,0,0,8.48,8.87h-3a2.46,2.46,0,0,0-2.46,2.46V12h-1v-.67A3.45,3.45,0,0,1,5.52,7.88h3a3.45,3.45,0,0,1,3.45,3.45Z" transform="translate(-2.07)" style="fill:#6e84a3"/></svg>