<svg width="234" height="244" viewBox="0 0 234 244" fill="none" xmlns="http://www.w3.org/2000/svg">
<path d="M164.158 101.267C164.158 101.267 175.76 123.802 162.128 123.517C148.496 123.232 154.588 131.981 146.407 143.586C138.226 155.192 127.712 136.315 120.34 142.002C112.968 147.689 124.291 171.871 87.7268 162.152C51.1623 152.433 34.3207 161.591 33.8068 137.971C33.2928 114.35 16.704 124.852 12.5 114.181C8.2959 103.51 11.1772 85.7008 12.5 84.615C13.8227 83.5292 164.158 101.267 164.158 101.267Z" fill="#A5EAD5" fill-opacity="0.5"/>
<path d="M167.701 41.1868C167.701 41.1868 173.211 26.1814 161.593 20.7168C149.974 15.2522 141.592 27.7478 136.393 15.0208C131.195 2.29385 121.523 -3.60685 112.07 2.30275C102.618 8.21235 95.094 18.8834 80.8979 10.4818C66.7018 2.08025 54.7804 2.25825 47.518 14.2999C40.2557 26.3416 7.76045 14.2999 23.035 48.8408C40.3484 87.8495 115.331 60.6689 115.331 60.6689L167.701 41.1868Z" fill="#A5EAD5" fill-opacity="0.5"/>
<path d="M184.511 51.3215C186.458 56.9107 178.833 62.2774 182.692 66.6117C186.904 71.3109 189.887 83.5217 178.563 87.9716C159.144 95.4743 180.804 97.7617 169.759 112.527C158.714 127.292 152.353 103.217 143.423 114.805C134.492 126.393 147.635 147.005 128.974 142.529C110.312 138.052 101.786 144.994 99.0651 160.427C96.3438 175.859 69.3839 171.178 66.6289 155.567C63.8739 139.957 50.0569 147.833 35.8524 142.529C21.6478 137.224 18.7496 133.833 22.6925 120.385C26.6354 106.938 17.4353 103.6 8.22678 99.7107C-0.98175 95.8214 -2.81839 85.8179 4.54506 78.3508C11.9085 70.8837 0.0713654 63.6213 7.43481 53.3418C14.7983 43.0623 17.9576 33.6105 34.0073 36.1114C50.0569 38.6123 61.8098 20.2694 78.9546 27.2114C96.0995 34.1534 94.3808 19.3616 108.383 22.4232C122.386 25.4848 117.651 37.4286 126.868 36.8768C136.085 36.325 146.338 21.5866 157.113 34.1C166.533 45.0025 177.156 30.2018 184.511 51.3215Z" fill="#9FE3CF"/>
<path opacity="0.32" d="M132.51 243.03C76.99 243.03 31.9825 240.806 31.9825 238.063C31.9825 235.321 76.99 233.097 132.51 233.097C188.029 233.097 233.037 235.321 233.037 238.063C233.037 240.806 188.029 243.03 132.51 243.03Z" fill="#C9C9C9"/>
<path opacity="0.54" d="M199.32 206.273H221.579V210.135H199.32V206.273Z" fill="white"/>
<path d="M77.4945 227.686L67.9911 208.204L72.7428 229.715L62.9951 220.459L70.2069 236.702H82.4568L77.4945 227.686Z" fill="#43CBA2" fill-opacity="0.7"/>
<path d="M76.9998 237H102L97.4961 114H80.0716L76.9998 237Z" fill="#C0A48F"/>
<path d="M94.2601 237.494C94.2601 237.494 90.6289 231.985 96.0378 230.463C101.447 228.941 94.7403 221.563 99.7785 220.548C104.817 219.534 103.991 227.428 103.991 227.428C103.991 227.428 107.47 224.259 109.888 226.921C112.306 229.582 108.928 232.501 108.928 232.501C108.928 232.501 113.781 234.281 110.756 237.494H94.2601Z" fill="#63CCAC"/>
<path d="M97.5128 135.135L131.466 117.531L130.573 114.051L97.159 121.954L97.5128 135.135Z" fill="#C0A48F"/>
<path d="M79.2889 158.551L48.2175 139.371L50.2058 134.797L79.6511 144.569L79.2889 158.551Z" fill="#C0A48F"/>
</svg>
