<svg width="144" height="18" viewBox="0 0 144 18" fill="none" xmlns="http://www.w3.org/2000/svg">
<path d="M6.47531 0.266385C7.31794 0.266385 8.02446 0.374208 8.59485 0.589852C9.16522 0.792816 9.62546 1.0592 9.97547 1.38901C10.3255 1.71881 10.5718 2.08668 10.7144 2.4926C10.87 2.88584 10.9477 3.27273 10.9477 3.65328C10.9477 4.2241 10.8052 4.75687 10.5199 5.25159C10.2347 5.7463 9.78102 6.12051 9.15877 6.37421C9.61246 6.52643 9.99492 6.72304 10.306 6.96406C10.6172 7.20508 10.87 7.47146 11.0644 7.76321C11.2589 8.05497 11.4014 8.36575 11.4922 8.69556C11.583 9.01271 11.6283 9.33618 11.6283 9.66596C11.6283 10.1607 11.5246 10.6427 11.3172 11.1121C11.1227 11.5814 10.8311 12 10.4422 12.3679C10.0533 12.7357 9.57357 13.0338 9.0032 13.2622C8.43281 13.4778 7.77815 13.5856 7.03922 13.5856H0.427798C0.142599 13.5856 0 13.4461 0 13.167V0.68499C0 0.570825 0.0324092 0.475687 0.0972268 0.399578C0.175008 0.310782 0.285199 0.266385 0.427798 0.266385H6.47531ZM7.93371 4.05286C7.93371 3.60888 7.77815 3.24101 7.46702 2.94926C7.15589 2.64482 6.68921 2.4926 6.06695 2.4926H2.9168V5.61311H6.06695C6.68921 5.61311 7.15589 5.46723 7.46702 5.17548C7.77815 4.87104 7.93371 4.49683 7.93371 4.05286ZM2.9168 7.72516V11.3594H6.53364C7.117 11.3594 7.60314 11.1945 7.99205 10.8647C8.39392 10.5222 8.59485 10.0783 8.59485 9.53277C8.59485 9 8.4004 8.56868 8.01149 8.2389C7.62258 7.89641 7.12997 7.72516 6.53364 7.72516H2.9168ZM15.784 9.47569C15.784 10.0846 15.9395 10.5793 16.2507 10.9598C16.5618 11.3404 17.0479 11.5307 17.7091 11.5307C18.3443 11.5307 18.8305 11.3467 19.1675 10.9789C19.5046 10.5983 19.6731 10.1099 19.6731 9.51374V4.69979C19.6731 4.59831 19.7119 4.50951 19.7897 4.4334C19.8805 4.35729 19.9777 4.31924 20.0814 4.31924H22.0454C22.1751 4.31924 22.2787 4.36363 22.3565 4.45243C22.4343 4.52854 22.4732 4.62368 22.4732 4.73784V13.186C22.4732 13.3002 22.4343 13.3953 22.3565 13.4715C22.2787 13.5476 22.1751 13.5856 22.0454 13.5856H20.0814C19.9777 13.5856 19.8805 13.5539 19.7897 13.4905C19.7119 13.4144 19.6731 13.3192 19.6731 13.2051V12.6152C19.3749 12.9704 19.0119 13.2685 18.5841 13.5095C18.1563 13.7378 17.573 13.852 16.834 13.852C16.2378 13.852 15.6997 13.7569 15.2201 13.5666C14.7405 13.3763 14.3321 13.1099 13.995 12.7674C13.671 12.4249 13.4182 12.0127 13.2366 11.5307C13.0682 11.0487 12.9838 10.5159 12.9838 9.93235V4.69979C12.9838 4.59831 13.0293 4.50951 13.12 4.4334C13.2107 4.35729 13.308 4.31924 13.4116 4.31924H15.3562C15.4729 4.31924 15.5701 4.35729 15.6479 4.4334C15.7386 4.50951 15.784 4.59831 15.784 4.69979V9.47569ZM26.5633 18C25.9799 18 25.4354 17.9112 24.9298 17.7336C24.4373 17.5687 24.0225 17.334 23.6853 17.0296C23.465 16.8393 23.452 16.5983 23.6464 16.3066L24.3465 15.3171C24.4632 15.1396 24.5993 15.0507 24.7548 15.0507C24.9234 15.0635 25.0725 15.1141 25.2021 15.203C25.3576 15.3171 25.5326 15.4186 25.7271 15.5074C25.9345 15.5962 26.1484 15.6406 26.3688 15.6406C26.641 15.6406 26.8809 15.5645 27.0883 15.4123C27.2957 15.26 27.4513 15.0444 27.555 14.7653L27.9828 13.5856H26.9911C26.8485 13.5856 26.7318 13.5476 26.641 13.4715C26.5633 13.3953 26.5049 13.3002 26.466 13.186L23.6853 4.96617C23.6335 4.80127 23.6335 4.65539 23.6853 4.52854C23.7372 4.38901 23.8863 4.31924 24.1326 4.31924H26.4077C26.5374 4.31924 26.6346 4.36363 26.6994 4.45243C26.7772 4.54123 26.829 4.64271 26.8549 4.75687L28.7411 11.074L30.4912 4.75687C30.5172 4.64271 30.569 4.54123 30.6468 4.45243C30.7376 4.36363 30.8607 4.31924 31.0162 4.31924H33.2136C33.408 4.31924 33.5312 4.38266 33.583 4.50951C33.6479 4.62368 33.6479 4.7759 33.583 4.96617L30.3551 15.1459C30.07 16.0211 29.6097 16.7124 28.9745 17.2199C28.3522 17.7399 27.5485 18 26.5633 18ZM43.5851 8.4482C43.5851 8.56237 43.5462 8.66382 43.4684 8.75264C43.3907 8.84147 43.287 8.88584 43.1573 8.88584H38.0043V13.148C38.0043 13.2749 37.9589 13.3826 37.8682 13.4715C37.7774 13.5476 37.6737 13.5856 37.557 13.5856H35.5153C35.3856 13.5856 35.2819 13.5476 35.2042 13.4715C35.1264 13.3826 35.0875 13.2749 35.0875 13.148V0.68499C35.0875 0.570825 35.1264 0.475687 35.2042 0.399578C35.2819 0.310782 35.3856 0.266385 35.5153 0.266385H44.8879C45.0176 0.266385 45.1213 0.310782 45.1991 0.399578C45.2898 0.475687 45.3352 0.577167 45.3352 0.704018V2.45455C45.3352 2.5814 45.2898 2.68922 45.1991 2.77801C45.1213 2.85412 45.0176 2.89218 44.8879 2.89218H38.0043V6.33615H43.1573C43.287 6.33615 43.3907 6.38055 43.4684 6.46935C43.5462 6.54546 43.5851 6.64059 43.5851 6.75476V8.4482ZM45.0249 8.98097C45.0249 8.29598 45.1544 7.65539 45.4138 7.0592C45.686 6.45032 46.0555 5.92389 46.5222 5.47992C46.9888 5.03594 47.5333 4.6871 48.1556 4.4334C48.7778 4.17971 49.4454 4.05286 50.1584 4.05286C50.8714 4.05286 51.5391 4.17971 52.1613 4.4334C52.7965 4.6871 53.3475 5.03594 53.8142 5.47992C54.2809 5.92389 54.6438 6.45032 54.9031 7.0592C55.1753 7.65539 55.3115 8.29598 55.3115 8.98097C55.3115 9.66596 55.1753 10.3066 54.9031 10.9027C54.6438 11.4863 54.2809 12 53.8142 12.444C53.3475 12.8753 52.7965 13.2178 52.1613 13.4715C51.5391 13.7251 50.8714 13.852 50.1584 13.852C49.4454 13.852 48.7778 13.7251 48.1556 13.4715C47.5333 13.2178 46.9888 12.8753 46.5222 12.444C46.0555 12 45.686 11.4863 45.4138 10.9027C45.1544 10.3066 45.0249 9.66596 45.0249 8.98097ZM47.8639 8.96195C47.8639 9.2791 47.9222 9.58354 48.0389 9.87527C48.1556 10.1544 48.3176 10.4017 48.525 10.6173C48.7324 10.833 48.9723 11.0042 49.2445 11.1311C49.5296 11.2452 49.8343 11.3023 50.1584 11.3023C50.4955 11.3023 50.8001 11.2452 51.0724 11.1311C51.3575 11.0042 51.6038 10.833 51.8113 10.6173C52.0187 10.4017 52.1808 10.1544 52.2974 9.87527C52.4141 9.58354 52.4724 9.2791 52.4724 8.96195C52.4724 8.63217 52.4141 8.3277 52.2974 8.04863C52.1808 7.75687 52.0187 7.50952 51.8113 7.30655C51.6038 7.09091 51.3575 6.91967 51.0724 6.79281C50.8001 6.66596 50.4955 6.60254 50.1584 6.60254C49.8343 6.60254 49.5296 6.66596 49.2445 6.79281C48.9723 6.91967 48.7324 7.09091 48.525 7.30655C48.3176 7.50952 48.1556 7.75687 48.0389 8.04863C47.9222 8.3277 47.8639 8.63217 47.8639 8.96195ZM61.9294 4.18605C62.0331 4.18605 62.1368 4.21776 62.2406 4.28118C62.3442 4.34461 62.3961 4.48415 62.3961 4.69979V6.58351C62.3961 6.79915 62.3312 6.93869 62.2017 7.00211C62.072 7.06554 61.9683 7.09725 61.8905 7.09725H61.385C60.7756 7.09725 60.3155 7.25581 60.0043 7.57294C59.6932 7.87738 59.5376 8.38478 59.5376 9.09514V13.2051C59.5376 13.3192 59.4922 13.4144 59.4015 13.4905C59.3108 13.5539 59.2135 13.5856 59.1098 13.5856H57.1459C57.0292 13.5856 56.932 13.5476 56.8542 13.4715C56.7764 13.3953 56.7375 13.3002 56.7375 13.186V4.73784C56.7375 4.62368 56.7764 4.52854 56.8542 4.45243C56.932 4.36363 57.0292 4.31924 57.1459 4.31924H59.0126C59.1163 4.31924 59.2071 4.35729 59.2849 4.4334C59.3755 4.50951 59.421 4.59831 59.421 4.69979V5.46089C59.6802 5.05497 60.0043 4.74418 60.3932 4.52854C60.7821 4.30021 61.2034 4.18605 61.6572 4.18605H61.9294ZM70.5 10.8647C70.3573 10.8647 70.2342 10.8394 70.1305 10.7886C70.0397 10.7378 69.9555 10.6237 69.8777 10.4461L66.8054 3.86258V13.167C66.8054 13.2939 66.7599 13.3953 66.6692 13.4715C66.5915 13.5476 66.4942 13.5856 66.3776 13.5856H64.3552C64.07 13.5856 63.9274 13.4461 63.9274 13.167V0.68499C63.9274 0.570825 63.9663 0.475687 64.0441 0.399578C64.1219 0.310782 64.2256 0.266385 64.3552 0.266385H67.7776C67.9072 0.266385 68.0239 0.291754 68.1276 0.342495C68.2443 0.393235 68.335 0.494715 68.3999 0.646935L71.3361 7.15434L74.2918 0.646935C74.3696 0.494715 74.4603 0.393235 74.5641 0.342495C74.6807 0.291754 74.8038 0.266385 74.9335 0.266385H78.2587C78.3882 0.266385 78.492 0.310782 78.5698 0.399578C78.6605 0.475687 78.7059 0.570825 78.7059 0.68499V13.167C78.7059 13.2939 78.6605 13.3953 78.5698 13.4715C78.492 13.5476 78.3882 13.5856 78.2587 13.5856H76.2558C75.9706 13.5856 75.828 13.4461 75.828 13.167V3.86258L72.7362 10.4461C72.6584 10.6237 72.5676 10.7378 72.464 10.7886C72.3732 10.8394 72.2501 10.8647 72.0945 10.8647H70.5ZM85.4715 4.05286C86.2234 4.05286 86.8975 4.18605 87.4938 4.45243C88.0902 4.70613 88.5957 5.04862 89.0103 5.47992C89.4381 5.89852 89.7625 6.3869 89.9825 6.94503C90.2159 7.50317 90.3326 8.08034 90.3326 8.67653V9.19028C90.3326 9.30444 90.3007 9.40589 90.2353 9.49472C90.1708 9.58354 90.0409 9.62791 89.8464 9.62791H83.3519C83.4167 10.2114 83.6631 10.6744 84.0909 11.0169C84.5187 11.3594 85.0113 11.5307 85.5687 11.5307C86.0224 11.5307 86.4049 11.4545 86.716 11.3023C87.0401 11.1501 87.3318 10.9281 87.591 10.6364C87.6558 10.573 87.7271 10.5222 87.8049 10.4841C87.8957 10.4461 87.9929 10.4651 88.0966 10.5412L89.5936 11.4926C89.7103 11.5687 89.7687 11.6638 89.7687 11.778C89.7687 11.8922 89.7368 11.9873 89.6714 12.0634C89.2825 12.5581 88.7513 12.9831 88.0772 13.3383C87.416 13.6808 86.5604 13.852 85.5104 13.852C84.7585 13.852 84.0714 13.7315 83.4492 13.4905C82.8399 13.2368 82.3083 12.8943 81.8547 12.463C81.4139 12.0191 81.0704 11.5053 80.824 10.9218C80.5777 10.3256 80.4546 9.68499 80.4546 9C80.4546 8.31501 80.5777 7.67442 80.824 7.07822C81.0704 6.46935 81.4139 5.94292 81.8547 5.49894C82.3083 5.05497 82.8399 4.70613 83.4492 4.45243C84.0714 4.18605 84.7456 4.05286 85.4715 4.05286ZM87.5716 7.91543C87.4419 7.34461 87.1762 6.92601 86.7743 6.65962C86.3724 6.39324 85.9446 6.26004 85.4909 6.26004C85.0113 6.26004 84.577 6.40592 84.1881 6.69768C83.8122 6.98943 83.5528 7.39535 83.4103 7.91543H87.5716ZM98.1107 6.31713C98.7064 6.31713 99.1926 6.15222 99.5691 5.82241C99.958 5.47992 100.152 5.04228 100.152 4.50951C100.152 3.96406 99.9642 3.53911 99.5886 3.23467C99.212 2.93023 98.733 2.77801 98.1496 2.77801H94.8633V6.31713H98.1107ZM101.008 13.5856C100.826 13.5856 100.684 13.5539 100.58 13.4905C100.476 13.4271 100.373 13.3129 100.269 13.148L97.469 8.61945H94.8633V13.148C94.8633 13.2749 94.8174 13.3826 94.7272 13.4715C94.6494 13.5476 94.5451 13.5856 94.4161 13.5856H92.3743C92.2444 13.5856 92.141 13.5476 92.0632 13.4715C91.9854 13.3826 91.9465 13.2749 91.9465 13.148V0.68499C91.9465 0.58351 91.9783 0.488372 92.0438 0.399578C92.1215 0.310782 92.2311 0.266385 92.3743 0.266385H98.4802C99.2058 0.266385 99.8608 0.374208 100.444 0.589852C101.028 0.792816 101.52 1.07823 101.922 1.44609C102.337 1.81395 102.654 2.24524 102.875 2.73996C103.095 3.23467 103.205 3.76744 103.205 4.33827C103.205 4.64271 103.159 4.9852 103.069 5.36575C102.991 5.73361 102.842 6.09514 102.622 6.45032C102.414 6.8055 102.136 7.13531 101.786 7.43975C101.436 7.7315 100.995 7.96618 100.464 8.14376L103.575 13.0148C103.665 13.1417 103.678 13.2685 103.614 13.3953C103.562 13.5222 103.445 13.5856 103.264 13.5856H101.008ZM109.275 4.05286C110.026 4.05286 110.701 4.18605 111.297 4.45243C111.893 4.70613 112.399 5.04862 112.814 5.47992C113.242 5.89852 113.565 6.3869 113.786 6.94503C114.02 7.50317 114.136 8.08034 114.136 8.67653V9.19028C114.136 9.30444 114.104 9.40589 114.039 9.49472C113.974 9.58354 113.845 9.62791 113.65 9.62791H107.155C107.22 10.2114 107.467 10.6744 107.894 11.0169C108.322 11.3594 108.815 11.5307 109.372 11.5307C109.826 11.5307 110.208 11.4545 110.52 11.3023C110.843 11.1501 111.135 10.9281 111.395 10.6364C111.459 10.573 111.531 10.5222 111.608 10.4841C111.699 10.4461 111.796 10.4651 111.9 10.5412L113.397 11.4926C113.514 11.5687 113.572 11.6638 113.572 11.778C113.572 11.8922 113.54 11.9873 113.475 12.0634C113.086 12.5581 112.554 12.9831 111.881 13.3383C111.22 13.6808 110.364 13.852 109.314 13.852C108.562 13.852 107.875 13.7315 107.253 13.4905C106.643 13.2368 106.112 12.8943 105.658 12.463C105.217 12.0191 104.873 11.5053 104.628 10.9218C104.381 10.3256 104.258 9.68499 104.258 9C104.258 8.31501 104.381 7.67442 104.628 7.07822C104.873 6.46935 105.217 5.94292 105.658 5.49894C106.112 5.05497 106.643 4.70613 107.253 4.45243C107.875 4.18605 108.548 4.05286 109.275 4.05286ZM111.375 7.91543C111.245 7.34461 110.979 6.92601 110.578 6.65962C110.176 6.39324 109.748 6.26004 109.294 6.26004C108.814 6.26004 108.381 6.40592 107.992 6.69768C107.615 6.98943 107.356 7.39535 107.214 7.91543H111.375ZM116.2 6.62157H114.956C114.839 6.62157 114.742 6.57717 114.664 6.48837C114.586 6.39958 114.547 6.30444 114.547 6.20296V4.73784C114.547 4.62368 114.586 4.52854 114.664 4.45243C114.742 4.36363 114.839 4.31924 114.956 4.31924H116.2V1.86469C116.2 1.73784 116.239 1.63636 116.317 1.56025C116.408 1.48414 116.511 1.44609 116.628 1.44609H118.611C118.715 1.44609 118.806 1.48414 118.884 1.56025C118.975 1.63636 119.02 1.73784 119.02 1.86469V4.31924H121.684C121.8 4.31924 121.904 4.36363 121.995 4.45243C122.086 4.52854 122.131 4.62368 122.131 4.73784V6.20296C122.131 6.30444 122.086 6.39958 121.995 6.48837C121.904 6.57717 121.8 6.62157 121.684 6.62157H119.02V10.1797C119.02 10.408 119.052 10.592 119.117 10.7315C119.182 10.871 119.259 10.9789 119.35 11.055C119.454 11.1311 119.558 11.1818 119.661 11.2072C119.778 11.2325 119.882 11.2452 119.973 11.2452C120.076 11.2452 120.2 11.2262 120.342 11.1882C120.498 11.1501 120.659 11.0803 120.828 10.9789C120.984 10.8774 121.133 10.833 121.275 10.8457C121.418 10.8457 121.534 10.9155 121.625 11.055L122.306 12.1205C122.462 12.3616 122.442 12.5899 122.248 12.8055C121.923 13.1353 121.515 13.3826 121.023 13.5476C120.53 13.7125 120.005 13.7949 119.448 13.7949C119.045 13.7949 118.644 13.7378 118.242 13.6237C117.853 13.5095 117.509 13.3383 117.211 13.1099C116.913 12.8689 116.667 12.5645 116.472 12.1966C116.291 11.8161 116.2 11.3594 116.2 10.8266V6.62157ZM125.697 8.96195C125.697 9.2791 125.755 9.58354 125.872 9.87527C125.988 10.167 126.15 10.4207 126.358 10.6364C126.565 10.8394 126.811 11.0042 127.097 11.1311C127.382 11.258 127.686 11.3214 128.011 11.3214C128.347 11.3214 128.652 11.258 128.925 11.1311C129.21 11.0042 129.456 10.8394 129.663 10.6364C129.871 10.4207 130.033 10.167 130.15 9.87527C130.266 9.58354 130.325 9.2791 130.325 8.96195C130.325 8.63217 130.266 8.3277 130.15 8.04863C130.033 7.75687 129.871 7.50952 129.663 7.30655C129.456 7.09091 129.21 6.91967 128.925 6.79281C128.652 6.66596 128.347 6.60254 128.011 6.60254C127.686 6.60254 127.382 6.66596 127.097 6.79281C126.811 6.91967 126.565 7.09091 126.358 7.30655C126.15 7.50952 125.988 7.75687 125.872 8.04863C125.755 8.3277 125.697 8.63217 125.697 8.96195ZM122.858 8.94292C122.858 8.19451 122.988 7.5222 123.246 6.92601C123.519 6.31713 123.875 5.80338 124.316 5.38478C124.757 4.95349 125.263 4.62368 125.833 4.39535C126.403 4.16702 126.993 4.05286 127.602 4.05286C128.238 4.05286 128.795 4.17336 129.275 4.41438C129.755 4.64271 130.105 4.94081 130.325 5.30867V4.73784C130.325 4.62368 130.364 4.52854 130.441 4.45243C130.532 4.36363 130.63 4.31924 130.733 4.31924H132.697C132.814 4.31924 132.911 4.36363 132.989 4.45243C133.066 4.52854 133.105 4.62368 133.105 4.73784V13.186C133.105 13.3002 133.066 13.3953 132.989 13.4715C132.911 13.5476 132.814 13.5856 132.697 13.5856H130.733C130.63 13.5856 130.532 13.5476 130.441 13.4715C130.364 13.3953 130.325 13.3002 130.325 13.186V12.5962C130.105 12.964 129.747 13.2685 129.255 13.5095C128.775 13.7378 128.218 13.852 127.583 13.852C126.974 13.852 126.383 13.7378 125.813 13.5095C125.243 13.2812 124.738 12.9514 124.297 12.5201C123.869 12.0888 123.519 11.575 123.246 10.9789C122.988 10.37 122.858 9.6913 122.858 8.94292ZM136.388 3.32981C135.921 3.32981 135.519 3.1649 135.182 2.8351C134.858 2.50529 134.696 2.11839 134.696 1.67442C134.696 1.21776 134.858 0.824522 135.182 0.494715C135.519 0.164905 135.921 0 136.388 0C136.841 0 137.23 0.164905 137.555 0.494715C137.892 0.824522 138.06 1.21776 138.06 1.67442C138.06 2.11839 137.892 2.50529 137.555 2.8351C137.23 3.1649 136.841 3.32981 136.388 3.32981ZM135.396 13.5856C135.28 13.5856 135.176 13.5476 135.085 13.4715C135.007 13.3826 134.969 13.2812 134.969 13.167V4.73784C134.969 4.62368 135.007 4.52854 135.085 4.45243C135.176 4.36363 135.28 4.31924 135.396 4.31924H137.36C137.477 4.31924 137.574 4.36363 137.652 4.45243C137.73 4.52854 137.769 4.62368 137.769 4.73784V13.167C137.769 13.2812 137.73 13.3826 137.652 13.4715C137.574 13.5476 137.477 13.5856 137.36 13.5856H135.396ZM142.075 13.5856C141.18 13.5856 140.546 13.37 140.169 12.9387C139.794 12.5074 139.605 11.9493 139.605 11.2643V0.68499C139.605 0.570825 139.644 0.475687 139.722 0.399578C139.8 0.310782 139.904 0.266385 140.033 0.266385H141.978C142.108 0.266385 142.211 0.310782 142.289 0.399578C142.367 0.475687 142.405 0.570825 142.405 0.68499V10.7125C142.405 10.89 142.458 11.0359 142.561 11.1501C142.665 11.2516 142.808 11.3023 142.989 11.3023H143.592C143.696 11.3023 143.786 11.3341 143.864 11.3975C143.955 11.4482 144 11.5497 144 11.7019V13.0719C144 13.2875 143.935 13.4271 143.806 13.4905C143.677 13.5539 143.56 13.5856 143.456 13.5856H142.075Z" fill="#3BBD96"/>
</svg>
