<svg width="37" height="43" viewBox="0 0 37 43" fill="none" xmlns="http://www.w3.org/2000/svg">
<path d="M28.8383 35.9574H25.4243V33.4379H28.8383C30.9176 33.4379 32.722 32.0291 33.2264 30.0118L34.1441 26.3413C34.262 25.8693 34.158 25.3786 33.8585 24.9951C33.5591 24.6116 33.1083 24.3916 32.6217 24.3916H27.5705V21.8721H32.6217C33.8895 21.8721 35.0641 22.4452 35.8444 23.4445C36.6246 24.4438 36.8958 25.7224 36.5883 26.9525L35.6706 30.623C34.8854 33.7637 32.0758 35.9574 28.8383 35.9574Z" fill="#5F8429"/>
<path d="M0.287598 18.9805V27.4688C0.287598 35.3507 6.67713 41.7402 14.5591 41.7402C22.441 41.7402 28.8305 35.3507 28.8305 27.4688V18.9805H0.287598Z" fill="#BDE239"/>
<path d="M28.8305 18.9805V27.4688C28.8305 35.3507 22.441 41.7402 14.5591 41.7402V18.9805H28.8305Z" fill="#86B443"/>
<path d="M36.0581 0V2.51953C36.0581 7.99699 31.601 12.454 26.1236 12.454H14.5581C13.6586 12.454 12.9263 13.1855 12.9263 14.0859V16.9766H10.4067V14.0859C10.4067 11.7964 12.2687 9.93451 14.5581 9.93451H26.1236C30.2119 9.93451 33.5386 6.60789 33.5386 2.51953V0L36.0581 0Z" fill="#BAD1E7"/>
<path d="M30.2749 0V2.89158C30.2749 5.18016 28.4129 7.04293 26.1235 7.04293H14.558C10.4697 7.04293 7.14307 10.3687 7.14307 14.4579V16.9766H4.62354V14.4579C4.62354 8.97961 9.08059 4.5234 14.558 4.5234H26.1235C27.0238 4.5234 27.7554 3.79105 27.7554 2.89158V0H30.2749Z" fill="#BAD1E7"/>
<path d="M0.297852 40.4805H28.8206V43H0.297852V40.4805Z" fill="#8BBC43"/>
<path d="M14.5591 40.4805H28.8205V43H14.5591V40.4805Z" fill="#5F8429"/>
</svg>
