<svg width="36" height="36" viewBox="0 0 36 36" fill="none" xmlns="http://www.w3.org/2000/svg">
<path d="M17.957 35.9141C27.8744 35.9141 35.9141 27.8744 35.9141 17.957C35.9141 8.03964 27.8744 0 17.957 0C8.03964 0 0 8.03964 0 17.957C0 27.8744 8.03964 35.9141 17.957 35.9141Z" fill="#4B84CE"/>
<path d="M36 17.9571C36 27.658 27.8945 35.5705 17.957 35.5705V0.34375C27.8945 0.34375 36 8.25621 36 17.9571Z" fill="#4676B9"/>
<path d="M24.1909 9.51855H8.75385C7.92552 9.51855 7.66191 10.6347 8.40317 11.0047L17.9367 15.7715" fill="#E3EBF6"/>
<path d="M24.1905 9.51855H17.917V15.7618L17.9363 15.7715L24.1905 9.51855Z" fill="#E3EBF6"/>
<path d="M26.3945 11.7236V27.1606C26.3945 27.989 25.2784 28.2526 24.9084 27.5113L20.1416 17.9778L26.3945 11.7236Z" fill="#2E9BFF"/>
<path d="M12.7645 20.6L7.71118 21.3219C6.95542 21.4295 6.75348 22.4283 7.40888 22.8213L10.7875 24.8492C10.9011 24.9181 10.9979 25.0137 11.0656 25.1273L13.0922 28.5059C13.4852 29.1613 14.4829 28.9594 14.5917 28.2036L15.3136 23.1502C15.3499 22.8975 15.2652 22.6424 15.0838 22.4622L13.4526 20.8309C13.2724 20.6495 13.0173 20.5637 12.7645 20.6Z" fill="#E3EBF6"/>
<path d="M24.5246 8.38232L14.5787 18.3282C14.349 18.558 14.1325 18.7986 13.9294 19.0513L11.9366 21.5327C11.3803 22.2244 10.3331 24.326 10.9607 24.9536C11.5883 25.5812 13.6899 24.5328 14.3816 23.9777L16.8629 21.9849C17.1157 21.7818 17.3575 21.5653 17.5861 21.3356L27.532 11.3897C28.3627 10.5589 29.4317 8.1441 28.6009 7.31336C27.7702 6.48383 25.3554 7.55279 24.5246 8.38232Z" fill="white"/>
<path d="M28.6003 7.31308C27.7695 6.48234 25.3547 7.5513 24.524 8.38204L17.9155 14.9905V21.004L27.5301 11.3894C28.3608 10.5586 29.4298 8.14382 28.6003 7.31308Z" fill="#D0D5D9"/>
</svg>
