<svg width="390" height="191" viewBox="0 0 390 191" fill="none" xmlns="http://www.w3.org/2000/svg">
<path d="M196.791 190.869C298.155 190.869 380.327 186.071 380.327 180.153C380.327 174.235 298.155 169.438 196.791 169.438C95.4261 169.438 13.2539 174.235 13.2539 180.153C13.2539 186.071 95.4261 190.869 196.791 190.869Z" fill="#F5F5F5"/>
<path d="M329.339 182.04C329.339 182.04 371.84 187.503 385.37 166.836C402.923 140.023 366.861 119.692 339.203 123.48C278.935 131.733 279.689 9.82576 198.012 79.1604C176.404 97.5028 147.279 64.6045 112.017 105.209C103.777 114.697 53.4117 96.3565 28.3464 103.867C-20.7081 118.564 1.72087 182.288 36.7725 182.538C71.8257 182.788 329.339 182.04 329.339 182.04Z" fill="#EBF2F9"/>
<path d="M189.878 127.23H90.3994L75.2538 48.9462C74.8644 46.9388 74.9237 44.8701 75.4275 42.8883C75.9314 40.9065 76.8672 39.0607 78.1681 37.483C79.469 35.9053 81.1027 34.6348 82.9521 33.7625C84.8016 32.8902 86.8211 32.4378 88.8659 32.4375H160.088C163.309 32.4383 166.429 33.5602 168.913 35.6104C171.397 37.6607 173.089 40.5115 173.7 43.6737L189.878 127.23Z" fill="#54BFAC"/>
<path d="M118.655 127.23H90.3994L75.2538 48.9462C74.8644 46.9388 74.9237 44.8701 75.4275 42.8883C75.9314 40.9065 76.8672 39.0607 78.1681 37.483C79.469 35.9053 81.1027 34.6348 82.9521 33.7625C84.8016 32.8902 86.8211 32.4378 88.8659 32.4375C92.0861 32.4402 95.2052 33.5626 97.6886 35.6126C100.172 37.6625 101.865 40.5123 102.478 43.6737L118.655 127.23Z" fill="#54BFAC"/>
<g opacity="0.2">
<path opacity="0.2" d="M171.878 127.23H72.3994L57.2538 48.9462C56.8644 46.9388 56.9237 44.8701 57.4275 42.8883C57.9314 40.9065 58.8672 39.0607 60.1681 37.483C61.469 35.9053 63.1027 34.6348 64.9521 33.7625C66.8016 32.8902 68.8211 32.4378 70.8659 32.4375H142.088C145.309 32.4383 148.429 33.5602 150.913 35.6104C153.397 37.6607 155.089 40.5115 155.7 43.6737L171.878 127.23Z" fill="#54BFAC"/>
</g>
<path opacity="0.2" d="M189.877 127.077H118.654L102.477 43.6154C101.864 40.4581 100.167 37.614 97.6801 35.5746C95.193 33.5352 92.0718 32.4284 88.8555 32.4455H160.078C163.293 32.4288 166.413 33.5359 168.898 35.5755C171.384 37.615 173.079 40.4588 173.69 43.6154L189.877 127.077Z" fill="white"/>
<path d="M155.764 23.614C155.764 23.614 152.025 38.2674 141.385 35.9767C130.746 33.6859 130.395 19.7235 130.395 19.7235C130.395 19.7235 128.758 24.059 129.136 26.4255C128.569 25.4015 128.267 24.2521 128.257 23.0817C128.247 21.9113 128.53 20.7569 129.08 19.7235C129.08 19.7235 126.24 21.2286 126.24 23.614C125.91 22.7326 125.905 21.7623 126.226 20.8775C126.547 19.9927 127.173 19.2513 127.991 18.7864C127.991 18.7864 121.649 20.2252 124.205 11.4786C126.76 2.73201 134.949 7.41769 134.087 12.5956C136.138 10.638 138.828 9.48814 141.66 9.35822C146.317 9.11211 160.336 14.7823 155.764 23.614Z" fill="#263238"/>
<path d="M158.6 42.668C163.267 44.1731 168.795 63.9381 170.234 64.6197C171.673 65.3012 177.419 52.2571 177.419 52.2571L178.091 46.7383L180.031 43.2927C180.031 43.2927 183.004 47.3536 183.013 49.4362C183.023 51.5187 179.378 54.2733 179.378 54.2733C179.378 54.2733 173.699 74.0383 169.704 73.2716C165.709 72.5048 158.496 57.2835 158.496 57.2835L158.6 42.668Z" fill="#E4897B"/>
<path d="M206.691 106.8C206.605 106.942 206.52 106.999 206.416 106.98C203.576 106.469 196.003 110.606 186.859 115.377L184.285 116.702C183.991 116.863 183.698 117.005 183.404 117.147C178.766 119.523 173.844 121.88 168.969 123.868C163.242 126.196 157.609 127.919 152.611 128.288C151.93 128.345 151.277 128.364 150.623 128.364C128.284 128.364 135.563 91.4939 135.563 91.4939L162.248 89.4492L165.4 94.8732L167.104 97.8077L170.956 96.7759C172.85 96.2553 175.765 95.5832 179.078 94.8827L179.845 94.7123C180.952 94.4757 182.107 94.2485 183.291 94.0118C191.999 92.2417 201.995 90.5378 205.697 90.5189C208.347 90.4999 207.883 105.049 206.691 106.8Z" fill="#E4897B"/>
<path d="M179.59 93.4529L184.768 119.115C184.768 119.115 166.943 133.598 151.637 127.947C136.33 122.296 141.12 96.198 141.12 96.198L159.891 84.375L167.379 94.8444L179.59 93.4529Z" fill="#263238"/>
<path d="M178.711 92.9614L184.097 120.735L187.334 118.179L183.018 92.4219L178.711 92.9614Z" fill="#263238"/>
<path opacity="0.4" d="M187.332 118.179L184.095 120.735L183.915 119.769L183.404 117.147L181.208 105.854L179.078 94.883L178.841 93.643L178.699 92.9614L183.025 92.4219L183.29 94.0122L185.306 106.091L186.859 115.377L187.332 118.179Z" fill="white"/>
<path opacity="0.2" d="M206.691 106.8C206.606 106.942 206.521 106.999 206.417 106.98C203.577 106.468 196.004 110.605 186.86 115.376L187.333 118.216L184.096 120.772L183.916 119.711C180.478 122.074 176.845 124.142 173.059 125.893L168.979 123.81L163.062 120.686L165.486 98.6211L168.988 103.477C168.988 103.477 177.157 105.456 181.199 105.844L182.146 105.929C183.254 106.024 184.342 106.08 185.346 106.09C186.065 106.09 186.728 106.09 187.371 106.033C194.3 105.55 201.807 105.295 206.691 106.8Z" fill="black"/>
<path d="M262.842 121.7L262.596 127.039H261.971L257.655 127.257C246.201 127.777 217.784 128.781 205.667 126.358L149.988 127.437L162.228 105.996L238.789 117.952L262.35 121.615L262.842 121.7Z" fill="#E4897B"/>
<path d="M272.045 115.329C271.94 117.421 271.865 119.305 271.779 121.009C271.666 123.394 271.581 125.505 271.486 127.531C271.325 131.052 268.438 128.714 262.19 128.279C262.039 128.279 261.982 127.777 261.973 127.048C261.973 125.486 262.2 122.845 262.323 121.586L262.399 120.867C263.162 120.156 263.885 119.404 264.566 118.614C266.306 116.751 267.637 114.546 268.476 112.139C269.716 107.794 272.262 110.388 272.045 115.329Z" fill="#263238"/>
<path d="M177.422 107.652L171.156 129.547L158.85 128.364C158.85 128.364 123.419 137.725 133.292 86.9308L159.91 84.375L167.672 104.623L177.422 107.652Z" fill="#263238"/>
<path d="M176.077 106.461L168.996 129.899H173.18L179.38 107.654L176.077 106.461Z" fill="#263238"/>
<path opacity="0.4" d="M176.077 106.461L168.996 129.899H173.18L179.38 107.654L176.077 106.461Z" fill="white"/>
<path opacity="0.2" d="M271.778 121.039C271.664 123.424 271.579 125.535 271.485 127.561C271.324 131.082 268.436 128.744 262.189 128.309C262.037 128.309 261.981 127.807 261.971 127.078L257.655 127.296C251.757 123.974 243.456 120.102 238.723 117.953L262.284 121.616L262.359 120.897C263.122 120.186 263.846 119.434 264.527 118.644L271.778 121.039Z" fill="black"/>
<path d="M205.703 90.5196C204.756 90.5196 205.39 106.801 206.412 106.981C210.757 107.767 270.024 125.26 270.024 125.26L271.747 120.063C271.747 120.063 215.415 90.4628 205.703 90.5196Z" fill="#E4897B"/>
<path d="M269.326 126.264C268.758 126.056 271.541 119.174 271.541 119.174C271.541 119.174 277.382 116.335 279.767 112.444C282.153 108.554 283.895 111.753 282.333 116.448L278.471 128.072C277.363 131.405 275.214 128.375 269.326 126.264Z" fill="#263238"/>
<path d="M132.828 86.8L132.562 90.842L160.109 85.0015L158.916 80.543L132.828 86.8Z" fill="black"/>
<path d="M141.479 84.0005L140.176 84.2422L141.407 90.8782L142.71 90.6365L141.479 84.0005Z" fill="#263238"/>
<path d="M152.927 82.3017L147.211 83.5898L148.187 87.9208L153.903 86.6326L152.927 82.3017Z" fill="white"/>
<path d="M157.44 80.0395L156.137 80.2812L157.368 86.9173L158.671 86.6756L157.44 80.0395Z" fill="#263238"/>
<path d="M159.162 81.3288L132.837 86.9327C132.837 86.9327 132.922 72.3645 130.859 64.3184C130.187 61.7057 129.344 58.7807 128.274 55.3824C127.82 53.9436 127.328 52.429 126.788 50.8009C126.249 49.1727 125.757 47.6771 125.16 45.9827C128.704 44.8573 132.322 43.9843 135.989 43.37C139.859 42.6854 143.772 42.2742 147.699 42.1395C152.773 42.0921 158.604 42.6696 158.604 42.6696C158.604 42.6696 159.427 42.8684 159.948 48.2451C160.431 53.2999 160.222 62.9647 159.162 81.3288Z" fill="#263238"/>
<path opacity="0.8" d="M159.161 81.3299L132.836 86.9338C132.836 86.9338 132.836 86.612 132.836 86.044C132.789 84.7472 132.751 82.2576 132.618 79.3421C132.42 74.6091 131.975 68.5792 130.877 64.3195C130.403 62.4263 129.835 60.429 129.154 58.1855L128.804 57.0307C128.643 56.5006 128.482 55.9515 128.302 55.3931C127.847 53.9542 127.355 52.4302 126.806 50.802C126.257 49.1739 125.774 47.6783 125.188 45.9933C128.726 44.8625 132.342 43.9893 136.007 43.3807C139.876 42.6929 143.789 42.2785 147.717 42.1406C152.79 42.1406 158.621 42.6707 158.621 42.6707C158.621 42.6707 159.445 42.879 159.975 48.2462C160.429 53.3011 160.221 62.9659 159.161 81.3299Z" fill="#F4577C"/>
<path d="M145.548 47.9035C139.111 47.0799 137.18 44.3253 137.18 44.3253C139.811 41.8547 139.328 38.2008 138.656 35.9195C138.456 35.1945 138.193 34.4882 137.871 33.8086L145.604 35.2569C145.429 36.3371 145.331 37.4284 145.311 38.5227C145.28 39.327 145.354 40.1319 145.529 40.9176C146.049 43.2273 147.422 43.2557 147.422 43.2557C148.728 45.802 145.548 47.9035 145.548 47.9035Z" fill="#E4897B"/>
<path opacity="0.2" d="M145.311 38.5227C145.281 39.327 145.354 40.1319 145.529 40.9176C142.453 40.5105 140.124 38.0778 138.657 35.9195C138.456 35.1945 138.194 34.4882 137.871 33.8086L145.605 35.2569C145.429 36.3371 145.331 37.4284 145.311 38.5227Z" fill="black"/>
<path d="M147.377 13.5431C154.496 15.0009 156.01 19.2795 155.035 26.7293C153.814 36.0344 150.454 42.1305 141.944 38.3536C130.395 33.204 135.545 11.1293 147.377 13.5431Z" fill="#E4897B"/>
<path d="M137.147 23.9543C137.147 23.9543 141.662 18.7858 142.088 14.1664C142.088 14.1664 157.376 11.3266 155.151 25.7434C155.151 25.7434 159.127 13.305 146.935 10.5315C134.742 7.75792 131.145 25.6771 136.38 32.3033C136.38 32.256 134.335 27.2011 137.147 23.9543Z" fill="#263238"/>
<path d="M137.994 25.696C138.092 24.8578 137.855 24.0145 137.333 23.351C136.812 22.6874 136.048 22.2576 135.211 22.1557C132.958 21.9475 130.979 26.264 136.252 28.479C137 28.7914 137.606 28.1098 137.994 25.696Z" fill="#E4897B"/>
<path d="M147.112 14.0526C147.112 14.0526 141.859 25.1846 134.503 23.5186C127.148 21.8525 141.575 9.31954 141.575 9.31954C141.575 9.31954 154.543 7.23702 159.181 14.8382C163.82 22.4394 155.149 25.7052 155.149 25.7052C155.149 25.7052 157.449 16.7693 147.112 14.0526Z" fill="#263238"/>
<path d="M155.368 63.4094H174.555C174.823 63.398 175.08 63.2993 175.287 63.1285C175.494 62.9576 175.639 62.7238 175.701 62.4628L182.469 32.5028C182.507 32.3909 182.516 32.2714 182.496 32.155C182.477 32.0386 182.429 31.9287 182.357 31.8352C182.285 31.7416 182.191 31.6673 182.083 31.6186C181.976 31.57 181.858 31.5485 181.74 31.5562H162.552C162.285 31.5706 162.03 31.6704 161.824 31.8408C161.618 32.0112 161.472 32.2432 161.407 32.5028L154.639 62.4628C154.601 62.5747 154.592 62.6941 154.611 62.8106C154.631 62.927 154.679 63.0368 154.751 63.1304C154.823 63.2239 154.917 63.2983 155.025 63.347C155.132 63.3956 155.25 63.417 155.368 63.4094Z" fill="#263238"/>
<path opacity="0.2" d="M155.368 63.4094H174.555C174.823 63.398 175.08 63.2993 175.287 63.1285C175.494 62.9576 175.639 62.7238 175.701 62.4628L182.469 32.5028C182.507 32.3909 182.516 32.2714 182.496 32.155C182.477 32.0386 182.429 31.9287 182.357 31.8352C182.285 31.7416 182.191 31.6673 182.083 31.6186C181.976 31.57 181.858 31.5485 181.74 31.5562H162.552C162.285 31.5706 162.03 31.6704 161.824 31.8408C161.618 32.0112 161.472 32.2432 161.407 32.5028L154.639 62.4628C154.601 62.5747 154.592 62.6941 154.611 62.8106C154.631 62.927 154.679 63.0368 154.751 63.1304C154.823 63.2239 154.917 63.2983 155.025 63.347C155.132 63.3956 155.25 63.417 155.368 63.4094Z" fill="white"/>
<path opacity="0.8" d="M170.324 44.0312C171.507 44.0312 172.217 45.2429 171.848 46.7385C171.479 48.2341 170.277 49.4363 169.103 49.4363C167.929 49.4363 167.21 48.2247 167.57 46.7385C168.743 46.7385 169.983 45.5079 170.324 44.0312Z" fill="white"/>
<path opacity="0.2" d="M163.697 36.4508H165.732C165.833 36.4477 165.93 36.4118 166.009 36.3486C166.087 36.2854 166.143 36.1984 166.168 36.1006L166.726 33.6394C166.737 33.597 166.737 33.5529 166.727 33.5103C166.718 33.4678 166.698 33.4281 166.671 33.3942C166.643 33.3603 166.608 33.3332 166.569 33.315C166.529 33.2968 166.486 33.288 166.442 33.2892H164.407C164.307 33.2938 164.21 33.3302 164.132 33.3932C164.054 33.4561 163.998 33.5424 163.972 33.6394L163.413 36.1006C163.401 36.1431 163.399 36.188 163.408 36.2315C163.417 36.2749 163.436 36.3155 163.464 36.3499C163.492 36.3844 163.527 36.4115 163.568 36.4291C163.609 36.4467 163.653 36.4541 163.697 36.4508Z" fill="black"/>
<path d="M165.4 34.2161C165.343 34.4622 165.476 34.6704 165.684 34.6704C165.802 34.6548 165.912 34.6025 165.998 34.521C166.085 34.4395 166.144 34.3328 166.167 34.2161C166.223 33.97 166.1 33.7617 165.892 33.7617C165.773 33.7755 165.66 33.8269 165.572 33.9086C165.483 33.9903 165.423 34.098 165.4 34.2161Z" fill="#263238"/>
<path d="M164.264 34.2161C164.207 34.4622 164.33 34.6704 164.548 34.6704C164.666 34.6548 164.776 34.6025 164.862 34.521C164.949 34.4395 165.008 34.3328 165.031 34.2161C165.087 33.97 164.964 33.7617 164.747 33.7617C164.629 33.7774 164.519 33.8296 164.432 33.9112C164.345 33.9927 164.287 34.0993 164.264 34.2161Z" fill="#263238"/>
<path d="M165.104 35.523C165.047 35.7786 165.17 35.9774 165.388 35.9774C165.506 35.9631 165.617 35.9114 165.704 35.8296C165.791 35.7478 165.849 35.6404 165.87 35.523C165.927 35.2769 165.804 35.0781 165.586 35.0781C165.469 35.0918 165.359 35.1422 165.273 35.2221C165.186 35.3021 165.127 35.4074 165.104 35.523Z" fill="#263238"/>
<path d="M164.006 35.523C163.949 35.7786 164.072 35.9774 164.281 35.9774C164.401 35.965 164.514 35.9141 164.602 35.8322C164.691 35.7503 164.751 35.6418 164.773 35.523C164.83 35.2769 164.697 35.0781 164.489 35.0781C164.372 35.0918 164.262 35.1422 164.175 35.2221C164.088 35.3021 164.029 35.4074 164.006 35.523Z" fill="#263238"/>
<path opacity="0.2" d="M161.417 32.5208L154.639 62.4808C154.601 62.5927 154.592 62.7121 154.611 62.8286C154.631 62.945 154.679 63.0549 154.751 63.1484C154.823 63.2419 154.917 63.3163 155.025 63.365C155.132 63.4136 155.25 63.435 155.368 63.4274H156.163C156.046 63.4334 155.929 63.4108 155.823 63.3614C155.717 63.3121 155.624 63.2375 155.553 63.1442C155.482 63.0509 155.435 62.9417 155.416 62.8261C155.397 62.7105 155.406 62.5919 155.443 62.4808L162.212 32.5208C162.275 32.2605 162.42 32.0276 162.627 31.857C162.833 31.6863 163.09 31.5871 163.357 31.5742H162.552C162.286 31.5876 162.031 31.6872 161.826 31.8579C161.622 32.0286 161.478 32.2613 161.417 32.5208Z" fill="black"/>
<path opacity="0.2" d="M143.951 67.0058C141.006 71.8109 137.147 75.9917 132.592 79.3116C132.393 74.5786 131.948 68.5488 130.85 64.289C130.377 62.3958 129.809 60.3985 129.128 58.1551L128.777 57.0002C129.603 55.9803 130.698 55.2128 131.939 54.7852C133.139 59.3536 133.653 64.0752 133.463 68.7949L143.951 67.0058Z" fill="black"/>
<path d="M125.2 45.9913C123.259 46.4551 124.253 70.0539 127.405 75.6483C130.557 81.2427 152.698 58.7609 152.698 58.7609L151.354 54.6906C151.354 54.6906 131.939 67.2804 131.523 67.0816C131.106 66.8828 131.949 54.7758 131.949 54.7758C131.949 54.7758 131.192 50.3646 129.109 47.8656C127.026 45.3665 125.2 45.9913 125.2 45.9913Z" fill="#E4897B"/>
<path d="M151.352 54.7275L155.034 49.5117L157.874 56.952C157.874 56.952 153.784 60.9751 151.882 58.6937L151.352 54.7275Z" fill="#E4897B"/>
<path d="M160.611 47.5898L162.154 53.4872L157.884 56.9517L155.035 49.5114L160.611 47.5898Z" fill="#E4897B"/>
<path d="M247.386 180.029H252.176L250.557 164.051H244.148L247.386 180.029Z" fill="#263238"/>
<path d="M198.046 180.029H202.836L201.217 164.051H194.809L198.046 180.029Z" fill="#263238"/>
<path d="M167.243 180.029H162.453L164.072 164.051H170.48L167.243 180.029Z" fill="#263238"/>
<path d="M216.585 180.029H211.805L213.414 164.051H219.822L216.585 180.029Z" fill="#263238"/>
<path d="M97.6882 180.029H92.8984L94.5171 164.051H100.926L97.6882 180.029Z" fill="#263238"/>
<path d="M147.024 180.029H142.234L143.853 164.051H150.262L147.024 180.029Z" fill="#263238"/>
<path opacity="0.1" d="M167.243 180.029H162.453L164.072 164.051H170.48L167.243 180.029Z" fill="white"/>
<path opacity="0.1" d="M216.585 180.029H211.805L213.414 164.051H219.822L216.585 180.029Z" fill="white"/>
<path opacity="0.1" d="M97.6882 180.029H92.8984L94.5171 164.051H100.926L97.6882 180.029Z" fill="white"/>
<path opacity="0.1" d="M147.024 180.029H142.234L143.853 164.051H150.262L147.024 180.029Z" fill="white"/>
<path d="M312.093 180.029H316.873L315.264 164.051H308.855L312.093 180.029Z" fill="#263238"/>
<path d="M262.751 180.029H267.541L265.922 164.051H259.523L262.751 180.029Z" fill="#263238"/>
<path d="M248.691 126.266H93.6187C89.7605 126.266 86.6328 129.393 86.6328 133.252V160.533C86.6328 164.391 89.7605 167.519 93.6187 167.519H248.691C252.549 167.519 255.677 164.391 255.677 160.533V133.252C255.677 129.393 252.549 126.266 248.691 126.266Z" fill="#54BFAC"/>
<path opacity="0.2" d="M248.691 126.266H93.6187C89.7605 126.266 86.6328 129.393 86.6328 133.252V160.533C86.6328 164.391 89.7605 167.519 93.6187 167.519H248.691C252.549 167.519 255.677 164.391 255.677 160.533V133.252C255.677 129.393 252.549 126.266 248.691 126.266Z" fill="white"/>
<path opacity="0.2" d="M248.692 126.266H158.33C154.471 126.266 151.344 129.393 151.344 133.252V160.533C151.344 164.391 154.471 167.519 158.33 167.519H248.692C252.551 167.519 255.678 164.391 255.678 160.533V133.252C255.678 129.393 252.551 126.266 248.692 126.266Z" fill="white"/>
<path d="M316.629 126.266H161.556C157.698 126.266 154.57 129.393 154.57 133.252V160.533C154.57 164.391 157.698 167.519 161.556 167.519H316.629C320.487 167.519 323.614 164.391 323.614 160.533V133.252C323.614 129.393 320.487 126.266 316.629 126.266Z" fill="#54BFAC"/>
<path opacity="0.2" d="M316.629 126.266H161.556C157.698 126.266 154.57 129.393 154.57 133.252V160.533C154.57 164.391 157.698 167.519 161.556 167.519H316.629C320.487 167.519 323.614 164.391 323.614 160.533V133.252C323.614 129.393 320.487 126.266 316.629 126.266Z" fill="#54BFAC"/>
<path opacity="0.2" d="M316.63 126.266H226.267C222.409 126.266 219.281 129.393 219.281 133.252V160.533C219.281 164.391 222.409 167.519 226.267 167.519H316.63C320.488 167.519 323.616 164.391 323.616 160.533V133.252C323.616 129.393 320.488 126.266 316.63 126.266Z" fill="white"/>
<path d="M59.228 143.722H59.1618C59.0376 143.706 58.925 143.641 58.8487 143.542C58.7724 143.442 58.7386 143.317 58.7547 143.192C58.7547 143.107 58.821 142.179 58.8967 140.57C59.0198 138.175 59.2186 133.158 59.1523 126.437C59.1577 126.34 59.1577 126.242 59.1523 126.144C59.0671 118.637 58.6601 111.254 57.9596 104.173C57.3064 97.5472 56.3787 91.1671 55.1955 85.1278C54.1831 79.933 52.897 74.7952 51.3428 69.736C51.1062 68.9882 50.8695 68.2404 50.6234 67.5021C50.3773 66.7637 50.2164 66.2809 49.9987 65.6751C49.4496 64.1037 48.9479 62.5892 48.5125 61.1882C47.5659 58.1117 46.695 55.0353 45.9851 52.0535C45.5496 50.255 45.1615 48.4943 44.8397 46.8093C43.5551 40.4218 42.8204 33.9359 42.6436 27.4229C42.5773 24.8576 42.6436 22.3018 42.7571 19.8501C42.8999 17.2469 43.1779 14.6528 43.5902 12.0785C43.5902 11.8986 43.647 11.7283 43.6754 11.5673V11.3212C43.6828 11.2022 43.7294 11.0891 43.8079 10.9994C43.8519 10.955 43.9042 10.9198 43.9619 10.8958C44.0196 10.8717 44.0814 10.8594 44.1439 10.8594C44.2064 10.8594 44.2683 10.8717 44.3259 10.8958C44.3836 10.9198 44.436 10.955 44.48 10.9994C44.5403 11.0608 44.5847 11.136 44.6095 11.2185C44.6342 11.3009 44.6385 11.3882 44.622 11.4727V11.7188C44.622 11.8892 44.622 12.069 44.5368 12.2489C44.1271 14.7884 43.8522 17.3478 43.7132 19.9164C43.5807 22.3681 43.5428 24.905 43.6091 27.4419C43.7857 33.9033 44.5109 40.3381 45.7768 46.6768C46.0987 48.3523 46.4868 50.094 46.9222 51.8736C47.6227 54.8365 48.4746 57.894 49.4307 60.9516C49.8661 62.3431 50.3773 63.7914 50.9074 65.41C51.1251 66.0159 51.3334 66.6312 51.5416 67.2465C51.7499 67.8617 52.0244 68.7421 52.2516 69.4899C53.8119 74.5879 55.1074 79.7633 56.1326 84.9952C57.3159 91.063 58.253 97.4999 58.9062 104.126C59.6161 111.235 60.0137 118.647 60.1084 126.163C60.1084 126.277 60.1084 126.381 60.1084 126.504C60.1841 133.215 59.9853 138.261 59.8528 140.703C59.7865 142.331 59.7203 143.306 59.7108 143.391C59.6777 143.492 59.6126 143.578 59.5254 143.638C59.4381 143.698 59.3337 143.728 59.228 143.722Z" fill="#95AAC9"/>
<path d="M26.1289 11.4345C27.7914 9.81629 29.8314 8.63848 32.0641 8.00781L26.1289 11.4345Z" fill="#407BFF"/>
<path d="M26.1325 11.8886C26.0698 11.8984 26.006 11.8984 25.9432 11.8886C25.8291 11.8368 25.7397 11.7426 25.6938 11.626C25.6478 11.5094 25.649 11.3796 25.6971 11.2638C25.7195 11.2082 25.7516 11.1569 25.7918 11.1124C25.7951 11.0968 25.7951 11.0807 25.7918 11.0651C26.6144 10.2716 27.526 9.5759 28.5085 8.992C29.5831 8.35801 30.7348 7.86489 31.9352 7.52476C32.0607 7.49087 32.1946 7.50824 32.3073 7.57303C32.42 7.63783 32.5024 7.74475 32.5363 7.87028C32.5702 7.9958 32.5528 8.12965 32.488 8.24238C32.4232 8.35511 32.3163 8.43747 32.1908 8.47136C31.0693 8.78815 29.9937 9.24956 28.9913 9.84395C28.0784 10.3795 27.2276 11.0144 26.4544 11.7372C26.4133 11.7823 26.3638 11.819 26.3086 11.8449C26.2533 11.8709 26.1935 11.8858 26.1325 11.8886Z" fill="#95AAC9"/>
<path d="M25.1948 20.2845C25.0838 20.2826 24.9768 20.2425 24.8919 20.1709L21.6924 17.5204C21.5977 17.4379 21.5381 17.3225 21.5258 17.1975C21.5135 17.0726 21.5494 16.9477 21.6261 16.8483C21.7072 16.7516 21.823 16.6905 21.9486 16.6781C22.0743 16.6657 22.1998 16.703 22.2982 16.7821L25.4977 19.442C25.5467 19.4815 25.5873 19.5302 25.6172 19.5856C25.6471 19.6409 25.6657 19.7016 25.6718 19.7642C25.678 19.8267 25.6716 19.8899 25.6531 19.95C25.6346 20.0101 25.6043 20.0659 25.564 20.1141C25.5177 20.1667 25.461 20.209 25.3974 20.2384C25.3339 20.2677 25.2648 20.2834 25.1948 20.2845Z" fill="#95AAC9"/>
<path d="M48.9398 61.538C48.8124 61.531 48.6923 61.4766 48.6029 61.3855C48.5136 61.2945 48.4616 61.1733 48.457 61.0458C48.5759 60.1593 48.7951 59.2892 49.1102 58.4521C49.5296 57.2666 50.123 56.15 50.8709 55.139C51.4214 54.3785 52.0565 53.683 52.7641 53.0659C52.8595 52.9831 52.9839 52.9415 53.1099 52.9504C53.236 52.9593 53.3533 53.0179 53.4362 53.1133C53.519 53.2087 53.5606 53.3331 53.5517 53.4591C53.5428 53.5852 53.4842 53.7025 53.3888 53.7853C52.7274 54.3487 52.1306 54.9836 51.6092 55.6785C50.9197 56.6198 50.3772 57.6603 50 58.7645C49.7249 59.5159 49.5252 60.2928 49.4036 61.0837C49.4063 61.1441 49.3964 61.2043 49.3745 61.2607C49.3526 61.317 49.3193 61.3682 49.2765 61.4109C49.2338 61.4537 49.1826 61.487 49.1263 61.5089C49.0699 61.5308 49.0096 61.5407 48.9493 61.538H48.9398Z" fill="#95AAC9"/>
<path d="M51.7814 70.0669C51.6893 70.0661 51.5993 70.0389 51.5222 69.9886C51.445 69.9382 51.3839 69.8669 51.346 69.783C50.892 68.7827 50.2378 67.8861 49.4237 67.1486C48.6096 66.411 47.653 65.8482 46.6129 65.4948C46.5517 65.4774 46.4947 65.4478 46.4452 65.4077C46.3957 65.3677 46.3548 65.3181 46.3249 65.2619C46.2951 65.2057 46.2768 65.1441 46.2713 65.0807C46.2658 65.0173 46.2731 64.9534 46.2929 64.8929C46.3126 64.8324 46.3444 64.7765 46.3862 64.7285C46.4281 64.6806 46.4792 64.6416 46.5364 64.6138C46.5937 64.5861 46.656 64.5701 46.7196 64.567C46.7831 64.5638 46.8467 64.5736 46.9064 64.5956C48.074 64.9874 49.1482 65.6158 50.062 66.4415C50.9757 67.2673 51.7093 68.2727 52.2168 69.3949C52.2435 69.4512 52.2585 69.5124 52.261 69.5747C52.2635 69.637 52.2534 69.6992 52.2313 69.7575C52.2092 69.8159 52.1756 69.8691 52.1325 69.9141C52.0893 69.9592 52.0375 69.9951 51.9802 70.0196C51.9179 70.0489 51.8502 70.065 51.7814 70.0669Z" fill="#95AAC9"/>
<path d="M59.0227 112.387C57.9341 111.195 56.9496 106.49 56.4195 103.972C56.287 103.366 56.1829 102.855 56.0977 102.477" fill="#95AAC9"/>
<path d="M59.0184 112.871C58.9506 112.87 58.8836 112.856 58.8217 112.828C58.7598 112.8 58.7043 112.76 58.6587 112.71C57.5795 111.517 56.6897 107.627 55.9419 104.067C55.8189 103.471 55.7147 102.96 55.6295 102.591C55.6152 102.528 55.6133 102.464 55.6239 102.401C55.6345 102.338 55.6574 102.278 55.6912 102.224C55.725 102.17 55.7692 102.123 55.8211 102.086C55.8731 102.049 55.9318 102.023 55.994 102.008C56.0561 101.994 56.1205 101.992 56.1834 102.003C56.2463 102.013 56.3065 102.036 56.3605 102.07C56.4146 102.104 56.4615 102.148 56.4985 102.2C56.5354 102.252 56.5618 102.311 56.5761 102.373C56.6708 102.742 56.7749 103.263 56.9075 103.878C57.3902 106.178 58.3936 110.968 59.397 112.076C59.4557 112.145 59.4938 112.229 59.5069 112.319C59.52 112.408 59.5076 112.5 59.471 112.583C59.4345 112.666 59.3753 112.737 59.3003 112.788C59.2252 112.839 59.1374 112.867 59.0468 112.871H59.0184Z" fill="#95AAC9"/>
<path d="M46.423 52.4208C46.3006 52.4235 46.182 52.3786 46.092 52.2957C46.0019 52.2127 45.9476 52.0981 45.9402 51.9759C45.8835 51.1997 44.6718 32.8735 54.7815 25.5373C54.8324 25.501 54.8899 25.4751 54.9509 25.4612C55.0118 25.4472 55.0749 25.4455 55.1365 25.456C55.1981 25.4666 55.257 25.4892 55.3098 25.5227C55.3626 25.5561 55.4083 25.5997 55.4441 25.6509C55.4822 25.7007 55.5098 25.7578 55.5252 25.8185C55.5406 25.8793 55.5435 25.9426 55.5338 26.0045C55.524 26.0664 55.5018 26.1257 55.4685 26.1789C55.4352 26.232 55.3915 26.2778 55.34 26.3135C45.6563 33.3279 46.8774 51.7203 46.8963 51.8718C46.9015 51.9347 46.894 51.9981 46.8743 52.0581C46.8546 52.1181 46.8231 52.1735 46.7816 52.2212C46.7402 52.2688 46.6896 52.3076 46.6329 52.3354C46.5762 52.3632 46.5145 52.3794 46.4514 52.383L46.423 52.4208Z" fill="#95AAC9"/>
<path d="M47.2587 92.2903C46.1038 96.7298 55.9012 104.653 55.9012 104.653C55.9012 104.653 68.33 102.542 69.4849 98.1024C70.6398 93.6628 67.1752 86.6296 61.0317 85.0298C54.8883 83.4301 48.423 87.8507 47.2587 92.2903Z" fill="#9FD2B0"/>
<path d="M34.4566 39.6015C35.8576 44.2019 44.9355 47.108 44.9355 47.108C44.9355 47.108 50.8517 39.6298 49.4508 35.0294C48.0498 30.4289 42.8813 25.5633 38.7447 26.7845C34.608 28.0056 33.0556 35.001 34.4566 39.6015Z" fill="#9FD2B0"/>
<path d="M58.6609 53.4616C57.5595 54.4755 56.2743 55.2692 54.8745 55.7997C54.1803 56.0575 53.4288 56.1206 52.7014 55.9821C51.974 55.8436 51.2982 55.5089 50.7473 55.0141C49.4883 53.6888 49.7155 51.5306 50.3971 49.8267C51.7507 46.4568 57.0233 40.6068 61.3492 42.0267C67.6347 44.0808 61.3114 51.3128 58.6609 53.4616Z" fill="#9FD2B0"/>
<path d="M46.4907 62.4361C47.3331 63.3827 48.2419 64.6133 47.8538 65.8439C47.6257 66.3662 47.2302 66.7976 46.7297 67.0702C46.2292 67.3427 45.6522 67.4408 45.0897 67.349C43.9682 67.1398 42.9093 66.6768 41.9943 65.9954C39.7603 64.5944 35.1882 61.6315 37.8861 58.5551C40.5839 55.4786 44.7016 60.4104 46.4907 62.4361Z" fill="#9FD2B0"/>
<path d="M62.7502 19.6664C63.2186 19.6695 63.6738 19.8217 64.0499 20.1008C64.426 20.3799 64.7035 20.7715 64.8422 21.2188C65.0789 22.279 64.2269 23.254 63.3939 23.964C61.3208 25.7152 55.0543 30.4671 53.4262 26.2169C51.8832 22.2033 59.882 19.4676 62.7502 19.6664Z" fill="#9FD2B0"/>
<path d="M32.2267 6.00068C33.5614 6.06694 34.8677 5.52737 36.2119 5.55577C37.556 5.58417 39.0517 6.58757 38.8434 7.91282C38.6352 9.23806 37.1395 9.59777 35.8995 9.73029C33.7958 9.94679 31.6726 9.88313 29.5856 9.54097C29.0915 9.5181 28.6246 9.30831 28.2793 8.95408C27.7019 8.17787 28.516 7.06087 29.4247 6.75796C30.3335 6.45505 31.3747 6.48345 32.1888 5.96282L32.2267 6.00068Z" fill="#9FD2B0"/>
<path d="M19.6001 15.7391C18.2653 15.8432 16.9401 15.3225 15.6054 15.3793C14.2707 15.4361 12.7656 16.4774 13.0306 17.7932C13.2957 19.109 14.7629 19.4403 16.003 19.5444C18.1113 19.7261 20.2344 19.6274 22.3168 19.2509C22.8097 19.2216 23.2717 19.0008 23.6042 18.6357C24.1627 17.85 23.3297 16.7425 22.4209 16.4585C21.5122 16.1745 20.4615 16.2313 19.6379 15.7391H19.6001Z" fill="#9FD2B0"/>
<g opacity="0.2">
<path opacity="0.2" d="M47.2587 92.2942C46.1038 96.7337 55.9012 104.657 55.9012 104.657C55.9012 104.657 68.33 102.546 69.4849 98.1063C70.6398 93.6667 67.1752 86.6335 61.0317 85.0337C54.8883 83.434 48.423 87.8546 47.2587 92.2942Z" fill="black"/>
<path opacity="0.2" d="M34.4566 39.6054C35.8576 44.2059 44.9355 47.1119 44.9355 47.1119C44.9355 47.1119 50.8517 39.6337 49.4508 35.0333C48.0498 30.4328 42.8813 25.5673 38.7447 26.7884C34.608 28.0095 33.0556 35.0049 34.4566 39.6054Z" fill="black"/>
<path opacity="0.2" d="M58.6609 53.4616C57.5595 54.4755 56.2743 55.2692 54.8745 55.7997C54.1803 56.0575 53.4288 56.1206 52.7014 55.9821C51.974 55.8436 51.2982 55.5089 50.7473 55.0141C49.4883 53.6888 49.7155 51.5306 50.3971 49.8267C51.7507 46.4568 57.0233 40.6068 61.3492 42.0267C67.6347 44.0808 61.3114 51.3128 58.6609 53.4616Z" fill="black"/>
<path opacity="0.2" d="M46.4907 62.4361C47.3331 63.3827 48.2419 64.6133 47.8538 65.8439C47.6257 66.3662 47.2302 66.7976 46.7297 67.0702C46.2292 67.3427 45.6522 67.4408 45.0897 67.349C43.9682 67.1398 42.9093 66.6768 41.9943 65.9954C39.7603 64.5944 35.1882 61.6315 37.8861 58.5551C40.5839 55.4786 44.7016 60.4104 46.4907 62.4361Z" fill="black"/>
<path opacity="0.2" d="M62.7502 19.6703C63.2186 19.6734 63.6738 19.8256 64.0499 20.1047C64.426 20.3838 64.7035 20.7754 64.8422 21.2227C65.0789 22.2829 64.2269 23.258 63.3939 23.9679C61.3208 25.7191 55.0543 30.471 53.4262 26.2208C51.8832 22.2072 59.882 19.4715 62.7502 19.6703Z" fill="black"/>
<path opacity="0.2" d="M32.2267 6.00068C33.5614 6.06694 34.8677 5.52737 36.2119 5.55577C37.556 5.58417 39.0517 6.58757 38.8434 7.91282C38.6352 9.23806 37.1395 9.59777 35.8995 9.73029C33.7958 9.94679 31.6726 9.88313 29.5856 9.54097C29.0915 9.5181 28.6246 9.30831 28.2793 8.95408C27.7019 8.17787 28.516 7.06087 29.4247 6.75796C30.3335 6.45505 31.3747 6.48345 32.1888 5.96282L32.2267 6.00068Z" fill="black"/>
<path opacity="0.2" d="M19.6001 15.743C18.2653 15.8471 16.9401 15.3265 15.6054 15.3833C14.2707 15.44 12.7656 16.4813 13.0306 17.7971C13.2957 19.1129 14.7629 19.4442 16.003 19.5483C18.1113 19.73 20.2344 19.6313 22.3168 19.2548C22.8097 19.2255 23.2717 19.0047 23.6042 18.6396C24.1627 17.8539 23.3297 16.7464 22.4209 16.4624C21.5122 16.1784 20.4615 16.2352 19.6379 15.743H19.6001Z" fill="black"/>
</g>
<path d="M25.7606 13.1928C25.6984 13.188 25.6377 13.1709 25.5821 13.1426C25.5265 13.1143 25.477 13.0753 25.4366 13.0278C25.3961 12.9803 25.3654 12.9252 25.3463 12.8658C25.3272 12.8064 25.32 12.7438 25.3252 12.6816C25.505 10.0784 25.2211 7.57941 24.7383 7.43742C24.6167 7.40007 24.5143 7.31711 24.4526 7.20594C24.3908 7.09477 24.3745 6.96401 24.407 6.84106C24.4442 6.71984 24.5276 6.61815 24.6392 6.55793C24.7508 6.49771 24.8816 6.4838 25.0033 6.51922C26.5084 6.96412 26.3948 11.025 26.2718 12.7479C26.2682 12.8109 26.2521 12.8726 26.2243 12.9293C26.1965 12.986 26.1576 13.0366 26.11 13.078C26.0623 13.1195 26.0069 13.151 25.9469 13.1707C25.8869 13.1904 25.8236 13.1979 25.7606 13.1928Z" fill="#95AAC9"/>
<path d="M26.3404 8.67828C26.6433 6.70935 26.9273 4.63629 26.2079 2.78095C25.4884 0.925614 23.3681 -0.532158 21.4749 0.18726C19.4018 0.991871 19.0326 3.97367 20.1969 5.86687C21.3613 7.76008 23.5101 8.7824 25.5263 9.71007L26.1037 8.91493L26.3404 8.67828Z" fill="#9FD2B0"/>
<g opacity="0.2">
<path opacity="0.2" d="M26.3365 8.67828C26.6394 6.70935 26.9234 4.63629 26.204 2.78095C25.4845 0.925614 23.3642 -0.532158 21.471 0.18726C19.3979 0.991871 19.0287 3.97367 20.193 5.86687C21.3574 7.76008 23.5062 8.7824 25.5224 9.71007L26.0998 8.91493L26.3365 8.67828Z" fill="black"/>
</g>
<path d="M61.6544 151.314C61.6544 151.389 61.3041 151.749 62.6672 151.844C66.0182 152.052 71.9345 151.995 74.0738 149.146C77.1313 145.085 69.8141 145.284 70.4578 143.012C71.1014 140.74 78.9772 142.813 80.4728 139.595C81.9684 136.376 76.2036 136.859 76.4214 135.193C76.6391 133.527 82.7068 135.846 84.5811 132.438C86.4553 129.031 81.268 130.744 82.0726 129.333C82.8772 127.923 89.3709 122.13 86.6352 120.729C83.8995 119.328 77.8223 125.396 75.7777 126.011C73.733 126.626 73.0798 120.511 70.4199 122.48C67.7599 124.449 69.8235 133.726 66.6903 134.786C64.3616 135.581 65.5449 132.306 62.6483 132.363C58.701 132.438 57.7828 145.331 61.6544 151.314Z" fill="#9FD2B0"/>
<g opacity="0.3">
<path opacity="0.3" d="M61.6544 151.314C61.6544 151.389 61.3041 151.749 62.6672 151.844C66.0182 152.052 71.9345 151.995 74.0738 149.146C77.1313 145.085 69.8141 145.284 70.4578 143.012C71.1014 140.74 78.9772 142.813 80.4728 139.595C81.9684 136.376 76.2036 136.859 76.4214 135.193C76.6391 133.527 82.7068 135.846 84.5811 132.438C86.4553 129.031 81.268 130.744 82.0726 129.333C82.8772 127.923 89.3709 122.13 86.6352 120.729C83.8995 119.328 77.8223 125.396 75.7777 126.011C73.733 126.626 73.0798 120.511 70.4199 122.48C67.7599 124.449 69.8235 133.726 66.6903 134.786C64.3616 135.581 65.5449 132.306 62.6483 132.363C58.701 132.438 57.7828 145.331 61.6544 151.314Z" fill="black"/>
</g>
<path opacity="0.2" d="M75.5105 134.29C74.3707 134.085 73.2077 134.04 72.0555 134.158C72.5816 133.606 73.1445 133.091 73.7404 132.615C73.7987 132.58 73.849 132.534 73.888 132.478C73.9271 132.423 73.9541 132.36 73.9671 132.293C73.9802 132.227 73.9791 132.158 73.964 132.092C73.9488 132.026 73.9199 131.964 73.8791 131.91C73.8383 131.855 73.7866 131.811 73.7272 131.778C73.6679 131.745 73.6023 131.725 73.5348 131.719C73.4672 131.713 73.3992 131.722 73.3351 131.744C73.2711 131.766 73.2124 131.802 73.163 131.848C72.1806 132.669 71.2629 133.565 70.4178 134.527C70.3397 134.572 70.2795 134.642 70.2474 134.726C69.8499 135.171 69.4334 135.672 68.9979 136.212C69.1776 132.724 70.2429 129.339 72.0933 126.377C72.1292 126.325 72.1544 126.267 72.1677 126.206C72.1809 126.145 72.1818 126.081 72.1704 126.02C72.1589 125.958 72.1353 125.899 72.101 125.847C72.0666 125.794 72.0222 125.749 71.9703 125.714C71.8656 125.644 71.7377 125.618 71.6139 125.641C71.4901 125.664 71.3802 125.734 71.3076 125.837C69.0991 129.309 67.9662 133.357 68.0513 137.471C66.8367 139.162 65.7483 140.94 64.795 142.791C64.7375 142.851 64.6981 142.927 64.6814 143.009C64.2555 143.851 63.8389 144.75 63.4319 145.687C62.816 143.598 62.6356 141.404 62.9018 139.241C62.9151 139.117 62.8788 138.993 62.8008 138.895C62.7228 138.797 62.6094 138.735 62.4853 138.72C62.4236 138.711 62.3607 138.714 62.3002 138.73C62.2398 138.746 62.1832 138.773 62.1337 138.811C62.0842 138.849 62.0429 138.897 62.0122 138.951C61.9815 139.006 61.9621 139.065 61.9552 139.127C61.6017 141.797 61.9273 144.512 62.9018 147.022C61.6998 150.037 60.787 153.159 60.1756 156.346C60.1533 156.47 60.1804 156.598 60.2511 156.703C60.3219 156.807 60.4307 156.879 60.5542 156.905H60.6489C60.7593 156.904 60.8662 156.865 60.9509 156.794C61.0356 156.724 61.0929 156.625 61.1127 156.517C61.941 151.947 63.4268 147.521 65.5239 143.378C66.2584 142.709 67.1527 142.239 68.1208 142.016C69.0889 141.792 70.0984 141.821 71.0521 142.1C71.1776 142.137 71.3129 142.124 71.4283 142.062C71.5437 141.999 71.6297 141.894 71.6673 141.769C71.705 141.643 71.6913 141.508 71.6291 141.392C71.567 141.277 71.4616 141.191 71.336 141.153C69.7274 140.64 67.9807 140.786 66.48 141.56C67.75 139.315 69.2506 137.209 70.9574 135.275C72.3875 134.924 73.8773 134.891 75.3212 135.18C75.3834 135.191 75.447 135.189 75.5085 135.175C75.5699 135.161 75.628 135.135 75.6795 135.098C75.7309 135.062 75.7746 135.016 75.8082 134.962C75.8417 134.909 75.8644 134.849 75.875 134.787C75.8856 134.725 75.8838 134.662 75.8698 134.6C75.8557 134.539 75.8297 134.481 75.7933 134.429C75.7568 134.378 75.7105 134.334 75.6572 134.3C75.6038 134.267 75.5443 134.244 75.4821 134.234L75.5105 134.29Z" fill="black"/>
<path d="M60.0533 154.927C57.4596 155.088 52.9348 152.873 51.0984 150.611C49.262 148.348 54.2506 149.569 53.6637 147.771C53.0768 145.972 47.0375 147.572 45.7785 144.931C44.5195 142.29 48.9685 142.735 48.7319 141.381C48.4952 140.028 43.9421 140.501 42.3518 137.727C40.7615 134.954 44.8508 136.364 44.1693 135.219C43.4877 134.074 38.2341 129.341 40.2977 128.214C42.3613 127.088 47.3025 132.001 48.9117 132.55C50.521 133.099 50.7292 129.473 52.8591 131.082C54.9889 132.692 53.8057 140.208 56.2479 141.088C58.0843 141.741 57.1945 138.362 59.277 139.138C63.0161 140.463 61.1229 154.861 60.0533 154.927Z" fill="#9FD2B0"/>
<g opacity="0.2">
<path opacity="0.2" d="M60.0493 154.927C57.4557 155.088 52.9309 152.873 51.0945 150.611C49.2581 148.348 54.2467 149.569 53.6598 147.771C53.0729 145.972 47.0336 147.572 45.7746 144.931C44.5156 142.29 48.9646 142.735 48.728 141.381C48.4913 140.028 43.9382 140.501 42.3479 137.727C40.7576 134.954 44.8469 136.364 44.1654 135.219C43.4838 134.074 38.2302 129.341 40.2938 128.214C42.3574 127.088 47.2986 132.001 48.9078 132.55C50.5171 133.099 50.7253 129.473 52.8552 131.082C54.985 132.692 53.8018 140.208 56.244 141.088C58.0804 141.741 57.1906 138.362 59.2731 139.138C63.0122 140.463 61.119 154.861 60.0493 154.927Z" fill="black"/>
</g>
<path opacity="0.2" d="M60.7727 156.726C60.2591 154.796 59.6268 152.899 58.8795 151.047C58.8795 151.047 58.8795 151.047 58.8795 150.99C59.7953 148.723 60.0989 146.255 59.7598 143.834C59.7524 143.771 59.7327 143.711 59.7021 143.657C59.6714 143.602 59.6303 143.554 59.581 143.515C59.5318 143.477 59.4755 143.448 59.4152 143.431C59.3549 143.414 59.2919 143.41 59.2297 143.417C59.1676 143.424 59.1075 143.444 59.0529 143.475C58.9984 143.505 58.9504 143.547 58.9117 143.596C58.873 143.645 58.8444 143.701 58.8275 143.762C58.8106 143.822 58.8058 143.885 58.8132 143.947C59.0611 145.912 58.8836 147.907 58.2926 149.797C57.6615 148.371 57.0021 147.02 56.3142 145.746C56.3349 145.665 56.3336 145.58 56.3103 145.5C56.2869 145.42 56.2425 145.348 56.1817 145.291C56.1201 145.226 56.05 145.168 55.9734 145.121C55.4339 144.174 54.8943 143.228 54.3453 142.395C54.4108 138.769 53.3923 135.206 51.4203 132.162C51.3853 132.111 51.3405 132.068 51.2885 132.034C51.2365 132.001 51.1784 131.978 51.1176 131.968C51.0567 131.957 50.9944 131.959 50.9342 131.973C50.874 131.987 50.8172 132.012 50.7671 132.048C50.7152 132.083 50.6707 132.129 50.6364 132.181C50.602 132.233 50.5785 132.292 50.567 132.354C50.5556 132.416 50.5565 132.479 50.5697 132.54C50.5829 132.601 50.6082 132.66 50.6441 132.711C52.2068 135.184 53.1425 138.001 53.3703 140.918C51.5015 138.104 49.3408 135.496 46.9239 133.137C46.8799 133.093 46.8276 133.057 46.7699 133.033C46.7122 133.009 46.6503 132.997 46.5879 132.997C46.5254 132.997 46.4635 133.009 46.4058 133.033C46.3482 133.057 46.2958 133.093 46.2518 133.137C46.1651 133.225 46.1165 133.344 46.1165 133.468C46.1165 133.592 46.1651 133.711 46.2518 133.8C48.0449 135.535 49.6913 137.416 51.1741 139.422C49.6412 138.961 48.0398 138.769 46.4411 138.854C46.3173 138.866 46.2026 138.925 46.12 139.018C46.0375 139.111 45.9933 139.232 45.9962 139.356C46.0059 139.483 46.065 139.6 46.1606 139.683C46.2563 139.767 46.3808 139.809 46.5074 139.801C48.272 139.707 50.0372 139.974 51.6948 140.587H51.7516H51.8557H51.9504C51.9721 140.592 51.9948 140.592 52.0166 140.587C52.7739 141.656 53.5596 142.849 54.3358 144.136C53.0502 143.641 51.6338 143.601 50.3222 144.023C50.2027 144.062 50.1033 144.146 50.0449 144.258C49.9866 144.369 49.974 144.499 50.0098 144.619C50.049 144.739 50.1332 144.838 50.2446 144.896C50.3559 144.955 50.4857 144.967 50.6062 144.932C51.383 144.685 52.2069 144.626 53.0111 144.757C53.8153 144.889 54.5772 145.208 55.2351 145.689C57.2153 149.221 58.748 152.986 59.7977 156.897C59.8246 156.997 59.8837 157.085 59.9658 157.148C60.0478 157.212 60.1484 157.246 60.2521 157.247H60.3751C60.4947 157.226 60.602 157.161 60.6757 157.064C60.7494 156.968 60.784 156.847 60.7727 156.726Z" fill="black"/>
<path d="M78.3405 162.227C78.3405 172.062 82.6854 180.032 60.5349 180.032C40.8455 180.032 42.7198 172.062 42.7198 162.227C42.7198 152.391 50.7091 149.637 60.5349 149.637C70.3606 149.637 78.3405 152.382 78.3405 162.227Z" fill="#FFD200"/>
<path d="M80.2831 149.41H40.8477V159.17H80.2831V149.41Z" fill="#FFD200"/>
<path opacity="0.2" d="M80.2831 149.41H40.8477V159.17H80.2831V149.41Z" fill="white"/>
</svg>
