<svg width="42" height="31" viewBox="0 0 42 31" fill="none" xmlns="http://www.w3.org/2000/svg">
<path d="M39.1896 28.0107V8.35905C39.1896 6.70777 37.855 5.36914 36.2086 5.36914H2.98102C1.33465 5.36914 0 6.70777 0 8.35905V28.0107C0 29.662 1.33465 31.0006 2.98102 31.0006H36.2086C37.855 31.0006 39.1896 29.662 39.1896 28.0107Z" fill="#26A6FE"/>
<path d="M36.4498 5.36914C35.5474 5.36914 24.5573 5.36914 22.5 5.36914C24.1464 5.36914 25.481 6.70777 25.481 8.35905V28.0107C25.481 29.662 24.1464 31.0006 22.5 31.0006H36.4498C38.0961 31.0006 39.4308 29.662 39.4308 28.0107V8.35905C39.4308 6.70777 38.0961 5.36914 36.4498 5.36914Z" fill="#0593FC"/>
<path d="M23.3985 25.444H4.74791C4.39518 25.444 4.10889 25.1568 4.10889 24.803C4.10889 24.4493 4.39518 24.1621 4.74791 24.1621H23.3985C23.7513 24.1621 24.0376 24.4493 24.0376 24.803C24.0376 25.1576 23.7513 25.444 23.3985 25.444Z" fill="#C0D6F2"/>
<path d="M14.0732 27.8658H4.74791C4.39518 27.8658 4.10889 27.5787 4.10889 27.2249C4.10889 26.8711 4.39518 26.584 4.74791 26.584H14.0732C14.426 26.584 14.7122 26.8711 14.7122 27.2249C14.7122 27.5795 14.426 27.8658 14.0732 27.8658Z" fill="#C0D6F2"/>
<path d="M15.37 22.4106C15.0172 22.4106 14.731 22.1234 14.731 21.7696V20.2327C14.731 19.8789 15.0172 19.5918 15.37 19.5918C15.7227 19.5918 16.009 19.8789 16.009 20.2327V21.7696C16.0082 22.1243 15.7227 22.4114 15.37 22.4106Z" fill="#E2E2E2"/>
<path d="M18.2665 22.4106C17.9137 22.4106 17.6274 22.1234 17.6274 21.7696V20.2327C17.6274 19.8789 17.9137 19.5918 18.2665 19.5918C18.6192 19.5918 18.9055 19.8789 18.9055 20.2327V21.7696C18.9055 22.1243 18.6192 22.4114 18.2665 22.4106Z" fill="#E2E2E2"/>
<path d="M21.1639 22.4106C20.8112 22.4106 20.5249 22.1234 20.5249 21.7696V20.2327C20.5249 19.8789 20.8112 19.5918 21.1639 19.5918C21.5167 19.5918 21.8029 19.8789 21.8029 20.2327V21.7696C21.8021 22.1243 21.5167 22.4114 21.1639 22.4106Z" fill="#E2E2E2"/>
<path d="M24.0604 22.4106C23.7077 22.4106 23.4214 22.1234 23.4214 21.7696V20.2327C23.4214 19.8789 23.7077 19.5918 24.0604 19.5918C24.4131 19.5918 24.6994 19.8789 24.6994 20.2327V21.7696C24.6994 22.1243 24.4131 22.4114 24.0604 22.4106Z" fill="#E2E2E2"/>
<path d="M28.889 22.4106C28.5363 22.4106 28.25 22.1234 28.25 21.7696V20.2327C28.25 19.8789 28.5363 19.5918 28.889 19.5918C29.2418 19.5918 29.528 19.8789 29.528 20.2327V21.7696C29.528 22.1243 29.2418 22.4114 28.889 22.4106Z" fill="#E2E2E2"/>
<path d="M31.7855 22.4106C31.4328 22.4106 31.1465 22.1234 31.1465 21.7696V20.2327C31.1465 19.8789 31.4328 19.5918 31.7855 19.5918C32.1382 19.5918 32.4245 19.8789 32.4245 20.2327V21.7696C32.4245 22.1243 32.1382 22.4114 31.7855 22.4106Z" fill="#E2E2E2"/>
<path d="M34.683 22.4106C34.3302 22.4106 34.0439 22.1234 34.0439 21.7696V20.2327C34.0439 19.8789 34.3302 19.5918 34.683 19.5918C35.0357 19.5918 35.322 19.8789 35.322 20.2327V21.7696C35.322 22.1243 35.0357 22.4114 34.683 22.4106Z" fill="#E2E2E2"/>
<path d="M4.74791 22.4106C4.39518 22.4106 4.10889 22.1234 4.10889 21.7696V20.2327C4.10889 19.8789 4.39518 19.5918 4.74791 19.5918C5.10064 19.5918 5.38693 19.8789 5.38693 20.2327V21.7696C5.38693 22.1243 5.10064 22.4114 4.74791 22.4106Z" fill="#E2E2E2"/>
<path d="M7.64537 22.4106C7.29264 22.4106 7.00635 22.1234 7.00635 21.7696V20.2327C7.00635 19.8789 7.29264 19.5918 7.64537 19.5918C7.99811 19.5918 8.28439 19.8789 8.28439 20.2327V21.7696C8.28357 22.1243 7.99811 22.4114 7.64537 22.4106Z" fill="#E2E2E2"/>
<path d="M10.5419 22.4106C10.1891 22.4106 9.90283 22.1234 9.90283 21.7696V20.2327C9.90283 19.8789 10.1891 19.5918 10.5419 19.5918C10.8946 19.5918 11.1809 19.8789 11.1809 20.2327V21.7696C11.1809 22.1243 10.8946 22.4114 10.5419 22.4106Z" fill="#E2E2E2"/>
<path d="M36.1945 11.6454C39.4007 11.6454 41.9999 9.03846 41.9999 5.82268C41.9999 2.6069 39.4007 0 36.1945 0C32.9883 0 30.3892 2.6069 30.3892 5.82268C30.3892 9.03846 32.9883 11.6454 36.1945 11.6454Z" fill="#FFC344"/>
<path d="M36.1945 0C35.8229 0 35.4603 0.0362015 35.1084 0.103668C37.7949 0.61378 39.8268 2.98004 39.8268 5.82268C39.8268 8.66532 37.7949 11.0316 35.1084 11.5417C35.4603 11.6083 35.8229 11.6454 36.1945 11.6454C39.4003 11.6454 41.9998 9.03886 41.9998 5.82268C41.9998 2.60651 39.4011 0 36.1945 0Z" fill="#FEB137"/>
<path d="M34.9805 8.51933C34.9558 8.51933 34.9312 8.51769 34.9066 8.51522C34.713 8.49218 34.54 8.38193 34.4374 8.21491L32.6499 5.30892C32.4646 5.00779 32.5581 4.61286 32.8583 4.42774C33.1585 4.24179 33.5523 4.33559 33.7369 4.63672L35.1002 6.85324L38.6284 3.31454C38.8778 3.06442 39.2822 3.06442 39.5316 3.31454C39.7809 3.56466 39.7809 3.97028 39.5316 4.2204L35.4325 8.33174C35.3119 8.45269 35.1494 8.51933 34.9805 8.51933Z" fill="#FFF0AD"/>
<path d="M12.9799 16.824H5.70535C5.17707 16.824 4.74805 16.3946 4.74805 15.8639V10.1037C4.74805 9.57304 5.17625 9.14355 5.70535 9.14355H12.9799C13.509 9.14355 13.9372 9.57304 13.9372 10.1037V15.8639C13.9372 16.3946 13.509 16.824 12.9799 16.824Z" fill="#FFD15B"/>
<path d="M12.9797 8.50195H5.70521C4.82502 8.50195 4.10889 9.22022 4.10889 10.103V15.8632C4.10889 16.746 4.82502 17.4635 5.70521 17.4635H12.9797C13.8599 17.4635 14.5761 16.7452 14.5761 15.8632V10.103C14.5761 9.22022 13.8599 8.50195 12.9797 8.50195ZM13.2988 10.103V12.3426H9.9815V9.78381H12.9806C13.1553 9.78299 13.2988 9.92698 13.2988 10.103ZM5.38693 15.8632V10.103C5.38693 9.92698 5.52967 9.78381 5.70521 9.78381H8.70428V16.1832H5.70521C5.52967 16.1824 5.38693 16.0393 5.38693 15.8632ZM12.9797 16.1824H9.98068V13.6236H13.298V15.8632C13.2988 16.0393 13.1553 16.1824 12.9797 16.1824Z" fill="#FEB137"/>
<path d="M35.1086 16.8238H28.6363C28.4485 16.8238 28.2959 16.6708 28.2959 16.4824V14.6032C28.2959 14.4148 28.4485 14.2617 28.6363 14.2617H35.1086C35.2964 14.2617 35.449 14.4148 35.449 14.6032V16.4824C35.449 16.6708 35.2973 16.8238 35.1086 16.8238Z" fill="#FD4755"/>
</svg>
