<svg width="38" height="38" viewBox="0 0 38 38" fill="none" xmlns="http://www.w3.org/2000/svg">
<path d="M19 0C8.55742 0 0 8.55742 0 19C0 29.4426 8.55742 38 19 38C29.4426 38 38 29.4426 38 19C38 8.55742 29.4426 0 19 0Z" fill="#FFE470"/>
<path d="M38 19C38 29.4426 29.4426 38 19 38V0C29.4426 0 38 8.55742 38 19Z" fill="#FFD400"/>
<path d="M19 4.52734C11.0289 4.52734 4.52734 11.0289 4.52734 19C4.52734 26.9711 11.0289 33.4727 19 33.4727C26.9711 33.4727 33.4727 26.9711 33.4727 19C33.4727 11.0289 26.9711 4.52734 19 4.52734Z" fill="#FDBF00"/>
<path d="M33.4727 19C33.4727 26.9711 26.9711 33.4727 19 33.4727V4.52734C26.9711 4.52734 33.4727 11.0289 33.4727 19Z" fill="#FF9F00"/>
<path d="M24.5664 22.3398C24.5664 24.7891 22.5625 26.793 20.1133 26.793V27.9062C20.1133 28.5297 19.6234 29.0195 19 29.0195C18.3766 29.0195 17.8867 28.5297 17.8867 27.9062V26.793H14.5469C13.9234 26.793 13.4336 26.3031 13.4336 25.6797C13.4336 25.0562 13.9234 24.5664 14.5469 24.5664H20.1133C21.3379 24.5664 22.3398 23.5645 22.3398 22.3398C22.3398 21.1152 21.3379 20.1133 20.1133 20.1133H17.8867C15.4375 20.1133 13.4336 18.1094 13.4336 15.6602C13.4336 13.2109 15.4375 11.207 17.8867 11.207V10.0938C17.8867 9.47031 18.3766 8.98047 19 8.98047C19.6234 8.98047 20.1133 9.47031 20.1133 10.0938V11.207H23.4531C24.0766 11.207 24.5664 11.6969 24.5664 12.3203C24.5664 12.9437 24.0766 13.4336 23.4531 13.4336H17.8867C16.6621 13.4336 15.6602 14.4355 15.6602 15.6602C15.6602 16.8848 16.6621 17.8867 17.8867 17.8867H20.1133C22.5625 17.8867 24.5664 19.8906 24.5664 22.3398Z" fill="#FFE470"/>
<path d="M11.2051 19C11.2051 19.6153 10.7063 20.1133 10.0918 20.1133C9.47652 20.1133 8.97852 19.6153 8.97852 19C8.97852 18.3847 9.47652 17.8867 10.0918 17.8867C10.7063 17.8867 11.2051 18.3847 11.2051 19Z" fill="#FFE470"/>
<path d="M29.0176 19C29.0176 19.6153 28.5188 20.1133 27.9043 20.1133C27.289 20.1133 26.791 19.6153 26.791 19C26.791 18.3847 27.289 17.8867 27.9043 17.8867C28.5188 17.8867 29.0176 18.3847 29.0176 19Z" fill="#FFD400"/>
<path d="M24.5664 22.3398C24.5664 24.7891 22.5625 26.793 20.1133 26.793V27.9062C20.1133 28.5297 19.6234 29.0195 19 29.0195V24.5664H20.1133C21.3379 24.5664 22.3398 23.5645 22.3398 22.3398C22.3398 21.1152 21.3379 20.1133 20.1133 20.1133H19V17.8867H20.1133C22.5625 17.8867 24.5664 19.8906 24.5664 22.3398Z" fill="#FFD400"/>
<path d="M23.4531 13.4336H19V8.98047C19.6234 8.98047 20.1133 9.47031 20.1133 10.0938V11.207H23.4531C24.0766 11.207 24.5664 11.6969 24.5664 12.3203C24.5664 12.9437 24.0766 13.4336 23.4531 13.4336Z" fill="#FFD400"/>
</svg>
