<?xml version="1.0" encoding="UTF-8"?> <svg xmlns="http://www.w3.org/2000/svg" xmlns:xlink="http://www.w3.org/1999/xlink" width="300" height="323.191" viewBox="0 0 300 323.191"><defs><linearGradient id="linear-gradient" x1="0.5" x2="0.5" y2="1" gradientUnits="objectBoundingBox"><stop offset="0" stop-color="#ededfa"></stop><stop offset="1" stop-color="#fff"></stop></linearGradient></defs><g id="Group_521" data-name="Group 521" transform="translate(-5424.845 -380.167)"><g id="background" transform="translate(5424.846 380.167)"><g id="Group_382" data-name="Group 382" transform="translate(0 9.041)"><g id="Group_381" data-name="Group 381"><path id="Path_638" data-name="Path 638" d="M5651.124,493.824c-10.454-9.912-17.161-17.431-21.6-28.393-7.212-17.807-.312-29.286-15.6-40.194-21.167-15.1-40.272,9.518-65.493,4.653-31.44-6.065-32.258-29.525-59.423-34.033-27.445-4.554-50.914,26.748-59.257,51.076-9.968,29.068-4.844,67.137,16.4,94.827,22.485,29.3,41.9,19.449,74.337,49.949,41.646,39.159,28.74,73.357,64.826,98.482,33.486,23.315,83.542,20.977,95.785-.276,8.067-14-5.367-26.921,2.584-49.22,8.486-23.807,27.042-18.5,34.784-40.008,8.344-23.183-2.178-60.034-23.57-78.918C5680.791,509.316,5670.88,512.554,5651.124,493.824Z" transform="translate(-5424.846 -395.412)" fill="url(#linear-gradient)"></path></g></g><g id="Group_384" data-name="Group 384" transform="translate(18.039 152.154)"><g id="Group_383" data-name="Group 383"><path id="Path_639" data-name="Path 639" d="M5458.93,644.139a3.668,3.668,0,1,1,3.668-3.668A3.671,3.671,0,0,1,5458.93,644.139Zm0-5.869a2.2,2.2,0,1,0,2.2,2.2A2.2,2.2,0,0,0,5458.93,638.27Z" transform="translate(-5455.262 -636.803)" fill="#b1b6f6"></path></g></g><g id="Group_386" data-name="Group 386" transform="translate(52.567)"><g id="Group_385" data-name="Group 385"><path id="Path_640" data-name="Path 640" d="M5517.147,387.5a3.668,3.668,0,1,1,3.667-3.668A3.672,3.672,0,0,1,5517.147,387.5Zm0-5.869a2.2,2.2,0,1,0,2.2,2.2A2.2,2.2,0,0,0,5517.147,381.634Z" transform="translate(-5513.479 -380.167)" fill="#303886"></path></g></g><g id="Group_388" data-name="Group 388" transform="translate(136.404 149.954)"><g id="Group_387" data-name="Group 387"><path id="Path_641" data-name="Path 641" d="M5658.583,640.429a3.668,3.668,0,1,1,3.668-3.668A3.672,3.672,0,0,1,5658.583,640.429Zm0-5.869a2.2,2.2,0,1,0,2.2,2.2A2.2,2.2,0,0,0,5658.583,634.56Z" transform="translate(-5654.916 -633.093)" fill="#01aeb3"></path></g></g><g id="Group_390" data-name="Group 390" transform="translate(292.664 218.724)"><g id="Group_389" data-name="Group 389"><path id="Path_642" data-name="Path 642" d="M5922.145,756.421a3.668,3.668,0,1,1,3.668-3.668A3.673,3.673,0,0,1,5922.145,756.421Zm0-5.869a2.2,2.2,0,1,0,2.2,2.2A2.2,2.2,0,0,0,5922.145,750.552Z" transform="translate(-5918.477 -749.085)" fill="#303886"></path></g></g><g id="Group_392" data-name="Group 392" transform="translate(215.721 0.03)"><g id="Group_391" data-name="Group 391"><path id="Path_643" data-name="Path 643" d="M5792.366,387.554a3.668,3.668,0,1,1,3.668-3.668A3.671,3.671,0,0,1,5792.366,387.554Zm0-5.869a2.2,2.2,0,1,0,2.2,2.2A2.2,2.2,0,0,0,5792.366,381.685Z" transform="translate(-5788.699 -380.218)" fill="#b1b6f6"></path></g></g><g id="plants" transform="translate(226.449 24.266)"><g id="Group_405" data-name="Group 405" transform="translate(1.579 51.449)"><g id="Group_395" data-name="Group 395" transform="translate(1.716)"><g id="Group_394" data-name="Group 394"><g id="Group_393" data-name="Group 393"><path id="Path_644" data-name="Path 644" d="M5869.977,511.485c3.849,3.92,4.48,9.613,2.626,12.17-1.771,2.443-4.686.472-6.708,2.641-3.175,3.406,2.279,10.12-.019,14.654-2.374,4.681-9.51.135-14.459,4.172-6.066,4.949.7,15.009-4.41,21.392-4.9,6.11-19.173,6.976-27.918-2-7.72-7.928-8.542-20.876-3.623-25.869,5.746-5.833,16.794,1.758,21.453-4.47,4.184-5.592-2.531-14.636,2.289-18.353,4.031-3.109,9.97,2.261,15.47-1.464,3.613-2.446,3.06-6.122,6.917-6.5C5864.254,507.6,5867.588,509.053,5869.977,511.485Z" transform="translate(-5812.39 -507.829)" fill="#ced0f6"></path></g></g></g><g id="Group_398" data-name="Group 398" transform="translate(0 9.67)"><g id="Group_397" data-name="Group 397"><g id="Group_396" data-name="Group 396"><path id="Path_645" data-name="Path 645" d="M5810,585.213a.478.478,0,0,1-.092,0,.444.444,0,0,1-.408-.478c.511-6.519,9.472-18.688,26.633-36.171,12.739-12.977,25.495-24.21,25.622-24.321a.444.444,0,1,1,.587.667c-.508.447-50.771,44.79-51.956,59.894A.445.445,0,0,1,5810,585.213Z" transform="translate(-5809.496 -524.134)" fill="#fff"></path></g></g></g><g id="Group_401" data-name="Group 401" transform="translate(11.633 34.386)"><g id="Group_400" data-name="Group 400"><g id="Group_399" data-name="Group 399"><path id="Path_646" data-name="Path 646" d="M5848.222,580.923a.373.373,0,0,1-.079,0l-17.056-.844a.445.445,0,0,1-.419-.393l-1.555-13.386a.432.432,0,0,1,.391-.493.444.444,0,0,1,.493.39l1.513,13.013,16.679.826a.444.444,0,0,1,.034.885Z" transform="translate(-5829.11 -565.808)" fill="#fff"></path></g></g></g><g id="Group_404" data-name="Group 404" transform="translate(34.211 12.156)"><g id="Group_403" data-name="Group 403"><g id="Group_402" data-name="Group 402"><path id="Path_647" data-name="Path 647" d="M5881.461,543.886a.44.44,0,0,1-.152-.007l-11.683-2.6a.445.445,0,0,1-.342-.358l-2.1-12.073a.445.445,0,0,1,.877-.152l2.048,11.78,11.394,2.536a.444.444,0,0,1-.041.875Z" transform="translate(-5867.178 -528.326)" fill="#fff"></path></g></g></g></g><g id="Group_424" data-name="Group 424"><g id="Group_408" data-name="Group 408" transform="translate(0 14.346)"><g id="Group_407" data-name="Group 407"><g id="Group_406" data-name="Group 406"><path id="Path_648" data-name="Path 648" d="M5807.783,509.069a.586.586,0,0,1-.911-.439c-.614-7.53,6.085-20.465,19.908-38.442,10.248-13.326,20.808-24.62,20.914-24.733a.586.586,0,0,1,.855.8c-.42.447-41.921,44.942-40.51,62.277A.585.585,0,0,1,5807.783,509.069Z" transform="translate(-5806.833 -445.27)" fill="#303886"></path></g></g></g><g id="Group_411" data-name="Group 411" transform="translate(40.717)"><g id="Group_410" data-name="Group 410"><g id="Group_409" data-name="Group 409"><path id="Path_649" data-name="Path 649" d="M5886.908,432.84a27.772,27.772,0,0,1-10.77,3.947.586.586,0,0,1-.645-.678c2.2-13.472,16.625-15.01,16.77-15.025a.589.589,0,0,1,.443.142.58.58,0,0,1,.2.419C5893.114,427.044,5890.293,430.565,5886.908,432.84ZM5876.8,435.5c3.185-.566,14.83-3.312,14.944-13.161C5889.07,422.758,5878.987,425.031,5876.8,435.5Z" transform="translate(-5875.486 -421.081)" fill="#303886"></path></g></g></g><g id="Group_414" data-name="Group 414" transform="translate(24.102 29.152)"><g id="Group_413" data-name="Group 413"><g id="Group_412" data-name="Group 412"><path id="Path_650" data-name="Path 650" d="M5867.045,477.725c-7.776,5.225-19.17-1.867-19.3-1.951a.585.585,0,0,1-.1-.913c9.761-9.585,22.341-1.318,22.466-1.234a.584.584,0,0,1,.159.815A11.94,11.94,0,0,1,5867.045,477.725Zm-18.012-2.557c2.822,1.569,13.98,7.036,19.911-.882a22.7,22.7,0,0,0-6.6-2.532A14.54,14.54,0,0,0,5849.033,475.167Z" transform="translate(-5847.471 -470.234)" fill="#303886"></path></g></g></g><g id="Group_417" data-name="Group 417" transform="translate(20.22 11.811)"><g id="Group_416" data-name="Group 416"><g id="Group_415" data-name="Group 415"><path id="Path_651" data-name="Path 651" d="M5845.722,463.869a.585.585,0,0,1-.776-.111c-8.754-10.476-.492-22.395-.407-22.514a.585.585,0,0,1,.844-.119c10.173,8.125.594,22.444.5,22.587A.6.6,0,0,1,5845.722,463.869Zm-.577-21.412c-1.429,2.3-6.3,11.415.19,19.912C5846.989,459.59,5852.522,448.98,5845.145,442.457Z" transform="translate(-5840.926 -440.996)" fill="#303886"></path></g></g></g><g id="Group_420" data-name="Group 420" transform="translate(7.284 50.633)"><g id="Group_419" data-name="Group 419"><g id="Group_418" data-name="Group 418"><path id="Path_652" data-name="Path 652" d="M5837.916,513.686c-7.1,4.768-18.29.477-18.427.423a.583.583,0,0,1-.35-.382.59.59,0,0,1,.089-.509c8.052-11.037,22.3-5.259,22.44-5.2a.587.587,0,0,1,.307.785A11.5,11.5,0,0,1,5837.916,513.686Zm-17.257-.409c3.145,1.033,15.383,4.38,19.971-4.392C5838.019,507.994,5827.311,505.006,5820.659,513.277Z" transform="translate(-5819.116 -506.454)" fill="#303886"></path></g></g></g><g id="Group_423" data-name="Group 423" transform="translate(1.148 35.364)"><g id="Group_422" data-name="Group 422"><g id="Group_421" data-name="Group 421"><path id="Path_653" data-name="Path 653" d="M5815.818,503.573a.584.584,0,0,1-.71-.042c-10.325-8.887-4.945-22.326-4.89-22.46a.587.587,0,0,1,.829-.288c11.339,6.341,5.053,22.362,4.989,22.523A.588.588,0,0,1,5815.818,503.573Zm-4.745-21.41c-.862,2.623-3.478,12.683,4.16,19.9C5816.271,498.922,5819.371,487.4,5811.073,482.163Z" transform="translate(-5808.769 -480.708)" fill="#8fd0d6"></path></g></g></g></g></g></g><g id="tablet" transform="translate(5471.445 406.758)"><g id="Group_425" data-name="Group 425" transform="translate(0 3.294)"><rect id="Rectangle_313" data-name="Rectangle 313" width="193.329" height="255.261" rx="14.356" fill="#303886"></rect></g><g id="Group_426" data-name="Group 426" transform="translate(54.37 3.941)"><rect id="Rectangle_314" data-name="Rectangle 314" width="87.155" height="11.519" fill="#ced0f6"></rect></g><g id="document" transform="translate(12.187 10.188)"><g id="Group_427" data-name="Group 427"><path id="Path_654" data-name="Path 654" d="M5672.376,681.822H5524.921a.878.878,0,0,1-.878-.878V443.057a.878.878,0,0,1,.878-.878h167.2a.879.879,0,0,1,.879.878V662.5Z" transform="translate(-5524.042 -442.179)" fill="#fff"></path></g><g id="Group_428" data-name="Group 428" transform="translate(147.845 219.823)"><path id="Path_655" data-name="Path 655" d="M5794.767,813.831h-19.743a.878.878,0,0,0-.879.878v18.454Z" transform="translate(-5773.657 -813.343)" fill="#fff"></path><path id="Path_656" data-name="Path 656" d="M5773.809,833.316a.488.488,0,0,1-.487-.488V814.375a1.369,1.369,0,0,1,1.367-1.367h19.743a.488.488,0,0,1,.334.844l-20.623,19.332A.489.489,0,0,1,5773.809,833.316Zm.879-19.332a.39.39,0,0,0-.39.39V831.7l18.9-17.717Z" transform="translate(-5773.321 -813.008)" fill="#ced0f6"></path></g><g id="Group_462" data-name="Group 462" transform="translate(12.444 86.676)"><g id="Group_439" data-name="Group 439"><g id="Group_433" data-name="Group 433" transform="translate(35.741 5.331)"><g id="Group_430" data-name="Group 430"><g id="Group_429" data-name="Group 429"><path id="Path_657" data-name="Path 657" d="M5710.65,601.245H5607.273a1.95,1.95,0,0,1-1.987-1.911h0a1.95,1.95,0,0,1,1.987-1.91H5710.65a1.949,1.949,0,0,1,1.986,1.91h0A1.95,1.95,0,0,1,5710.65,601.245Z" transform="translate(-5605.287 -597.424)" fill="#ededfa"></path></g></g><g id="Group_432" data-name="Group 432" transform="translate(0 9.439)"><g id="Group_431" data-name="Group 431"><path id="Path_658" data-name="Path 658" d="M5704.126,617.161h-96.853a1.95,1.95,0,0,1-1.987-1.911h0a1.95,1.95,0,0,1,1.987-1.911h96.853a1.95,1.95,0,0,1,1.987,1.911h0A1.95,1.95,0,0,1,5704.126,617.161Z" transform="translate(-5605.287 -613.339)" fill="#ededfa"></path></g></g></g><g id="Group_438" data-name="Group 438"><g id="Group_435" data-name="Group 435" transform="translate(0.488 0.488)"><g id="Group_434" data-name="Group 434"><path id="Path_659" data-name="Path 659" d="M5547.214,612.2a1.368,1.368,0,0,1-1.367-1.367V590.626c0-.572.467-1.367.928-1.367h20.211c1.331,0,1.806.706,1.806,1.367v20.212a1.369,1.369,0,0,1-1.368,1.367Z" transform="translate(-5545.847 -589.259)" fill="#fff"></path></g></g><g id="Group_437" data-name="Group 437"><g id="Group_436" data-name="Group 436"><path id="Path_660" data-name="Path 660" d="M5566.65,589.412c.924,0,1.318.394,1.318.879V610.5a.879.879,0,0,1-.878.878h-20.213a.878.878,0,0,1-.878-.878V590.291a1.178,1.178,0,0,1,.44-.879h20.211m0-.976h-20.211c-.821,0-1.416,1.108-1.416,1.855V610.5a1.856,1.856,0,0,0,1.854,1.855h20.213a1.857,1.857,0,0,0,1.855-1.855V590.291c0-.923-.709-1.855-2.295-1.855Z" transform="translate(-5545.023 -588.436)" fill="#b1b6f6"></path></g></g></g></g><g id="Group_450" data-name="Group 450" transform="translate(0 36.167)"><g id="Group_444" data-name="Group 444" transform="translate(35.741 5.331)"><g id="Group_441" data-name="Group 441"><g id="Group_440" data-name="Group 440"><path id="Path_661" data-name="Path 661" d="M5710.65,662.225H5607.273a1.95,1.95,0,0,1-1.987-1.91h0a1.95,1.95,0,0,1,1.987-1.911H5710.65a1.95,1.95,0,0,1,1.986,1.911h0A1.949,1.949,0,0,1,5710.65,662.225Z" transform="translate(-5605.287 -658.404)" fill="#ededfa"></path></g></g><g id="Group_443" data-name="Group 443" transform="translate(0 9.439)"><g id="Group_442" data-name="Group 442"><path id="Path_662" data-name="Path 662" d="M5704.126,678.141h-96.853a1.95,1.95,0,0,1-1.987-1.911h0a1.95,1.95,0,0,1,1.987-1.911h96.853a1.95,1.95,0,0,1,1.987,1.911h0A1.95,1.95,0,0,1,5704.126,678.141Z" transform="translate(-5605.287 -674.319)" fill="#ededfa"></path></g></g></g><g id="Group_449" data-name="Group 449"><g id="Group_446" data-name="Group 446" transform="translate(0.488 0.489)"><g id="Group_445" data-name="Group 445"><path id="Path_663" data-name="Path 663" d="M5547.214,673.185a1.368,1.368,0,0,1-1.367-1.367V651.607c0-.572.467-1.367.928-1.367h20.211c1.331,0,1.806.706,1.806,1.367v20.212a1.368,1.368,0,0,1-1.368,1.367Z" transform="translate(-5545.847 -650.24)" fill="#fff"></path></g></g><g id="Group_448" data-name="Group 448"><g id="Group_447" data-name="Group 447"><path id="Path_664" data-name="Path 664" d="M5566.65,650.392c.924,0,1.318.394,1.318.879v20.212a.879.879,0,0,1-.878.878h-20.213a.878.878,0,0,1-.878-.878V651.271a1.179,1.179,0,0,1,.44-.879h20.211m0-.976h-20.211c-.821,0-1.416,1.108-1.416,1.855v20.212a1.856,1.856,0,0,0,1.854,1.855h20.213a1.857,1.857,0,0,0,1.855-1.855V651.271c0-.923-.709-1.855-2.295-1.855Z" transform="translate(-5545.023 -649.416)" fill="#b1b6f6"></path></g></g></g></g><g id="Group_461" data-name="Group 461" transform="translate(0 72.334)"><g id="Group_455" data-name="Group 455" transform="translate(35.741 5.33)"><g id="Group_452" data-name="Group 452"><g id="Group_451" data-name="Group 451"><path id="Path_665" data-name="Path 665" d="M5710.65,723.206H5607.273a1.95,1.95,0,0,1-1.987-1.911h0a1.95,1.95,0,0,1,1.987-1.911H5710.65a1.95,1.95,0,0,1,1.986,1.911h0A1.95,1.95,0,0,1,5710.65,723.206Z" transform="translate(-5605.287 -719.384)" fill="#ededfa"></path></g></g><g id="Group_454" data-name="Group 454" transform="translate(0 9.44)"><g id="Group_453" data-name="Group 453"><path id="Path_666" data-name="Path 666" d="M5704.126,739.121h-96.853a1.95,1.95,0,0,1-1.987-1.911h0a1.95,1.95,0,0,1,1.987-1.91h96.853a1.95,1.95,0,0,1,1.987,1.91h0A1.95,1.95,0,0,1,5704.126,739.121Z" transform="translate(-5605.287 -735.3)" fill="#ededfa"></path></g></g></g><g id="Group_460" data-name="Group 460"><g id="Group_457" data-name="Group 457" transform="translate(0.488 0.488)"><g id="Group_456" data-name="Group 456"><rect id="Rectangle_315" data-name="Rectangle 315" width="22.945" height="22.945" rx="1.646" fill="#fff"></rect></g></g><g id="Group_459" data-name="Group 459"><g id="Group_458" data-name="Group 458"><path id="Path_667" data-name="Path 667" d="M5567.481,711.373a.488.488,0,0,1,.487.488v20.993a.489.489,0,0,1-.487.488h-20.993a.489.489,0,0,1-.489-.488V711.861a.488.488,0,0,1,.489-.488h20.993m0-.976h-20.993a1.466,1.466,0,0,0-1.465,1.464v20.993a1.466,1.466,0,0,0,1.465,1.464h20.993a1.466,1.466,0,0,0,1.464-1.464V711.861a1.466,1.466,0,0,0-1.464-1.464Z" transform="translate(-5545.023 -710.397)" fill="#b1b6f6"></path></g></g></g></g></g></g><g id="Group_464" data-name="Group 464" transform="translate(53.466)"><g id="Group_463" data-name="Group 463"><rect id="Rectangle_316" data-name="Rectangle 316" width="89.195" height="5.354" rx="1.895" fill="#575a74"></rect></g></g><g id="Group_466" data-name="Group 466" transform="translate(50.415 1.823)"><g id="Group_465" data-name="Group 465"><path id="Path_668" data-name="Path 668" d="M5641.886,450.219c-3.405,0-5.6-.017-5.646-.018-.1,0-11.151.088-22.392-.151-23.056-.49-24.4-1.823-24.973-2.391a1.2,1.2,0,0,1-.38-.865V432.843a4.476,4.476,0,0,1,1.27-3.315,5.775,5.775,0,0,1,3.767-1.452l-.018,1.709a4.064,4.064,0,0,0-2.555.964,2.805,2.805,0,0,0-.756,2.095v13.683c.777.412,4.657,1.417,23.846,1.82,11.156.234,22.081.148,22.19.148s11.042.087,22.2-.129c19.055-.369,23.031-1.307,23.854-1.7v-13.82a2.8,2.8,0,0,0-.755-2.095,4.07,4.07,0,0,0-2.559-.964h0l-.014-1.709a5.782,5.782,0,0,1,3.767,1.452,4.474,4.474,0,0,1,1.271,3.315v14.115a1.162,1.162,0,0,1-.367.838c-.548.544-1.831,1.817-24.928,2.272C5652.419,450.192,5646.186,450.219,5641.886,450.219Z" transform="translate(-5588.496 -428.075)" fill="#ced0f6"></path></g></g><g id="Group_467" data-name="Group 467" transform="translate(28.106 99.937)"><path id="Path_669" data-name="Path 669" d="M5557.874,610.828h-.03a1.221,1.221,0,0,1-1.036-.624l-5.771-10.322a1.22,1.22,0,0,1,2.13-1.192l4.764,8.521,8.155-13.056a1.22,1.22,0,1,1,2.069,1.293l-9.249,14.806A1.218,1.218,0,0,1,5557.874,610.828Z" transform="translate(-5550.882 -593.582)" fill="#303886"></path></g><g id="Group_468" data-name="Group 468" transform="translate(28.106 135.552)"><path id="Path_670" data-name="Path 670" d="M5557.874,670.906h-.03a1.221,1.221,0,0,1-1.036-.625l-5.771-10.321a1.22,1.22,0,1,1,2.13-1.191l4.764,8.52,8.155-13.056a1.22,1.22,0,1,1,2.069,1.293l-9.249,14.806A1.218,1.218,0,0,1,5557.874,670.906Z" transform="translate(-5550.882 -653.659)" fill="#303886"></path></g><g id="Group_469" data-name="Group 469" transform="translate(27.862 172.284)"><path id="Path_671" data-name="Path 671" d="M5557.461,732.869h-.028a1.223,1.223,0,0,1-1.037-.624l-5.771-10.322a1.221,1.221,0,0,1,2.131-1.192l4.764,8.521,8.155-13.056a1.221,1.221,0,0,1,2.071,1.293L5558.5,732.3A1.221,1.221,0,0,1,5557.461,732.869Z" transform="translate(-5550.471 -715.622)" fill="#303886"></path></g><g id="Group_473" data-name="Group 473" transform="translate(24.497 61.651)"><g id="Group_470" data-name="Group 470"><path id="Path_672" data-name="Path 672" d="M5683.624,532.821H5546.785a1.949,1.949,0,0,1-1.987-1.91h0a1.949,1.949,0,0,1,1.987-1.911h136.839a1.949,1.949,0,0,1,1.985,1.911h0A1.949,1.949,0,0,1,5683.624,532.821Z" transform="translate(-5544.798 -529)" fill="#ededfa"></path></g><g id="Group_471" data-name="Group 471" transform="translate(0 9.234)"><path id="Path_673" data-name="Path 673" d="M5677.1,548.392H5546.785a1.95,1.95,0,0,1-1.987-1.911h0a1.95,1.95,0,0,1,1.987-1.911H5677.1a1.95,1.95,0,0,1,1.986,1.911h0A1.95,1.95,0,0,1,5677.1,548.392Z" transform="translate(-5544.798 -544.57)" fill="#ededfa"></path></g><g id="Group_472" data-name="Group 472" transform="translate(0 18.469)"><path id="Path_674" data-name="Path 674" d="M5656.843,563.962H5546.785a1.95,1.95,0,0,1-1.987-1.911h0a1.95,1.95,0,0,1,1.987-1.911h110.059a1.95,1.95,0,0,1,1.986,1.911h0A1.95,1.95,0,0,1,5656.843,563.962Z" transform="translate(-5544.798 -560.14)" fill="#ededfa"></path></g></g><g id="Group_476" data-name="Group 476" transform="translate(24.497 43.23)"><g id="Group_474" data-name="Group 474"><path id="Path_675" data-name="Path 675" d="M5683.624,501.745H5546.785a1.949,1.949,0,0,1-1.987-1.911h0a1.949,1.949,0,0,1,1.987-1.91h136.839a1.949,1.949,0,0,1,1.985,1.91h0A1.949,1.949,0,0,1,5683.624,501.745Z" transform="translate(-5544.798 -497.924)" fill="#ededfa"></path></g><g id="Group_475" data-name="Group 475" transform="translate(0 9.234)"><path id="Path_676" data-name="Path 676" d="M5677.1,517.315H5546.785a1.949,1.949,0,0,1-1.987-1.91h0a1.949,1.949,0,0,1,1.987-1.911H5677.1a1.95,1.95,0,0,1,1.986,1.911h0A1.95,1.95,0,0,1,5677.1,517.315Z" transform="translate(-5544.798 -513.494)" fill="#ededfa"></path></g></g><g id="Group_480" data-name="Group 480" transform="translate(23.638 212.696)"><g id="Group_477" data-name="Group 477"><path id="Path_677" data-name="Path 677" d="M5687.555,787.634h-142.22a1.95,1.95,0,0,1-1.986-1.91h0a1.95,1.95,0,0,1,1.986-1.911h142.22a1.95,1.95,0,0,1,1.988,1.911h0A1.95,1.95,0,0,1,5687.555,787.634Z" transform="translate(-5543.349 -783.813)" fill="#ededfa"></path></g><g id="Group_478" data-name="Group 478" transform="translate(0 9.234)"><path id="Path_678" data-name="Path 678" d="M5681.032,803.2h-135.7a1.95,1.95,0,0,1-1.986-1.91h0a1.95,1.95,0,0,1,1.986-1.911h135.7a1.95,1.95,0,0,1,1.987,1.911h0A1.949,1.949,0,0,1,5681.032,803.2Z" transform="translate(-5543.349 -799.383)" fill="#ededfa"></path></g><g id="Group_479" data-name="Group 479" transform="translate(0 18.469)"><path id="Path_679" data-name="Path 679" d="M5660.777,818.775H5545.335a1.95,1.95,0,0,1-1.986-1.911h0a1.95,1.95,0,0,1,1.986-1.911h115.442a1.949,1.949,0,0,1,1.985,1.911h0A1.949,1.949,0,0,1,5660.777,818.775Z" transform="translate(-5543.349 -814.953)" fill="#ededfa"></path></g></g><g id="Group_483" data-name="Group 483" transform="translate(98.723 190.945)" opacity="0.7"><g id="Group_481" data-name="Group 481"><path id="Path_680" data-name="Path 680" d="M5691.668,790.58a21.72,21.72,0,1,1,21.72-21.72A21.744,21.744,0,0,1,5691.668,790.58Zm0-41.976a20.256,20.256,0,1,0,20.257,20.256A20.279,20.279,0,0,0,5691.668,748.6Z" transform="translate(-5669.948 -747.14)" fill="#b1b6f6"></path></g><g id="Group_482" data-name="Group 482" transform="translate(10.982 10.982)"><circle id="Ellipse_54" data-name="Ellipse 54" cx="10.738" cy="10.738" r="10.738" fill="#b1b6f6"></circle></g></g></g><g id="man" transform="translate(5549.266 500.348)"><g id="Group_485" data-name="Group 485" transform="translate(53.884 13.178)"><g id="Group_484" data-name="Group 484"><path id="Path_681" data-name="Path 681" d="M5727.9,606.609s-4.971,6.858-.333,18.243c.359.884,6.74-.2,6.74-.2a45.277,45.277,0,0,1-1.242,5.452c-.261.786-.931,2.911-.714,3.659.813,2.8,15.866,3.789,13.208-1.673a25.917,25.917,0,0,1-2.573-8.434S5742.726,599.2,5727.9,606.609Z" transform="translate(-5725.585 -605.21)" fill="#ffbd9b"></path></g></g><g id="Group_487" data-name="Group 487" transform="translate(65.516 192.934)"><g id="Group_486" data-name="Group 486"><path id="Path_682" data-name="Path 682" d="M5764.228,910.595v6.336a1.332,1.332,0,0,1-1.188,1.439H5745.2v-.8a1.411,1.411,0,0,1,1.027-1.362c2.555-.721,5.891-2.807,9.191-5.788C5760.829,905.535,5764.228,910.595,5764.228,910.595Z" transform="translate(-5745.2 -908.294)" fill="#150d53"></path></g></g><g id="Group_489" data-name="Group 489" transform="translate(30.53 192.934)"><g id="Group_488" data-name="Group 488"><path id="Path_683" data-name="Path 683" d="M5708.568,910.595v6.336a1.33,1.33,0,0,1-1.187,1.439H5686.21v-.8a1.412,1.412,0,0,1,1.027-1.362c2.554-.721,9.222-2.807,12.522-5.788C5705.17,905.535,5708.568,910.595,5708.568,910.595Z" transform="translate(-5686.21 -908.294)" fill="#150d53"></path></g></g><g id="Group_491" data-name="Group 491" transform="translate(63.914 76.769)"><g id="Group_490" data-name="Group 490"><path id="Path_684" data-name="Path 684" d="M5764.847,724.569l-1.72,106.327-8.808-.173-11.821-95.1,1.555-23.191Z" transform="translate(-5742.498 -712.43)" fill="#2a3372"></path></g></g><g id="Group_493" data-name="Group 493" transform="translate(55.094 43.189)"><g id="Group_492" data-name="Group 492"><path id="Path_685" data-name="Path 685" d="M5741.532,664.831l6.333-9.021s14.718,14.192,14.812,17.677c.167,6.318-22.819,16.883-22.819,16.883s-4.665,9.23-4.81,10.892-1.744-7.511-2.571-10.788c-.509-2.013-3.981.546-4.788-.152s6.58-6.39,8.213-5.55c1.13.581,17.281-9.387,17.334-10.73C5753.3,672.377,5741.532,664.831,5741.532,664.831Z" transform="translate(-5727.627 -655.81)" fill="#ffbd9b"></path></g></g><g id="Group_495" data-name="Group 495" transform="translate(52.946 0)"><g id="Group_494" data-name="Group 494"><path id="Path_686" data-name="Path 686" d="M5724,582.99" transform="translate(-5724.005 -582.99)" fill="#ffbd9b"></path></g></g><g id="Group_497" data-name="Group 497" transform="translate(43.853 88.909)"><g id="Group_496" data-name="Group 496"><path id="Path_687" data-name="Path 687" d="M5741.792,733.19,5717.71,839.245h-9.037l6.049-106.348Z" transform="translate(-5708.673 -732.897)" fill="#303886"></path></g></g><g id="Group_508" data-name="Group 508" transform="translate(0 7.985)"><g id="Group_499" data-name="Group 499"><g id="Group_498" data-name="Group 498"><path id="Path_688" data-name="Path 688" d="M5640.337,601.9l.831-1.159-5.6-4.284-.831,1.159Z" transform="translate(-5634.734 -596.453)" fill="#575a74"></path></g></g><g id="Group_501" data-name="Group 501" transform="translate(14.755 9.017)"><g id="Group_500" data-name="Group 500"><path id="Path_689" data-name="Path 689" d="M5729.1,674.094l6.319-8.81a1.433,1.433,0,0,0-.283-1.963l-67.585-51.665-7.937,11.065,67.584,51.665A1.333,1.333,0,0,0,5729.1,674.094Z" transform="translate(-5659.613 -611.656)" fill="#ced0f6"></path></g></g><g id="Group_503" data-name="Group 503" transform="translate(3.302 2.043)"><g id="Group_502" data-name="Group 502"><path id="Path_690" data-name="Path 690" d="M5659.68,606.888l-17.164-6.991-2.216,3.09,11.442,14.966Z" transform="translate(-5640.301 -599.897)" fill="#ced0f6"></path></g></g><g id="Group_505" data-name="Group 505" transform="translate(14.756 9.033)"><g id="Group_504" data-name="Group 504"><path id="Path_691" data-name="Path 691" d="M5686.777,643.5l7.924-11.049-27.163-20.765-7.925,11.049Z" transform="translate(-5659.613 -611.684)" fill="#575a74"></path></g></g><g id="Group_507" data-name="Group 507" transform="translate(74.377 54.61)"><g id="Group_506" data-name="Group 506"><path id="Path_692" data-name="Path 692" d="M5770,705.375l6.307-8.793a1.433,1.433,0,0,0-.284-1.963l-7.963-6.087-7.926,11.049,7.964,6.088A1.332,1.332,0,0,0,5770,705.375Z" transform="translate(-5760.139 -688.531)" fill="#ced0f6"></path></g></g></g><g id="Group_510" data-name="Group 510" transform="translate(49.505 37.643)"><g id="Group_509" data-name="Group 509"><path id="Path_693" data-name="Path 693" d="M5731.08,646.5s-4.924-1.452-9.447,12.209-3.272,39.913-3.272,39.913h36.583s2.989-45.447-13.569-51.567a6.217,6.217,0,0,1-4.84,1.992A9.606,9.606,0,0,1,5731.08,646.5Z" transform="translate(-5718.203 -646.46)" fill="#de2f54"></path></g></g><g id="Group_512" data-name="Group 512" transform="translate(25.817 41.059)"><g id="Group_511" data-name="Group 511"><path id="Path_694" data-name="Path 694" d="M5682.938,652.219c.137,2.062,6.441,17.592,7.77,17.794,1.647.251,9.745-10.332,9.745-10.332l8.25,7.309s-15.76,13.025-19.232,12.725c-6.1-.527-10.513-23.989-11.206-25.27A24,24,0,0,1,5682.938,652.219Z" transform="translate(-5678.264 -652.219)" fill="#ffbd9b"></path></g></g><g id="Group_514" data-name="Group 514" transform="translate(46.021 41.659)"><g id="Group_513" data-name="Group 513"><path id="Path_695" data-name="Path 695" d="M5720.334,670.712s14.129-11.9,9.164-16.442-17.169,7.248-17.169,7.248S5716.527,668.538,5720.334,670.712Z" transform="translate(-5712.329 -653.23)" fill="#c9284f"></path></g></g><g id="Group_516" data-name="Group 516" transform="translate(53.276 4.531)"><g id="Group_515" data-name="Group 515"><path id="Path_696" data-name="Path 696" d="M5724.588,593.149c.337,2.674,1.152,6.728,3.011,7.511.009,0,.013.006.021,0,.253-.09,6.53-2.225,10.487,4.5a24.665,24.665,0,0,1,3.635,12.141c.369-.788,8.33-2.218,8.33-12.384,0-3.11-2.785-3.839-3.165-4.387-.418-.6-.154-2.877-.722-3.555-3.48-4.145-12-2.666-14.55-4.943C5729.758,590.364,5724.138,589.594,5724.588,593.149Z" transform="translate(-5724.563 -590.63)" fill="#575a74"></path></g></g><g id="Group_518" data-name="Group 518" transform="translate(66.309 19.642)"><g id="Group_517" data-name="Group 517"><path id="Path_697" data-name="Path 697" d="M5747.133,616.884a.657.657,0,0,1,.411-.506c.755-.289,2.5-.736,3.023,1.066.571,1.979-1.668,3.588-3.34,3.7a.659.659,0,0,1-.682-.772Z" transform="translate(-5746.536 -616.108)" fill="#fabca7"></path></g></g><g id="Group_520" data-name="Group 520" transform="translate(21.915 33.255)"><g id="Group_519" data-name="Group 519"><path id="Path_698" data-name="Path 698" d="M5676.091,642.724c1.416.808.268-3.143.94-3.641.4-.292,1.443,2.33,2.753,4.366a5.255,5.255,0,0,1,.477,3.416c-1.2,1.3-3.062,1.5-4.7,2.226-.081-.347.024-.87-.853-1.2a5.379,5.379,0,0,1-2.163-1.4c-.932-1.8-.848-5.462-.864-7.4C5671.682,638.83,5673.868,641.454,5676.091,642.724Z" transform="translate(-5671.684 -639.06)" fill="#fabca7"></path></g></g></g></g></svg> 