<svg width="187" height="214" viewBox="0 0 187 214" fill="none" xmlns="http://www.w3.org/2000/svg">
<path d="M63.5297 73.9492C63.5297 73.9492 33.1209 77.5589 22.2692 86.0166C11.4174 94.4743 13.5242 107.432 48.8778 100.625C84.2315 93.8187 63.5297 73.9492 63.5297 73.9492Z" fill="#12263F"/>
<path opacity="0.14" d="M63.5297 73.9492C63.5297 73.9492 33.1209 77.5589 22.2692 86.0166C11.4174 94.4743 13.5242 107.432 48.8778 100.625C84.2315 93.8187 63.5297 73.9492 63.5297 73.9492Z" fill="white"/>
<path d="M51.4927 52.7037C52.5542 52.5717 53.5848 52.2512 54.5375 51.7567C56.1275 50.9474 59.546 50.138 59.4745 53.5373C59.4268 55.6982 56.1275 53.1407 55.9049 56.0463C55.6823 58.9518 56.0878 62.6262 50.1968 61.7117C44.8226 60.8376 46.3172 53.3754 51.4927 52.7037Z" fill="#F4A28C"/>
<path d="M146.177 70.8502C168.675 70.8502 186.913 54.9898 186.913 35.4251C186.913 15.8604 168.675 0 146.177 0C123.679 0 105.441 15.8604 105.441 35.4251C105.441 54.9898 123.679 70.8502 146.177 70.8502Z" fill="#31C6AB"/>
<path opacity="0.45" d="M86.17 213.662C133.76 213.662 172.34 208.085 172.34 201.206C172.34 194.327 133.76 188.75 86.17 188.75C38.5796 188.75 0 194.327 0 201.206C0 208.085 38.5796 213.662 86.17 213.662Z" fill="#E6E6E6"/>
<path opacity="0.58" d="M121.897 187.155C121.897 187.155 113.835 184.954 112.055 177.346C112.055 177.346 124.52 174.724 124.926 187.868L121.897 187.155Z" fill="#31C6AB"/>
<path opacity="0.73" d="M122.882 186.335C122.882 186.335 117.221 177.31 122.134 168.82C122.134 168.82 131.674 174.915 127.477 186.335H122.882Z" fill="#31C6AB"/>
<path d="M124.332 186.338C124.332 186.338 127.266 176.763 136.257 174.918C136.257 174.918 137.966 181.118 130.485 186.338H124.332Z" fill="#31C6AB"/>
<path d="M118.496 186.148L120.174 197.504H130.453L131.916 186.148H118.496Z" fill="#24285B"/>
<path d="M67.9723 194.544C67.9723 194.544 66.8354 197.959 63.8303 198.267C60.8252 198.574 60.0779 201.593 62.8048 202.314C65.5316 203.034 72.4481 199.376 72.4481 199.376L72.154 194.52L67.9723 194.544Z" fill="#31C6AB"/>
<path d="M99.5795 190.733C99.5795 190.733 100.462 194.229 98.1088 196.164C95.7556 198.098 96.7652 201.02 99.4364 200.129C102.108 199.239 105.932 192.295 105.932 192.295L103.324 188.75L99.5795 190.733Z" fill="#31C6AB"/>
<path d="M73.7282 50.5207C73.7282 50.5207 76.622 55.6924 77.3455 59.6987C77.4142 60.0867 77.4069 60.4847 77.3241 60.8698C77.2413 61.255 77.0846 61.6197 76.863 61.943C76.6414 62.2664 76.3593 62.542 76.0328 62.7541C75.7063 62.9662 75.3419 63.1105 74.9605 63.1789C72.9809 63.5188 70.1905 63.3974 68.3143 60.8156L64.6016 56.8336C63.9404 55.9553 63.5624 54.8902 63.5197 53.7845C63.477 52.6787 63.7716 51.5867 64.3631 50.6583C66.3745 47.0405 72.1223 47.2752 73.7282 50.5207Z" fill="#F4A28C"/>
<path d="M65.9609 57.707L66.0404 77.2204L76.598 76.4029L72.4084 62.8869L65.9609 57.707Z" fill="#F4A28C"/>
<path d="M75.3906 53.8789L77.7756 55.271C77.9166 55.3482 78.0356 55.4612 78.1211 55.599C78.2066 55.7368 78.2558 55.8947 78.2637 56.0575C78.2717 56.2203 78.2383 56.3824 78.1667 56.5282C78.0952 56.674 77.9878 56.7985 77.8551 56.8897L76.0028 58.2332L75.3906 53.8789Z" fill="#F4A28C"/>
<path opacity="0.31" d="M72.5284 63.2676C71.235 63.137 70.0009 62.6502 68.9588 61.8594C68.9588 61.8594 68.5931 66.1166 73.7288 67.1363L72.5284 63.2676Z" fill="#CE8172"/>
<path d="M147.664 13.3126C151.909 13.5635 155.24 14.9313 157.657 17.3593C158.798 18.4847 159.68 19.8522 160.242 21.3644C160.804 22.8766 161.032 24.4964 160.909 26.1084C160.889 28.1897 160.341 30.2305 159.319 32.0328C158.317 33.5867 157.808 34.5418 156.266 35.6101C155.108 36.4728 153.867 37.2132 152.561 37.8196C151.687 38.2809 151.099 38.5399 150.868 38.7018C148.483 40.0049 147.139 41.2512 147.012 43.5012C146.933 44.9419 146.456 45.3223 145.096 45.2413L142.831 45.1037C141.471 45.0228 141.042 44.5938 141.121 43.1532C141.407 38.2486 143.506 36.0067 147.108 33.8457C147.052 33.8457 149.405 32.5427 149.493 32.486C150.227 32.0509 150.921 31.5498 151.568 30.9887C152.192 30.3701 152.728 29.6644 153.158 28.8925C153.532 27.9631 153.763 26.9802 153.841 25.9789C154.04 22.4663 151.623 19.9492 147.1 19.6822C142.735 19.4232 140.318 21.0661 138.522 24.603C137.814 26.0112 137.353 26.2217 136.017 25.6713L133.354 24.5301C132.074 24.0526 131.764 23.1623 132.305 21.9807C135.135 15.7649 140.255 12.8756 147.664 13.3126ZM144.063 48.3168C146.782 48.4787 147.632 49.458 147.473 52.2179V52.744C147.314 55.5605 146.36 56.3779 143.641 56.2161H143.188C140.469 56.0542 139.619 55.1396 139.778 52.315V51.797C139.937 49.0291 140.891 48.1631 143.61 48.3249L144.063 48.3168Z" fill="#F9FAFC"/>
<path d="M72.4407 73.207H83.0221C83.0221 73.207 116.913 76.1773 117.454 93.2384C117.994 110.299 96.076 144.381 96.076 144.381H59.5537C59.5537 144.381 17.538 73.207 72.4407 73.207Z" fill="#12263F"/>
<path opacity="0.08" d="M93.773 89.0469C93.773 89.0469 86.1251 100.151 89.321 108.795C92.5169 117.439 93.9399 131.287 69.3108 117.876L65.7333 106.254L56.1138 102.887L52.2422 118.92L58.8725 121.21C60.3969 121.713 61.667 122.804 62.4101 124.249C63.1533 125.694 63.3104 127.378 62.8475 128.94C61.965 131.691 59.7867 134.411 54.6828 134.937L59.588 144.35H96.1103L100.952 136.329L114.26 106.569L93.773 89.0469Z" fill="black"/>
<path d="M65.9767 61.6092C65.9767 61.6092 63.5281 57.0445 60.6025 55.0292C57.6769 53.0139 60.0698 46.5311 65.2135 45.3737C69.0613 44.4996 71.2634 43.2128 71.2952 41.0032C71.3096 40.7688 71.3859 40.5427 71.5161 40.3489C71.6463 40.155 71.8256 40.0005 72.0349 39.9019C72.2443 39.8032 72.4759 39.7639 72.7054 39.7883C72.9348 39.8126 73.1535 39.8996 73.3384 40.0401C75.1033 41.3917 76.9079 43.6012 76.0334 46.6606C75.6906 47.7703 75.0709 48.7704 74.2348 49.5634C73.3988 50.3564 72.375 50.915 71.2634 51.1848L67.7972 52.1236C67.7972 52.1236 72.44 58.4932 65.9767 61.6092Z" fill="#24285B"/>
<path d="M70.1678 57.7877C70.1678 57.7877 69.19 55.7239 67.7272 56.6061C66.2644 57.4882 67.6556 60.4747 69.8737 59.7787L70.1678 57.7877Z" fill="#F4A28C"/>
<path d="M113.777 45.3008L93.6719 61.1964L119.04 55.7009L113.777 45.3008Z" fill="#31C6AB"/>
<path d="M93.9455 94.2017C91.1471 83.7935 103.414 76.048 111.435 83.1541C115.259 86.5533 118.519 90.9238 119.505 96.3545C122.343 111.959 131.43 125.54 117.517 134.782C103.605 144.025 70.6758 123.516 70.6758 123.516L75.2073 115.139C75.2073 115.139 91.6877 121.784 101.911 121.201C108.963 120.805 97.8966 108.899 93.9455 94.2017Z" fill="#12263F"/>
<path d="M72.8856 103.572L62.9492 101.156L59.1215 117.475L69.0579 119.891L72.8856 103.572Z" fill="#FFD200"/>
<path opacity="0.3" d="M93.9455 94.2017C91.1471 83.7935 103.414 76.048 111.435 83.1541C115.259 86.5533 118.519 90.9238 119.505 96.3545C122.343 111.959 131.43 125.54 117.517 134.782C103.605 144.025 70.6758 123.516 70.6758 123.516L75.2073 115.139C75.2073 115.139 91.6877 121.784 101.911 121.201C108.963 120.805 97.8966 108.899 93.9455 94.2017Z" fill="white"/>
<path d="M74.6034 116.188C74.2301 114.596 73.4888 113.117 72.441 111.874C70.6602 109.705 70.056 108.742 67.5994 108.791C65.1429 108.839 64.8964 118.025 71.6778 121.595L74.6034 116.188Z" fill="#F4A28C"/>
<path d="M96.0749 144.379C96.0749 144.379 88.7609 175.296 103.405 188.294L98.2453 193.207C98.2453 193.207 79.2606 181.989 76.6133 151.169L96.0749 144.379Z" fill="#24285B"/>
<path d="M47.1446 56.2031L50.1974 61.6986L27.8738 97.5122C24.4235 103.04 15.8295 100.75 15.75 94.2019C15.75 91.1831 16.6483 87.5491 19.2957 83.2596C28.8834 67.6716 47.1446 56.2031 47.1446 56.2031Z" fill="#12263F"/>
<path opacity="0.3" d="M47.1446 56.2031L50.1974 61.6986L27.8738 97.5122C24.4235 103.04 15.8295 100.75 15.75 94.2019C15.75 91.1831 16.6483 87.5491 19.2957 83.2596C28.8834 67.6716 47.1446 56.2031 47.1446 56.2031Z" fill="white"/>
<path d="M44.871 45.6651L44.6602 47.2695L52.9418 48.3975L53.1527 46.7931L44.871 45.6651Z" fill="#C9C9C9"/>
<path d="M51.2853 35.4341L50.0625 36.4688L55.4031 43.0106L56.6259 41.976L51.2853 35.4341Z" fill="#C9C9C9"/>
<path d="M61.7484 32.7997L60.9766 41.2695L62.5598 41.4191L63.3316 32.9492L61.7484 32.7997Z" fill="#C9C9C9"/>
<path d="M59.5518 144.379C59.5518 144.379 52.047 173.24 66.8419 194.518L72.8203 194.227C72.8203 194.227 64.1548 165.438 77.0259 154.908L96.1059 144.387L59.5518 144.379Z" fill="#24285B"/>
</svg>
