<svg width="234" height="244" viewBox="0 0 234 244" fill="none" xmlns="http://www.w3.org/2000/svg">
<path d="M164.158 101.267C164.158 101.267 175.76 123.802 162.128 123.517C148.496 123.232 154.588 131.981 146.407 143.586C138.226 155.192 127.712 136.315 120.34 142.002C112.968 147.689 124.291 171.871 87.7268 162.152C51.1623 152.433 34.3207 161.591 33.8068 137.971C33.2928 114.35 16.704 124.852 12.5 114.181C8.2959 103.51 11.1772 85.7008 12.5 84.615C13.8227 83.5292 164.158 101.267 164.158 101.267Z" fill="#A5EAD5" fill-opacity="0.5"/>
<path d="M167.701 41.1868C167.701 41.1868 173.211 26.1814 161.593 20.7168C149.974 15.2522 141.592 27.7478 136.393 15.0208C131.195 2.29385 121.523 -3.60685 112.07 2.30275C102.618 8.21235 95.094 18.8834 80.8979 10.4818C66.7018 2.08025 54.7804 2.25825 47.518 14.2999C40.2557 26.3416 7.76045 14.2999 23.035 48.8408C40.3484 87.8495 115.331 60.6689 115.331 60.6689L167.701 41.1868Z" fill="#A5EAD5" fill-opacity="0.5"/>
<path d="M184.511 51.3215C186.458 56.9107 178.833 62.2774 182.692 66.6117C186.904 71.3109 189.887 83.5217 178.563 87.9716C159.144 95.4743 180.804 97.7617 169.759 112.527C158.714 127.292 152.353 103.217 143.423 114.805C134.492 126.393 147.635 147.005 128.974 142.529C110.312 138.052 101.786 144.994 99.0651 160.427C96.3438 175.859 69.3839 171.178 66.6289 155.567C63.8739 139.957 50.0569 147.833 35.8524 142.529C21.6478 137.224 18.7496 133.833 22.6925 120.385C26.6354 106.938 17.4353 103.6 8.22678 99.7107C-0.98175 95.8214 -2.81839 85.8179 4.54506 78.3508C11.9085 70.8837 0.0713654 63.6213 7.43481 53.3418C14.7983 43.0623 17.9576 33.6105 34.0073 36.1114C50.0569 38.6123 61.8098 20.2694 78.9546 27.2114C96.0995 34.1534 94.3808 19.3616 108.383 22.4232C122.386 25.4848 117.651 37.4286 126.868 36.8768C136.085 36.325 146.338 21.5866 157.113 34.1C166.533 45.0025 177.156 30.2018 184.511 51.3215Z" fill="#9FE3CF"/>
<path opacity="0.32" d="M132.51 243.03C76.99 243.03 31.9825 240.806 31.9825 238.063C31.9825 235.321 76.99 233.097 132.51 233.097C188.029 233.097 233.037 235.321 233.037 238.063C233.037 240.806 188.029 243.03 132.51 243.03Z" fill="#C9C9C9"/>
<path opacity="0.54" d="M199.32 206.273H221.579V210.135H199.32V206.273Z" fill="white"/>
<path d="M77.4947 227.686L67.9913 208.204L72.743 229.715L62.9953 220.459L70.2071 236.702H82.457L77.4947 227.686Z" fill="#43CBA2" fill-opacity="0.7"/>
<path d="M77 237H102L97.4964 114H80.0719L77 237Z" fill="#C0A48F"/>
<path d="M94.2604 237.494C94.2604 237.494 90.6292 231.985 96.038 230.463C101.447 228.941 94.7406 221.563 99.7787 220.548C104.817 219.534 103.991 227.428 103.991 227.428C103.991 227.428 107.471 224.259 109.889 226.921C112.307 229.582 108.928 232.501 108.928 232.501C108.928 232.501 113.781 234.281 110.756 237.494H94.2604Z" fill="#63CCAC"/>
<path d="M97.5131 135.135L131.466 117.531L130.573 114.051L97.1592 121.954L97.5131 135.135Z" fill="#C0A48F"/>
<path d="M79.2891 158.551L48.2177 139.371L50.206 134.797L79.6514 144.569L79.2891 158.551Z" fill="#C0A48F"/>
<path d="M178.978 236.273C179.091 236.795 179.072 237.339 178.925 237.851C178.777 238.363 178.505 238.825 178.136 239.192C176.889 240.216 177.386 241.818 178.784 241.355C180.183 240.892 182.247 237.181 182.247 237.181L180.562 234.715L178.978 236.273Z" fill="#3381E7"/>
<path d="M161.766 236.273C161.879 236.795 161.86 237.339 161.713 237.851C161.565 238.363 161.293 238.825 160.924 239.192C159.677 240.216 160.174 241.818 161.572 241.355C162.971 240.892 165.035 237.181 165.035 237.181L163.35 234.715L161.766 236.273Z" fill="#3381E7"/>
<path d="M223.065 215.135V207.597C223.065 206.586 222.877 205.585 222.511 204.651C222.144 203.717 221.608 202.868 220.931 202.153C220.254 201.438 219.451 200.871 218.567 200.484C217.682 200.097 216.735 199.898 215.778 199.898C213.846 199.901 211.995 200.713 210.63 202.156C209.265 203.6 208.499 205.557 208.499 207.597V215.153" stroke="#12263F" stroke-width="3" stroke-linecap="round" stroke-linejoin="round"/>
<path d="M226.578 211.273H204.319V219.826C204.319 222.011 205.141 224.108 206.604 225.653C208.067 227.199 210.052 228.067 212.121 228.067H218.777C220.846 228.067 222.83 227.199 224.293 225.653C225.756 224.108 226.578 222.011 226.578 219.826V211.273Z" fill="#FFD037"/>
<path opacity="0.54" d="M204.319 211.273H226.578V215.135H204.319V211.273Z" fill="white"/>
<path d="M180.638 159.421C180.892 160.339 180.969 161.302 180.863 162.252C180.757 163.202 180.471 164.12 180.022 164.951C179.573 165.781 178.97 166.508 178.25 167.087C177.529 167.666 176.705 168.086 175.827 168.321C168.06 170.413 156.18 175.032 147.553 171.481C136.373 166.879 142.498 139.797 142.498 139.797L147.326 140.251C147.326 140.251 139.027 174.961 170.073 154.099C174.025 151.429 179.341 154.66 180.63 159.439L180.638 159.421Z" fill="#3381E7"/>
<path opacity="0.79" d="M180.638 159.421C180.892 160.339 180.969 161.302 180.863 162.252C180.757 163.202 180.471 164.12 180.022 164.951C179.573 165.781 178.97 166.508 178.25 167.087C177.529 167.666 176.705 168.086 175.827 168.321C168.06 170.413 156.18 175.032 147.553 171.481C136.373 166.879 142.498 139.797 142.498 139.797L147.326 140.251C147.326 140.251 139.027 174.961 170.073 154.099C174.025 151.429 179.341 154.66 180.63 159.439L180.638 159.421Z" fill="#F9FAFC"/>
<path d="M179.871 139.129C179.027 140.766 178.392 142.514 177.984 144.327C177.949 144.546 177.956 144.769 178.003 144.985C178.05 145.201 178.137 145.405 178.259 145.586C178.382 145.766 178.536 145.919 178.715 146.036C178.893 146.153 179.091 146.231 179.299 146.267C179.959 146.426 180.649 146.381 181.286 146.136C181.922 145.891 182.478 145.458 182.888 144.888L184.876 142.627C185.228 142.127 185.425 141.523 185.439 140.9C185.452 140.276 185.282 139.664 184.952 139.147C183.84 137.127 180.714 137.287 179.871 139.129Z" fill="#F4A28C"/>
<path d="M183.72 142.084L184.437 153.04L178.691 153.031L180.477 145.057L183.72 142.084Z" fill="#F4A28C"/>
<path d="M180.545 139.592C181.428 140.048 182.358 140.394 183.317 140.624C182.884 140.92 182.543 141.343 182.335 141.841C182.127 142.34 182.061 142.891 182.146 143.428C182.217 143.951 182.459 144.432 182.83 144.787C183.2 145.143 183.676 145.351 184.176 145.377L185.777 141.408C186.022 140.849 186.12 140.231 186.06 139.619C186.001 139.006 185.787 138.422 185.44 137.928C185.138 137.498 184.811 137.088 184.462 136.699C183.62 135.747 181.691 135.809 181.092 134.555C181.024 134.435 180.928 134.336 180.813 134.267C180.698 134.198 180.568 134.162 180.435 134.162C180.303 134.162 180.173 134.198 180.058 134.267C179.943 134.336 179.846 134.435 179.778 134.555C179.104 135.667 178.523 137.652 179.778 139.005C180 139.245 180.26 139.443 180.545 139.592Z" fill="#24285B"/>
<path d="M181.859 143.197C181.859 143.197 182.373 142.022 183.173 142.511C183.974 143.001 183.241 144.683 182.036 144.291L181.859 143.197Z" fill="#F4A28C"/>
<path d="M179.004 141.034L177.698 141.844C177.628 141.893 177.571 141.959 177.532 142.036C177.493 142.114 177.472 142.201 177.472 142.289C177.472 142.377 177.493 142.464 177.532 142.541C177.571 142.619 177.628 142.685 177.698 142.734L178.717 143.473L179.004 141.034Z" fill="#F4A28C"/>
<path opacity="0.31" d="M180.013 146.783C180.742 146.663 181.422 146.32 181.968 145.795C181.608 147.346 180.705 148.695 179.44 149.569L180.013 146.783Z" fill="#CE8172"/>
<path d="M186.83 152.862H182.921C181.97 152.861 181.019 152.801 180.074 152.684C177.041 152.292 167.975 151.99 163.308 161.183C157.646 172.326 168.186 193.935 168.186 193.935L187.858 195.849C187.858 195.849 214.65 156.564 186.83 152.862Z" fill="#3AB2E6"/>
<path opacity="0.08" d="M183.435 163.551C183.435 163.551 181.809 168.348 185.424 176.509C189.038 184.67 176.881 194.772 176.881 194.772L187.833 195.84C187.833 195.84 196.258 182.855 198.457 173.261C200.656 163.666 183.916 163.773 183.916 163.773L183.435 163.551Z" fill="black"/>
<path d="M146.179 140.135C146.179 140.135 147.325 133.771 144.494 132.365C141.663 130.959 142.522 139.797 142.522 139.797L146.179 140.135Z" fill="#F4A28C"/>
<path d="M190.757 153.725C190.757 153.725 207.775 157.472 213.243 175.014C218.711 192.556 219.368 195.84 219.368 195.84L213.075 197.131C213.075 197.131 207.834 174.738 195.685 172.78C183.537 170.822 178.204 156.529 190.757 153.725Z" fill="#3381E7"/>
<path opacity="0.79" d="M190.757 153.725C190.757 153.725 207.775 157.472 213.243 175.014C218.711 192.556 219.368 195.84 219.368 195.84L213.075 197.131C213.075 197.131 207.834 174.738 195.685 172.78C183.537 170.822 178.204 156.529 190.757 153.725Z" fill="#F9FAFC"/>
<path d="M217.615 196.196C217.615 196.196 220.143 203.574 216.528 203.574C212.914 203.574 213.049 197.131 213.049 197.131L217.615 196.196Z" fill="#F4A28C"/>
<path d="M187.858 195.84L177.479 209.564C176.733 210.551 176.237 211.723 176.038 212.968C175.839 214.214 175.943 215.493 176.341 216.684L182.534 235.187L177.959 236.362L169.787 219.345C168.946 217.592 168.49 215.663 168.45 213.699C168.411 211.734 168.79 209.786 169.559 207.997L173.056 199.89L168.186 193.935L187.858 195.84Z" fill="#24285B"/>
<path opacity="0.08" d="M143.255 136.486C138.807 136.486 135.201 132.677 135.201 127.978C135.201 123.279 138.807 119.469 143.255 119.469C147.704 119.469 151.31 123.279 151.31 127.978C151.31 132.677 147.704 136.486 143.255 136.486Z" fill="black"/>
<path d="M143.255 136.486C138.807 136.486 135.201 132.677 135.201 127.978C135.201 123.279 138.807 119.469 143.255 119.469C147.704 119.469 151.31 123.279 151.31 127.978C151.31 132.677 147.704 136.486 143.255 136.486Z" fill="#FFD200"/>
<path opacity="0.08" d="M143.255 136.486C138.807 136.486 135.201 132.677 135.201 127.978C135.201 123.279 138.807 119.469 143.255 119.469C147.704 119.469 151.31 123.279 151.31 127.978C151.31 132.677 147.704 136.486 143.255 136.486Z" fill="black"/>
<path opacity="0.08" d="M143.653 133.923C139.204 133.923 135.598 130.114 135.598 125.414C135.598 120.715 139.204 116.906 143.653 116.906C148.101 116.906 151.707 120.715 151.707 125.414C151.707 130.114 148.101 133.923 143.653 133.923Z" fill="black"/>
<path d="M143.653 133.923C139.204 133.923 135.598 130.114 135.598 125.414C135.598 120.715 139.204 116.906 143.653 116.906C148.101 116.906 151.707 120.715 151.707 125.414C151.707 130.114 148.101 133.923 143.653 133.923Z" fill="#FFD200"/>
<path d="M143.315 120.947C143.088 120.947 143.021 121.027 143.021 121.267V121.783C142.62 121.827 142.238 121.985 141.916 122.24C141.593 122.496 141.343 122.839 141.192 123.234C141.074 123.492 141.125 123.626 141.395 123.75L141.883 123.982C142.111 124.097 142.22 124.044 142.347 123.795C142.447 123.534 142.624 123.315 142.852 123.169C143.079 123.023 143.345 122.958 143.61 122.985C144.453 122.985 144.84 123.252 144.84 123.875C144.84 124.257 144.503 124.498 144.158 124.569C143.923 124.628 143.683 124.667 143.442 124.685C142.993 124.709 142.551 124.802 142.127 124.961C141.914 125.031 141.717 125.146 141.546 125.299C141.37 125.492 141.232 125.721 141.14 125.972C141.049 126.222 141.007 126.49 141.015 126.758C141.015 127.898 141.74 128.672 143.021 128.877V129.419C143.021 129.66 143.088 129.74 143.315 129.74H143.863C144.091 129.74 144.166 129.66 144.166 129.419V128.885C144.611 128.856 145.037 128.687 145.39 128.4C145.742 128.113 146.006 127.721 146.146 127.275C146.168 127.228 146.179 127.177 146.179 127.125C146.178 127.073 146.167 127.021 146.145 126.975C146.123 126.928 146.091 126.888 146.052 126.857C146.013 126.825 145.967 126.804 145.919 126.794L145.439 126.607C145.186 126.509 145.076 126.607 144.967 126.83C144.87 127.113 144.687 127.355 144.446 127.516C144.205 127.678 143.92 127.749 143.636 127.72C142.717 127.72 142.262 127.417 142.262 126.83C142.255 126.686 142.293 126.544 142.371 126.426C142.449 126.308 142.562 126.222 142.692 126.18C143.006 126.061 143.336 125.992 143.669 125.975C144.126 125.955 144.576 125.852 145 125.673C145.209 125.597 145.403 125.482 145.573 125.334C145.75 125.148 145.889 124.926 145.982 124.681C146.074 124.436 146.119 124.174 146.113 123.91C146.113 122.78 145.439 122.024 144.166 121.846V121.267C144.166 121.027 144.091 120.947 143.863 120.947H143.315Z" fill="white"/>
<path opacity="0.08" d="M50.5063 160.285C46.058 160.285 42.452 156.475 42.452 151.776C42.452 147.077 46.058 143.268 50.5063 143.268C54.9545 143.268 58.5605 147.077 58.5605 151.776C58.5605 156.475 54.9545 160.285 50.5063 160.285Z" fill="black"/>
<path d="M50.5063 160.285C46.058 160.285 42.452 156.475 42.452 151.776C42.452 147.077 46.058 143.268 50.5063 143.268C54.9545 143.268 58.5605 147.077 58.5605 151.776C58.5605 156.475 54.9545 160.285 50.5063 160.285Z" fill="#FFD200"/>
<path opacity="0.08" d="M50.5063 160.285C46.058 160.285 42.452 156.475 42.452 151.776C42.452 147.077 46.058 143.268 50.5063 143.268C54.9545 143.268 58.5605 147.077 58.5605 151.776C58.5605 156.475 54.9545 160.285 50.5063 160.285Z" fill="black"/>
<path opacity="0.08" d="M50.9008 157.721C46.4526 157.721 42.8466 153.912 42.8466 149.213C42.8466 144.514 46.4526 140.705 50.9008 140.705C55.3491 140.705 58.9551 144.514 58.9551 149.213C58.9551 153.912 55.3491 157.721 50.9008 157.721Z" fill="black"/>
<path d="M50.9008 157.721C46.4526 157.721 42.8466 153.912 42.8466 149.213C42.8466 144.514 46.4526 140.705 50.9008 140.705C55.3491 140.705 58.9551 144.514 58.9551 149.213C58.9551 153.912 55.3491 157.721 50.9008 157.721Z" fill="#FFD200"/>
<path d="M50.564 144.745C50.3365 144.745 50.2691 144.825 50.2691 145.066V145.582C49.8636 145.629 49.4783 145.794 49.1557 146.057C48.8331 146.321 48.5858 146.674 48.4409 147.077C48.3229 147.326 48.3735 147.469 48.6431 147.593L49.1233 147.825C49.3592 147.931 49.4603 147.887 49.5951 147.629C49.6956 147.369 49.873 147.151 50.1008 147.006C50.3286 146.862 50.5946 146.799 50.8589 146.828C51.7014 146.828 52.0889 147.086 52.0889 147.718C52.07 147.9 51.9916 148.07 51.8671 148.199C51.7426 148.327 51.5798 148.405 51.4065 148.421C51.1703 148.475 50.9311 148.514 50.6903 148.537C50.2419 148.56 49.7991 148.653 49.3761 148.812C49.1614 148.881 48.9612 148.993 48.7863 149.142C48.4369 149.54 48.2493 150.067 48.2639 150.61C48.2639 151.749 48.9885 152.524 50.2691 152.72V153.262C50.2691 153.503 50.3365 153.592 50.564 153.592H51.1116C51.3391 153.592 51.4149 153.503 51.4149 153.262V152.728C51.859 152.698 52.2845 152.528 52.6371 152.242C52.9897 151.955 53.2535 151.563 53.3948 151.118C53.479 150.895 53.3948 150.735 53.1673 150.637L52.6871 150.45C52.4343 150.361 52.3248 150.45 52.2153 150.681C52.1178 150.964 51.9342 151.205 51.6934 151.366C51.4525 151.527 51.1679 151.599 50.8841 151.571C49.9658 151.571 49.5109 151.269 49.5109 150.681C49.5046 150.538 49.5433 150.397 49.6211 150.279C49.6988 150.162 49.8111 150.075 49.9405 150.032C50.2553 149.916 50.5847 149.85 50.9178 149.836C51.3735 149.807 51.8223 149.705 52.249 149.533C52.4565 149.451 52.6499 149.334 52.8219 149.186C52.9994 149.001 53.139 148.778 53.2317 148.533C53.3245 148.288 53.3685 148.026 53.3611 147.762C53.3611 146.632 52.6871 145.884 51.4149 145.706V145.19C51.4149 144.95 51.3391 144.87 51.1116 144.87L50.564 144.745Z" fill="white"/>
<path opacity="0.08" d="M127.719 85.1509C122.75 85.1509 118.721 80.8953 118.721 75.6457C118.721 70.3961 122.75 66.1405 127.719 66.1405C132.688 66.1405 136.717 70.3961 136.717 75.6457C136.717 80.8953 132.688 85.1509 127.719 85.1509Z" fill="black"/>
<path d="M127.719 85.1509C122.75 85.1509 118.721 80.8953 118.721 75.6457C118.721 70.3961 122.75 66.1405 127.719 66.1405C132.688 66.1405 136.717 70.3961 136.717 75.6457C136.717 80.8953 132.688 85.1509 127.719 85.1509Z" fill="#FFD200"/>
<path opacity="0.08" d="M127.719 85.1509C122.75 85.1509 118.721 80.8953 118.721 75.6457C118.721 70.3961 122.75 66.1405 127.719 66.1405C132.688 66.1405 136.717 70.3961 136.717 75.6457C136.717 80.8953 132.688 85.1509 127.719 85.1509Z" fill="black"/>
<path opacity="0.08" d="M128.782 82.4809C123.813 82.4809 119.784 78.2252 119.784 72.9757C119.784 67.7261 123.813 63.4705 128.782 63.4705C133.752 63.4705 137.78 67.7261 137.78 72.9757C137.78 78.2252 133.752 82.4809 128.782 82.4809Z" fill="black"/>
<path d="M128.782 82.4809C123.813 82.4809 119.784 78.2252 119.784 72.9757C119.784 67.7261 123.813 63.4705 128.782 63.4705C133.752 63.4705 137.78 67.7261 137.78 72.9757C137.78 78.2252 133.752 82.4809 128.782 82.4809Z" fill="#FFD200"/>
<path d="M129.539 68.0272C129.286 67.9649 129.194 68.0272 129.135 68.2942L129.008 68.8549C128.563 68.7898 128.109 68.8549 127.696 69.0432C127.283 69.2315 126.927 69.5358 126.666 69.9229C126.472 70.1632 126.489 70.3234 126.75 70.537L127.222 70.9197C127.441 71.1066 127.568 71.0888 127.77 70.8485C127.946 70.5938 128.195 70.4054 128.48 70.3109C128.765 70.2164 129.071 70.2208 129.354 70.3234C130.264 70.5637 130.617 70.9553 130.466 71.5961C130.4 71.7882 130.274 71.9506 130.108 72.0559C129.942 72.1612 129.747 72.2032 129.556 72.1746C129.274 72.1641 128.993 72.1374 128.713 72.0945C128.219 71.9964 127.714 71.9724 127.214 72.0233C126.965 72.0453 126.723 72.1147 126.498 72.228C126.258 72.3892 126.051 72.6001 125.89 72.8479C125.73 73.0957 125.618 73.3753 125.562 73.6698C125.276 74.9069 125.874 75.9482 127.205 76.5267L127.071 77.1141C127.012 77.3722 127.071 77.4879 127.315 77.5502L127.905 77.7015C128.157 77.7638 128.258 77.7015 128.317 77.4345L128.452 76.856C128.939 76.9376 129.437 76.8673 129.886 76.6539C130.335 76.4405 130.715 76.0931 130.98 75.6545C131.014 75.6095 131.039 75.5567 131.051 75.5002C131.064 75.4437 131.064 75.3849 131.052 75.3283C131.04 75.2718 131.016 75.2188 130.981 75.1736C130.947 75.1283 130.903 75.0919 130.853 75.0671L130.373 74.7289C130.129 74.5598 129.994 74.5954 129.809 74.8535C129.628 75.1333 129.365 75.3418 129.06 75.4465C128.755 75.5512 128.426 75.5461 128.124 75.432C127.138 75.1828 126.717 74.72 126.868 74.0525C126.895 73.8948 126.97 73.7511 127.084 73.6445C127.197 73.5379 127.34 73.4747 127.492 73.4651C127.863 73.427 128.238 73.448 128.604 73.5274C129.109 73.607 129.623 73.607 130.129 73.5274C130.375 73.5016 130.615 73.4293 130.837 73.3138C131.075 73.1612 131.281 72.9584 131.442 72.718C131.603 72.4776 131.715 72.2048 131.772 71.9165C132.05 70.6883 131.511 69.6826 130.179 69.1397L130.306 68.579C130.365 68.3209 130.306 68.2052 130.053 68.1429L129.539 68.0272Z" fill="white"/>
<path opacity="0.08" d="M43.9331 90.3841C39.4709 90.3841 35.8535 86.5628 35.8535 81.849C35.8535 77.1352 39.4709 73.3139 43.9331 73.3139C48.3953 73.3139 52.0127 77.1352 52.0127 81.849C52.0127 86.5628 48.3953 90.3841 43.9331 90.3841Z" fill="black"/>
<path d="M43.9331 90.3841C39.4709 90.3841 35.8535 86.5628 35.8535 81.849C35.8535 77.1352 39.4709 73.3139 43.9331 73.3139C48.3953 73.3139 52.0127 77.1352 52.0127 81.849C52.0127 86.5628 48.3953 90.3841 43.9331 90.3841Z" fill="#FFD200"/>
<path opacity="0.08" d="M43.9331 90.3841C39.4709 90.3841 35.8535 86.5628 35.8535 81.849C35.8535 77.1352 39.4709 73.3139 43.9331 73.3139C48.3953 73.3139 52.0127 77.1352 52.0127 81.849C52.0127 86.5628 48.3953 90.3841 43.9331 90.3841Z" fill="black"/>
<path opacity="0.08" d="M44.3872 87.8297C39.925 87.8297 36.3076 84.0084 36.3076 79.2946C36.3076 74.5808 39.925 70.7595 44.3872 70.7595C48.8494 70.7595 52.4668 74.5808 52.4668 79.2946C52.4668 84.0084 48.8494 87.8297 44.3872 87.8297Z" fill="black"/>
<path d="M44.3872 87.8297C39.925 87.8297 36.3076 84.0084 36.3076 79.2946C36.3076 74.5808 39.925 70.7595 44.3872 70.7595C48.8494 70.7595 52.4668 74.5808 52.4668 79.2946C52.4668 84.0084 48.8494 87.8297 44.3872 87.8297Z" fill="#FFD200"/>
<path d="M44.1605 74.8002C43.933 74.8002 43.8572 74.8803 43.8572 75.1206V75.6368C43.455 75.6699 43.0691 75.8184 42.741 76.0662C42.4129 76.314 42.155 76.6518 41.9952 77.043C41.8688 77.2922 41.9194 77.4346 42.1806 77.5681L42.6608 77.8084C42.8883 77.933 42.9978 77.8796 43.1326 77.6304C43.2433 77.3727 43.4286 77.1589 43.6618 77.0197C43.895 76.8805 44.164 76.8232 44.4301 76.8561C45.2726 76.8561 45.6517 77.1498 45.6348 77.7461C45.6117 77.9283 45.5292 78.0963 45.4017 78.2213C45.2741 78.3464 45.1093 78.4206 44.9356 78.4314C44.7001 78.4865 44.4604 78.5193 44.2194 78.5293C43.7669 78.5388 43.3182 78.6198 42.8883 78.7696C42.675 78.8379 42.4752 78.9464 42.2985 79.09C42.1177 79.2798 41.9745 79.506 41.8776 79.7551C41.7807 80.0042 41.7318 80.2713 41.7341 80.5407C41.7341 81.6888 42.4165 82.4809 43.6887 82.7123V83.2641C43.6887 83.5044 43.7476 83.5845 43.9751 83.5934H44.5227C44.7502 83.5934 44.8344 83.5133 44.8429 83.273V82.739C45.2884 82.717 45.7179 82.5567 46.0776 82.2781C46.4373 81.9994 46.7111 81.6149 46.8649 81.1726C46.8865 81.1264 46.8981 81.0758 46.8989 81.0244C46.8997 80.9729 46.8897 80.9219 46.8695 80.875C46.8493 80.8282 46.8196 80.7867 46.7823 80.7535C46.7451 80.7203 46.7013 80.6962 46.6542 80.6831L46.1656 80.4873C45.9213 80.3805 45.8118 80.4873 45.6938 80.7009C45.5966 80.9896 45.4094 81.2349 45.163 81.3965C44.9166 81.5582 44.6255 81.6267 44.3374 81.5909C43.419 81.5909 42.9725 81.2527 42.9894 80.6386C42.9841 80.4954 43.0243 80.3545 43.1038 80.2383C43.1832 80.1222 43.2972 80.0375 43.4275 79.9978C43.7466 79.8904 44.0784 79.8305 44.4132 79.8198C44.8703 79.8066 45.3226 79.7165 45.7528 79.5528C46.1105 79.443 46.421 79.2056 46.6315 78.881C46.842 78.5564 46.9393 78.1647 46.907 77.7728C46.916 77.5017 46.8739 77.2315 46.7832 76.9778C46.6925 76.7241 46.5549 76.4919 46.3785 76.2949C46.2022 76.0978 45.9905 75.9397 45.7558 75.8298C45.5211 75.7199 45.2681 75.6603 45.0114 75.6546V75.1384C45.0114 74.8981 44.944 74.818 44.7165 74.8091L44.1605 74.8002Z" fill="white"/>
<path opacity="0.08" d="M87.2123 113.355C82.764 113.355 79.158 109.545 79.158 104.846C79.158 100.147 82.764 96.338 87.2123 96.338C91.6606 96.338 95.2666 100.147 95.2666 104.846C95.2666 109.545 91.6606 113.355 87.2123 113.355Z" fill="black"/>
<path d="M87.2123 113.355C82.764 113.355 79.158 109.545 79.158 104.846C79.158 100.147 82.764 96.338 87.2123 96.338C91.6606 96.338 95.2666 100.147 95.2666 104.846C95.2666 109.545 91.6606 113.355 87.2123 113.355Z" fill="#FFD200"/>
<path opacity="0.08" d="M87.2123 113.355C82.764 113.355 79.158 109.545 79.158 104.846C79.158 100.147 82.764 96.338 87.2123 96.338C91.6606 96.338 95.2666 100.147 95.2666 104.846C95.2666 109.545 91.6606 113.355 87.2123 113.355Z" fill="black"/>
<path opacity="0.08" d="M87.1117 110.765C82.6634 110.765 79.0574 106.956 79.0574 102.257C79.0574 97.5576 82.6634 93.7482 87.1117 93.7482C91.56 93.7482 95.166 97.5576 95.166 102.257C95.166 106.956 91.56 110.765 87.1117 110.765Z" fill="black"/>
<path d="M87.1117 110.765C82.6634 110.765 79.0574 106.956 79.0574 102.257C79.0574 97.5576 82.6634 93.7482 87.1117 93.7482C91.56 93.7482 95.166 97.5576 95.166 102.257C95.166 106.956 91.56 110.765 87.1117 110.765Z" fill="#FFD200"/>
<path d="M85.9242 97.9491C85.6967 97.9491 85.6461 98.0915 85.6967 98.3318L85.7894 98.8302C85.4105 98.9561 85.0711 99.1882 84.807 99.5016C84.543 99.815 84.3642 100.198 84.2897 100.61C84.2223 100.886 84.2897 101.002 84.5762 101.073L85.0985 101.189C85.3428 101.251 85.4439 101.189 85.5198 100.904C85.5812 100.639 85.7187 100.402 85.9133 100.223C86.1079 100.045 86.3501 99.9342 86.6066 99.9071C87.4491 99.7291 87.8619 99.9071 87.9714 100.486C87.9865 100.667 87.942 100.848 87.8453 100.999C87.7486 101.15 87.6057 101.261 87.4407 101.313C87.2228 101.42 86.9975 101.51 86.7667 101.58C86.3316 101.703 85.9148 101.888 85.5282 102.132C85.3299 102.246 85.1551 102.4 85.0143 102.586C84.8797 102.815 84.7903 103.07 84.7512 103.336C84.7121 103.602 84.7242 103.874 84.7868 104.135C84.9002 104.68 85.2116 105.158 85.6541 105.464C86.0967 105.77 86.6352 105.881 87.1542 105.772L87.2553 106.306C87.3059 106.546 87.3817 106.609 87.6092 106.564L88.1399 106.44C88.3674 106.44 88.4264 106.297 88.3843 106.057L88.2747 105.541C88.7039 105.412 89.0876 105.152 89.3782 104.795C89.6689 104.437 89.8535 103.997 89.9092 103.529C89.9092 103.289 89.8334 103.156 89.589 103.111L89.0835 103.031C88.8224 103.031 88.7213 103.031 88.6707 103.36C88.6246 103.658 88.4876 103.931 88.2807 104.138C88.0738 104.345 87.8084 104.475 87.5249 104.508C86.6403 104.704 86.1348 104.508 86.0168 103.894C85.9811 103.758 85.9899 103.612 86.0419 103.481C86.0938 103.351 86.1859 103.242 86.3033 103.173C86.5901 102.987 86.9028 102.848 87.23 102.764C87.6683 102.639 88.0859 102.444 88.4685 102.185C88.6575 102.062 88.8256 101.905 88.9656 101.723C89.1035 101.502 89.197 101.254 89.2405 100.994C89.284 100.734 89.2764 100.467 89.2183 100.21C89.1682 99.9443 89.0686 99.692 88.9256 99.4675C88.7825 99.243 88.5987 99.0506 88.3848 98.9017C88.1709 98.7527 87.9311 98.65 87.6794 98.5995C87.4277 98.5491 87.169 98.5518 86.9183 98.6077L86.8172 98.1093C86.7751 97.869 86.6824 97.8067 86.4549 97.8601L85.9242 97.9491Z" fill="white"/>
<path d="M168.186 193.927C168.186 193.927 155.7 206.618 156.559 216.399C157.223 222.945 158.452 229.412 160.233 235.721L165.06 234.181C165.06 234.181 157.318 207.481 178.026 202.542L168.186 193.927Z" fill="#24285B"/>
</svg>
